<?xml version="1.0" encoding="utf-8" standalone="no"?>
<!DOCTYPE svg PUBLIC "-//W3C//DTD SVG 1.1//EN"
  "http://www.w3.org/Graphics/SVG/1.1/DTD/svg11.dtd">
<!-- Created with matplotlib (http://matplotlib.org/) -->
<svg height="360pt" version="1.1" viewBox="0 0 504 360" width="504pt" xmlns="http://www.w3.org/2000/svg" xmlns:xlink="http://www.w3.org/1999/xlink">
 <defs>
  <style type="text/css">
*{stroke-linecap:butt;stroke-linejoin:round;}
  </style>
 </defs>
 <g id="figure_1">
  <g id="patch_1">
   <path d="M 0 360 
L 504 360 
L 504 0 
L 0 0 
z
" style="fill:#ffffff;"/>
  </g>
  <g id="axes_1">
   <g id="patch_2">
    <path d="M 52.8 318.2 
L 402.32 318.2 
L 402.32 75.08 
L 52.8 75.08 
z
" style="fill:#ffffff;"/>
   </g>
   <g id="PathCollection_1">
    <defs>
     <path d="M 0 3 
C 0.795609 3 1.55874 2.683901 2.12132 2.12132 
C 2.683901 1.55874 3 0.795609 3 0 
C 3 -0.795609 2.683901 -1.55874 2.12132 -2.12132 
C 1.55874 -2.683901 0.795609 -3 0 -3 
C -0.795609 -3 -1.55874 -2.683901 -2.12132 -2.12132 
C -2.683901 -1.55874 -3 -0.795609 -3 0 
C -3 0.795609 -2.683901 1.55874 -2.12132 2.12132 
C -1.55874 2.683901 -0.795609 3 0 3 
z
" id="m8a4b035cc3" style="stroke:#1f77b4;stroke-opacity:0.4;"/>
    </defs>
    <g clip-path="url(#p7ada42e6a6)">
     <use style="fill:#1f77b4;fill-opacity:0.4;stroke:#1f77b4;stroke-opacity:0.4;" x="200.977472" xlink:href="#m8a4b035cc3" y="256.240814"/>
     <use style="fill:#1f77b4;fill-opacity:0.4;stroke:#1f77b4;stroke-opacity:0.4;" x="203.602557" xlink:href="#m8a4b035cc3" y="240.675955"/>
     <use style="fill:#1f77b4;fill-opacity:0.4;stroke:#1f77b4;stroke-opacity:0.4;" x="204.947656" xlink:href="#m8a4b035cc3" y="145.471459"/>
     <use style="fill:#1f77b4;fill-opacity:0.4;stroke:#1f77b4;stroke-opacity:0.4;" x="192.119955" xlink:href="#m8a4b035cc3" y="115.816007"/>
     <use style="fill:#1f77b4;fill-opacity:0.4;stroke:#1f77b4;stroke-opacity:0.4;" x="242.489024" xlink:href="#m8a4b035cc3" y="199.871735"/>
     <use style="fill:#1f77b4;fill-opacity:0.4;stroke:#1f77b4;stroke-opacity:0.4;" x="242.413821" xlink:href="#m8a4b035cc3" y="200.1329"/>
     <use style="fill:#1f77b4;fill-opacity:0.4;stroke:#1f77b4;stroke-opacity:0.4;" x="298.426699" xlink:href="#m8a4b035cc3" y="194.920276"/>
     <use style="fill:#1f77b4;fill-opacity:0.4;stroke:#1f77b4;stroke-opacity:0.4;" x="256.924783" xlink:href="#m8a4b035cc3" y="173.001618"/>
     <use style="fill:#1f77b4;fill-opacity:0.4;stroke:#1f77b4;stroke-opacity:0.4;" x="241.449815" xlink:href="#m8a4b035cc3" y="295.345149"/>
     <use style="fill:#1f77b4;fill-opacity:0.4;stroke:#1f77b4;stroke-opacity:0.4;" x="168.177359" xlink:href="#m8a4b035cc3" y="125.43232"/>
     <use style="fill:#1f77b4;fill-opacity:0.4;stroke:#1f77b4;stroke-opacity:0.4;" x="214.05475" xlink:href="#m8a4b035cc3" y="198.602868"/>
     <use style="fill:#1f77b4;fill-opacity:0.4;stroke:#1f77b4;stroke-opacity:0.4;" x="271.925254" xlink:href="#m8a4b035cc3" y="174.135919"/>
     <use style="fill:#1f77b4;fill-opacity:0.4;stroke:#1f77b4;stroke-opacity:0.4;" x="229.757338" xlink:href="#m8a4b035cc3" y="90.335065"/>
     <use style="fill:#1f77b4;fill-opacity:0.4;stroke:#1f77b4;stroke-opacity:0.4;" x="290.211095" xlink:href="#m8a4b035cc3" y="270.09588"/>
     <use style="fill:#1f77b4;fill-opacity:0.4;stroke:#1f77b4;stroke-opacity:0.4;" x="283.081833" xlink:href="#m8a4b035cc3" y="227.634899"/>
    </g>
   </g>
   <g id="PathCollection_2">
    <defs>
     <path d="M 0 3 
C 0.795609 3 1.55874 2.683901 2.12132 2.12132 
C 2.683901 1.55874 3 0.795609 3 0 
C 3 -0.795609 2.683901 -1.55874 2.12132 -2.12132 
C 1.55874 -2.683901 0.795609 -3 0 -3 
C -0.795609 -3 -1.55874 -2.683901 -2.12132 -2.12132 
C -2.683901 -1.55874 -3 -0.795609 -3 0 
C -3 0.795609 -2.683901 1.55874 -2.12132 2.12132 
C -1.55874 2.683901 -0.795609 3 0 3 
z
" id="m993a263458" style="stroke:#ff7f0e;stroke-opacity:0.4;"/>
    </defs>
    <g clip-path="url(#p7ada42e6a6)">
     <use style="fill:#ff7f0e;fill-opacity:0.4;stroke:#ff7f0e;stroke-opacity:0.4;" x="239.189877" xlink:href="#m993a263458" y="168.750734"/>
     <use style="fill:#ff7f0e;fill-opacity:0.4;stroke:#ff7f0e;stroke-opacity:0.4;" x="238.593855" xlink:href="#m993a263458" y="121.223783"/>
     <use style="fill:#ff7f0e;fill-opacity:0.4;stroke:#ff7f0e;stroke-opacity:0.4;" x="225.770077" xlink:href="#m993a263458" y="263.155691"/>
     <use style="fill:#ff7f0e;fill-opacity:0.4;stroke:#ff7f0e;stroke-opacity:0.4;" x="238.511618" xlink:href="#m993a263458" y="232.898557"/>
     <use style="fill:#ff7f0e;fill-opacity:0.4;stroke:#ff7f0e;stroke-opacity:0.4;" x="156.910831" xlink:href="#m993a263458" y="141.608185"/>
     <use style="fill:#ff7f0e;fill-opacity:0.4;stroke:#ff7f0e;stroke-opacity:0.4;" x="203.529431" xlink:href="#m993a263458" y="129.852959"/>
     <use style="fill:#ff7f0e;fill-opacity:0.4;stroke:#ff7f0e;stroke-opacity:0.4;" x="180.681411" xlink:href="#m993a263458" y="197.746583"/>
     <use style="fill:#ff7f0e;fill-opacity:0.4;stroke:#ff7f0e;stroke-opacity:0.4;" x="181.78302" xlink:href="#m993a263458" y="193.066295"/>
     <use style="fill:#ff7f0e;fill-opacity:0.4;stroke:#ff7f0e;stroke-opacity:0.4;" x="195.603075" xlink:href="#m993a263458" y="127.757087"/>
     <use style="fill:#ff7f0e;fill-opacity:0.4;stroke:#ff7f0e;stroke-opacity:0.4;" x="220.255092" xlink:href="#m993a263458" y="217.310131"/>
     <use style="fill:#ff7f0e;fill-opacity:0.4;stroke:#ff7f0e;stroke-opacity:0.4;" x="253.610878" xlink:href="#m993a263458" y="137.648795"/>
     <use style="fill:#ff7f0e;fill-opacity:0.4;stroke:#ff7f0e;stroke-opacity:0.4;" x="250.050909" xlink:href="#m993a263458" y="280.68683"/>
     <use style="fill:#ff7f0e;fill-opacity:0.4;stroke:#ff7f0e;stroke-opacity:0.4;" x="249.074356" xlink:href="#m993a263458" y="213.147611"/>
     <use style="fill:#ff7f0e;fill-opacity:0.4;stroke:#ff7f0e;stroke-opacity:0.4;" x="212.931289" xlink:href="#m993a263458" y="202.920149"/>
     <use style="fill:#ff7f0e;fill-opacity:0.4;stroke:#ff7f0e;stroke-opacity:0.4;" x="296.601851" xlink:href="#m993a263458" y="238.067163"/>
     <use style="fill:#ff7f0e;fill-opacity:0.4;stroke:#ff7f0e;stroke-opacity:0.4;" x="260.357467" xlink:href="#m993a263458" y="304.025288"/>
    </g>
   </g>
   <g id="PathCollection_3">
    <defs>
     <path d="M 0 3 
C 0.795609 3 1.55874 2.683901 2.12132 2.12132 
C 2.683901 1.55874 3 0.795609 3 0 
C 3 -0.795609 2.683901 -1.55874 2.12132 -2.12132 
C 1.55874 -2.683901 0.795609 -3 0 -3 
C -0.795609 -3 -1.55874 -2.683901 -2.12132 -2.12132 
C -2.683901 -1.55874 -3 -0.795609 -3 0 
C -3 0.795609 -2.683901 1.55874 -2.12132 2.12132 
C -1.55874 2.683901 -0.795609 3 0 3 
z
" id="m47e31a0957" style="stroke:#2ca02c;stroke-opacity:0.4;"/>
    </defs>
    <g clip-path="url(#p7ada42e6a6)">
     <use style="fill:#2ca02c;fill-opacity:0.4;stroke:#2ca02c;stroke-opacity:0.4;" x="156.531303" xlink:href="#m47e31a0957" y="151.803702"/>
     <use style="fill:#2ca02c;fill-opacity:0.4;stroke:#2ca02c;stroke-opacity:0.4;" x="196.274819" xlink:href="#m47e31a0957" y="122.832768"/>
     <use style="fill:#2ca02c;fill-opacity:0.4;stroke:#2ca02c;stroke-opacity:0.4;" x="199.686707" xlink:href="#m47e31a0957" y="128.706526"/>
     <use style="fill:#2ca02c;fill-opacity:0.4;stroke:#2ca02c;stroke-opacity:0.4;" x="157.854602" xlink:href="#m47e31a0957" y="148.009745"/>
     <use style="fill:#2ca02c;fill-opacity:0.4;stroke:#2ca02c;stroke-opacity:0.4;" x="187.053048" xlink:href="#m47e31a0957" y="175.741064"/>
     <use style="fill:#2ca02c;fill-opacity:0.4;stroke:#2ca02c;stroke-opacity:0.4;" x="268.098651" xlink:href="#m47e31a0957" y="231.587812"/>
     <use style="fill:#2ca02c;fill-opacity:0.4;stroke:#2ca02c;stroke-opacity:0.4;" x="266.68399" xlink:href="#m47e31a0957" y="227.701579"/>
     <use style="fill:#2ca02c;fill-opacity:0.4;stroke:#2ca02c;stroke-opacity:0.4;" x="257.521088" xlink:href="#m47e31a0957" y="270.318893"/>
     <use style="fill:#2ca02c;fill-opacity:0.4;stroke:#2ca02c;stroke-opacity:0.4;" x="274.910133" xlink:href="#m47e31a0957" y="229.082718"/>
     <use style="fill:#2ca02c;fill-opacity:0.4;stroke:#2ca02c;stroke-opacity:0.4;" x="186.742321" xlink:href="#m47e31a0957" y="169.363115"/>
     <use style="fill:#2ca02c;fill-opacity:0.4;stroke:#2ca02c;stroke-opacity:0.4;" x="177.931386" xlink:href="#m47e31a0957" y="148.484712"/>
     <use style="fill:#2ca02c;fill-opacity:0.4;stroke:#2ca02c;stroke-opacity:0.4;" x="298.588697" xlink:href="#m47e31a0957" y="195.033072"/>
     <use style="fill:#2ca02c;fill-opacity:0.4;stroke:#2ca02c;stroke-opacity:0.4;" x="229.914819" xlink:href="#m47e31a0957" y="89.427632"/>
     <use style="fill:#2ca02c;fill-opacity:0.4;stroke:#2ca02c;stroke-opacity:0.4;" x="273.151726" xlink:href="#m47e31a0957" y="211.172982"/>
     <use style="fill:#2ca02c;fill-opacity:0.4;stroke:#2ca02c;stroke-opacity:0.4;" x="287.549489" xlink:href="#m47e31a0957" y="236.349378"/>
     <use style="fill:#2ca02c;fill-opacity:0.4;stroke:#2ca02c;stroke-opacity:0.4;" x="245.622234" xlink:href="#m47e31a0957" y="124.902535"/>
    </g>
   </g>
   <g id="PathCollection_4">
    <defs>
     <path d="M 0 3 
C 0.795609 3 1.55874 2.683901 2.12132 2.12132 
C 2.683901 1.55874 3 0.795609 3 0 
C 3 -0.795609 2.683901 -1.55874 2.12132 -2.12132 
C 1.55874 -2.683901 0.795609 -3 0 -3 
C -0.795609 -3 -1.55874 -2.683901 -2.12132 -2.12132 
C -2.683901 -1.55874 -3 -0.795609 -3 0 
C -3 0.795609 -2.683901 1.55874 -2.12132 2.12132 
C -1.55874 2.683901 -0.795609 3 0 3 
z
" id="m1cca0caaf9" style="stroke:#d62728;stroke-opacity:0.4;"/>
    </defs>
    <g clip-path="url(#p7ada42e6a6)">
     <use style="fill:#d62728;fill-opacity:0.4;stroke:#d62728;stroke-opacity:0.4;" x="226.018359" xlink:href="#m1cca0caaf9" y="210.852988"/>
     <use style="fill:#d62728;fill-opacity:0.4;stroke:#d62728;stroke-opacity:0.4;" x="208.911837" xlink:href="#m1cca0caaf9" y="156.991582"/>
     <use style="fill:#d62728;fill-opacity:0.4;stroke:#d62728;stroke-opacity:0.4;" x="230.781102" xlink:href="#m1cca0caaf9" y="237.404697"/>
     <use style="fill:#d62728;fill-opacity:0.4;stroke:#d62728;stroke-opacity:0.4;" x="247.34868" xlink:href="#m1cca0caaf9" y="230.992934"/>
     <use style="fill:#d62728;fill-opacity:0.4;stroke:#d62728;stroke-opacity:0.4;" x="286.642579" xlink:href="#m1cca0caaf9" y="189.664128"/>
     <use style="fill:#d62728;fill-opacity:0.4;stroke:#d62728;stroke-opacity:0.4;" x="298.587036" xlink:href="#m1cca0caaf9" y="191.919253"/>
     <use style="fill:#d62728;fill-opacity:0.4;stroke:#d62728;stroke-opacity:0.4;" x="287.421261" xlink:href="#m1cca0caaf9" y="199.637723"/>
     <use style="fill:#d62728;fill-opacity:0.4;stroke:#d62728;stroke-opacity:0.4;" x="253.699696" xlink:href="#m1cca0caaf9" y="265.918734"/>
     <use style="fill:#d62728;fill-opacity:0.4;stroke:#d62728;stroke-opacity:0.4;" x="252.178231" xlink:href="#m1cca0caaf9" y="161.081498"/>
     <use style="fill:#d62728;fill-opacity:0.4;stroke:#d62728;stroke-opacity:0.4;" x="239.094525" xlink:href="#m1cca0caaf9" y="282.874453"/>
     <use style="fill:#d62728;fill-opacity:0.4;stroke:#d62728;stroke-opacity:0.4;" x="257.252359" xlink:href="#m1cca0caaf9" y="270.22788"/>
     <use style="fill:#d62728;fill-opacity:0.4;stroke:#d62728;stroke-opacity:0.4;" x="273.151741" xlink:href="#m1cca0caaf9" y="211.173025"/>
     <use style="fill:#d62728;fill-opacity:0.4;stroke:#d62728;stroke-opacity:0.4;" x="294.022969" xlink:href="#m1cca0caaf9" y="227.466519"/>
     <use style="fill:#d62728;fill-opacity:0.4;stroke:#d62728;stroke-opacity:0.4;" x="292.280947" xlink:href="#m1cca0caaf9" y="281.9445"/>
     <use style="fill:#d62728;fill-opacity:0.4;stroke:#d62728;stroke-opacity:0.4;" x="302.185835" xlink:href="#m1cca0caaf9" y="222.703508"/>
    </g>
   </g>
   <g id="matplotlib.axis_1">
    <g id="xtick_1">
     <g id="line2d_1">
      <defs>
       <path d="M 0 0 
L 0 3.5 
" id="mdedb74acd1" style="stroke:#000000;stroke-width:0.8;"/>
      </defs>
      <g>
       <use style="stroke:#000000;stroke-width:0.8;" x="86.154767" xlink:href="#mdedb74acd1" y="318.2"/>
      </g>
     </g>
     <g id="text_1">
      <!-- −6 -->
      <defs>
       <path d="M 10.59375 35.5 
L 73.1875 35.5 
L 73.1875 27.203125 
L 10.59375 27.203125 
z
" id="DejaVuSans-2212"/>
       <path d="M 33.015625 40.375 
Q 26.375 40.375 22.484375 35.828125 
Q 18.609375 31.296875 18.609375 23.390625 
Q 18.609375 15.53125 22.484375 10.953125 
Q 26.375 6.390625 33.015625 6.390625 
Q 39.65625 6.390625 43.53125 10.953125 
Q 47.40625 15.53125 47.40625 23.390625 
Q 47.40625 31.296875 43.53125 35.828125 
Q 39.65625 40.375 33.015625 40.375 
z
M 52.59375 71.296875 
L 52.59375 62.3125 
Q 48.875 64.0625 45.09375 64.984375 
Q 41.3125 65.921875 37.59375 65.921875 
Q 27.828125 65.921875 22.671875 59.328125 
Q 17.53125 52.734375 16.796875 39.40625 
Q 19.671875 43.65625 24.015625 45.921875 
Q 28.375 48.1875 33.59375 48.1875 
Q 44.578125 48.1875 50.953125 41.515625 
Q 57.328125 34.859375 57.328125 23.390625 
Q 57.328125 12.15625 50.6875 5.359375 
Q 44.046875 -1.421875 33.015625 -1.421875 
Q 20.359375 -1.421875 13.671875 8.265625 
Q 6.984375 17.96875 6.984375 36.375 
Q 6.984375 53.65625 15.1875 63.9375 
Q 23.390625 74.21875 37.203125 74.21875 
Q 40.921875 74.21875 44.703125 73.484375 
Q 48.484375 72.75 52.59375 71.296875 
z
" id="DejaVuSans-36"/>
      </defs>
      <g transform="translate(78.783673 332.798437)scale(0.1 -0.1)">
       <use xlink:href="#DejaVuSans-2212"/>
       <use x="83.789062" xlink:href="#DejaVuSans-36"/>
      </g>
     </g>
    </g>
    <g id="xtick_2">
     <g id="line2d_2">
      <g>
       <use style="stroke:#000000;stroke-width:0.8;" x="127.121212" xlink:href="#mdedb74acd1" y="318.2"/>
      </g>
     </g>
     <g id="text_2">
      <!-- −4 -->
      <defs>
       <path d="M 37.796875 64.3125 
L 12.890625 25.390625 
L 37.796875 25.390625 
z
M 35.203125 72.90625 
L 47.609375 72.90625 
L 47.609375 25.390625 
L 58.015625 25.390625 
L 58.015625 17.1875 
L 47.609375 17.1875 
L 47.609375 0 
L 37.796875 0 
L 37.796875 17.1875 
L 4.890625 17.1875 
L 4.890625 26.703125 
z
" id="DejaVuSans-34"/>
      </defs>
      <g transform="translate(119.750119 332.798437)scale(0.1 -0.1)">
       <use xlink:href="#DejaVuSans-2212"/>
       <use x="83.789062" xlink:href="#DejaVuSans-34"/>
      </g>
     </g>
    </g>
    <g id="xtick_3">
     <g id="line2d_3">
      <g>
       <use style="stroke:#000000;stroke-width:0.8;" x="168.087657" xlink:href="#mdedb74acd1" y="318.2"/>
      </g>
     </g>
     <g id="text_3">
      <!-- −2 -->
      <defs>
       <path d="M 19.1875 8.296875 
L 53.609375 8.296875 
L 53.609375 0 
L 7.328125 0 
L 7.328125 8.296875 
Q 12.9375 14.109375 22.625 23.890625 
Q 32.328125 33.6875 34.8125 36.53125 
Q 39.546875 41.84375 41.421875 45.53125 
Q 43.3125 49.21875 43.3125 52.78125 
Q 43.3125 58.59375 39.234375 62.25 
Q 35.15625 65.921875 28.609375 65.921875 
Q 23.96875 65.921875 18.8125 64.3125 
Q 13.671875 62.703125 7.8125 59.421875 
L 7.8125 69.390625 
Q 13.765625 71.78125 18.9375 73 
Q 24.125 74.21875 28.421875 74.21875 
Q 39.75 74.21875 46.484375 68.546875 
Q 53.21875 62.890625 53.21875 53.421875 
Q 53.21875 48.921875 51.53125 44.890625 
Q 49.859375 40.875 45.40625 35.40625 
Q 44.1875 33.984375 37.640625 27.21875 
Q 31.109375 20.453125 19.1875 8.296875 
z
" id="DejaVuSans-32"/>
      </defs>
      <g transform="translate(160.716564 332.798437)scale(0.1 -0.1)">
       <use xlink:href="#DejaVuSans-2212"/>
       <use x="83.789062" xlink:href="#DejaVuSans-32"/>
      </g>
     </g>
    </g>
    <g id="xtick_4">
     <g id="line2d_4">
      <g>
       <use style="stroke:#000000;stroke-width:0.8;" x="209.054103" xlink:href="#mdedb74acd1" y="318.2"/>
      </g>
     </g>
     <g id="text_4">
      <!-- 0 -->
      <defs>
       <path d="M 31.78125 66.40625 
Q 24.171875 66.40625 20.328125 58.90625 
Q 16.5 51.421875 16.5 36.375 
Q 16.5 21.390625 20.328125 13.890625 
Q 24.171875 6.390625 31.78125 6.390625 
Q 39.453125 6.390625 43.28125 13.890625 
Q 47.125 21.390625 47.125 36.375 
Q 47.125 51.421875 43.28125 58.90625 
Q 39.453125 66.40625 31.78125 66.40625 
z
M 31.78125 74.21875 
Q 44.046875 74.21875 50.515625 64.515625 
Q 56.984375 54.828125 56.984375 36.375 
Q 56.984375 17.96875 50.515625 8.265625 
Q 44.046875 -1.421875 31.78125 -1.421875 
Q 19.53125 -1.421875 13.0625 8.265625 
Q 6.59375 17.96875 6.59375 36.375 
Q 6.59375 54.828125 13.0625 64.515625 
Q 19.53125 74.21875 31.78125 74.21875 
z
" id="DejaVuSans-30"/>
      </defs>
      <g transform="translate(205.872853 332.798437)scale(0.1 -0.1)">
       <use xlink:href="#DejaVuSans-30"/>
      </g>
     </g>
    </g>
    <g id="xtick_5">
     <g id="line2d_5">
      <g>
       <use style="stroke:#000000;stroke-width:0.8;" x="250.020548" xlink:href="#mdedb74acd1" y="318.2"/>
      </g>
     </g>
     <g id="text_5">
      <!-- 2 -->
      <g transform="translate(246.839298 332.798437)scale(0.1 -0.1)">
       <use xlink:href="#DejaVuSans-32"/>
      </g>
     </g>
    </g>
    <g id="xtick_6">
     <g id="line2d_6">
      <g>
       <use style="stroke:#000000;stroke-width:0.8;" x="290.986993" xlink:href="#mdedb74acd1" y="318.2"/>
      </g>
     </g>
     <g id="text_6">
      <!-- 4 -->
      <g transform="translate(287.805743 332.798437)scale(0.1 -0.1)">
       <use xlink:href="#DejaVuSans-34"/>
      </g>
     </g>
    </g>
    <g id="xtick_7">
     <g id="line2d_7">
      <g>
       <use style="stroke:#000000;stroke-width:0.8;" x="331.953438" xlink:href="#mdedb74acd1" y="318.2"/>
      </g>
     </g>
     <g id="text_7">
      <!-- 6 -->
      <g transform="translate(328.772188 332.798437)scale(0.1 -0.1)">
       <use xlink:href="#DejaVuSans-36"/>
      </g>
     </g>
    </g>
    <g id="xtick_8">
     <g id="line2d_8">
      <g>
       <use style="stroke:#000000;stroke-width:0.8;" x="372.919883" xlink:href="#mdedb74acd1" y="318.2"/>
      </g>
     </g>
     <g id="text_8">
      <!-- 8 -->
      <defs>
       <path d="M 31.78125 34.625 
Q 24.75 34.625 20.71875 30.859375 
Q 16.703125 27.09375 16.703125 20.515625 
Q 16.703125 13.921875 20.71875 10.15625 
Q 24.75 6.390625 31.78125 6.390625 
Q 38.8125 6.390625 42.859375 10.171875 
Q 46.921875 13.96875 46.921875 20.515625 
Q 46.921875 27.09375 42.890625 30.859375 
Q 38.875 34.625 31.78125 34.625 
z
M 21.921875 38.8125 
Q 15.578125 40.375 12.03125 44.71875 
Q 8.5 49.078125 8.5 55.328125 
Q 8.5 64.0625 14.71875 69.140625 
Q 20.953125 74.21875 31.78125 74.21875 
Q 42.671875 74.21875 48.875 69.140625 
Q 55.078125 64.0625 55.078125 55.328125 
Q 55.078125 49.078125 51.53125 44.71875 
Q 48 40.375 41.703125 38.8125 
Q 48.828125 37.15625 52.796875 32.3125 
Q 56.78125 27.484375 56.78125 20.515625 
Q 56.78125 9.90625 50.3125 4.234375 
Q 43.84375 -1.421875 31.78125 -1.421875 
Q 19.734375 -1.421875 13.25 4.234375 
Q 6.78125 9.90625 6.78125 20.515625 
Q 6.78125 27.484375 10.78125 32.3125 
Q 14.796875 37.15625 21.921875 38.8125 
z
M 18.3125 54.390625 
Q 18.3125 48.734375 21.84375 45.5625 
Q 25.390625 42.390625 31.78125 42.390625 
Q 38.140625 42.390625 41.71875 45.5625 
Q 45.3125 48.734375 45.3125 54.390625 
Q 45.3125 60.0625 41.71875 63.234375 
Q 38.140625 66.40625 31.78125 66.40625 
Q 25.390625 66.40625 21.84375 63.234375 
Q 18.3125 60.0625 18.3125 54.390625 
z
" id="DejaVuSans-38"/>
      </defs>
      <g transform="translate(369.738633 332.798437)scale(0.1 -0.1)">
       <use xlink:href="#DejaVuSans-38"/>
      </g>
     </g>
    </g>
    <g id="text_9">
     <!-- x -->
     <defs>
      <path d="M 54.890625 54.6875 
L 35.109375 28.078125 
L 55.90625 0 
L 45.3125 0 
L 29.390625 21.484375 
L 13.484375 0 
L 2.875 0 
L 24.125 28.609375 
L 4.6875 54.6875 
L 15.28125 54.6875 
L 29.78125 35.203125 
L 44.28125 54.6875 
z
" id="DejaVuSans-78"/>
     </defs>
     <g transform="translate(224.600625 346.476562)scale(0.1 -0.1)">
      <use xlink:href="#DejaVuSans-78"/>
     </g>
    </g>
   </g>
   <g id="matplotlib.axis_2">
    <g id="ytick_1">
     <g id="line2d_9">
      <defs>
       <path d="M 0 0 
L -3.5 0 
" id="me4971485c7" style="stroke:#000000;stroke-width:0.8;"/>
      </defs>
      <g>
       <use style="stroke:#000000;stroke-width:0.8;" x="52.8" xlink:href="#me4971485c7" y="296.37459"/>
      </g>
     </g>
     <g id="text_10">
      <!-- −10 -->
      <defs>
       <path d="M 12.40625 8.296875 
L 28.515625 8.296875 
L 28.515625 63.921875 
L 10.984375 60.40625 
L 10.984375 69.390625 
L 28.421875 72.90625 
L 38.28125 72.90625 
L 38.28125 8.296875 
L 54.390625 8.296875 
L 54.390625 0 
L 12.40625 0 
z
" id="DejaVuSans-31"/>
      </defs>
      <g transform="translate(24.695313 300.173808)scale(0.1 -0.1)">
       <use xlink:href="#DejaVuSans-2212"/>
       <use x="83.789062" xlink:href="#DejaVuSans-31"/>
       <use x="147.412109" xlink:href="#DejaVuSans-30"/>
      </g>
     </g>
    </g>
    <g id="ytick_2">
     <g id="line2d_10">
      <g>
       <use style="stroke:#000000;stroke-width:0.8;" x="52.8" xlink:href="#me4971485c7" y="266.653308"/>
      </g>
     </g>
     <g id="text_11">
      <!-- −9 -->
      <defs>
       <path d="M 10.984375 1.515625 
L 10.984375 10.5 
Q 14.703125 8.734375 18.5 7.8125 
Q 22.3125 6.890625 25.984375 6.890625 
Q 35.75 6.890625 40.890625 13.453125 
Q 46.046875 20.015625 46.78125 33.40625 
Q 43.953125 29.203125 39.59375 26.953125 
Q 35.25 24.703125 29.984375 24.703125 
Q 19.046875 24.703125 12.671875 31.3125 
Q 6.296875 37.9375 6.296875 49.421875 
Q 6.296875 60.640625 12.9375 67.421875 
Q 19.578125 74.21875 30.609375 74.21875 
Q 43.265625 74.21875 49.921875 64.515625 
Q 56.59375 54.828125 56.59375 36.375 
Q 56.59375 19.140625 48.40625 8.859375 
Q 40.234375 -1.421875 26.421875 -1.421875 
Q 22.703125 -1.421875 18.890625 -0.6875 
Q 15.09375 0.046875 10.984375 1.515625 
z
M 30.609375 32.421875 
Q 37.25 32.421875 41.125 36.953125 
Q 45.015625 41.5 45.015625 49.421875 
Q 45.015625 57.28125 41.125 61.84375 
Q 37.25 66.40625 30.609375 66.40625 
Q 23.96875 66.40625 20.09375 61.84375 
Q 16.21875 57.28125 16.21875 49.421875 
Q 16.21875 41.5 20.09375 36.953125 
Q 23.96875 32.421875 30.609375 32.421875 
z
" id="DejaVuSans-39"/>
      </defs>
      <g transform="translate(31.057813 270.452526)scale(0.1 -0.1)">
       <use xlink:href="#DejaVuSans-2212"/>
       <use x="83.789062" xlink:href="#DejaVuSans-39"/>
      </g>
     </g>
    </g>
    <g id="ytick_3">
     <g id="line2d_11">
      <g>
       <use style="stroke:#000000;stroke-width:0.8;" x="52.8" xlink:href="#me4971485c7" y="236.932026"/>
      </g>
     </g>
     <g id="text_12">
      <!-- −8 -->
      <g transform="translate(31.057813 240.731244)scale(0.1 -0.1)">
       <use xlink:href="#DejaVuSans-2212"/>
       <use x="83.789062" xlink:href="#DejaVuSans-38"/>
      </g>
     </g>
    </g>
    <g id="ytick_4">
     <g id="line2d_12">
      <g>
       <use style="stroke:#000000;stroke-width:0.8;" x="52.8" xlink:href="#me4971485c7" y="207.210744"/>
      </g>
     </g>
     <g id="text_13">
      <!-- −7 -->
      <defs>
       <path d="M 8.203125 72.90625 
L 55.078125 72.90625 
L 55.078125 68.703125 
L 28.609375 0 
L 18.3125 0 
L 43.21875 64.59375 
L 8.203125 64.59375 
z
" id="DejaVuSans-37"/>
      </defs>
      <g transform="translate(31.057813 211.009962)scale(0.1 -0.1)">
       <use xlink:href="#DejaVuSans-2212"/>
       <use x="83.789062" xlink:href="#DejaVuSans-37"/>
      </g>
     </g>
    </g>
    <g id="ytick_5">
     <g id="line2d_13">
      <g>
       <use style="stroke:#000000;stroke-width:0.8;" x="52.8" xlink:href="#me4971485c7" y="177.489461"/>
      </g>
     </g>
     <g id="text_14">
      <!-- −6 -->
      <g transform="translate(31.057813 181.28868)scale(0.1 -0.1)">
       <use xlink:href="#DejaVuSans-2212"/>
       <use x="83.789062" xlink:href="#DejaVuSans-36"/>
      </g>
     </g>
    </g>
    <g id="ytick_6">
     <g id="line2d_14">
      <g>
       <use style="stroke:#000000;stroke-width:0.8;" x="52.8" xlink:href="#me4971485c7" y="147.768179"/>
      </g>
     </g>
     <g id="text_15">
      <!-- −5 -->
      <defs>
       <path d="M 10.796875 72.90625 
L 49.515625 72.90625 
L 49.515625 64.59375 
L 19.828125 64.59375 
L 19.828125 46.734375 
Q 21.96875 47.46875 24.109375 47.828125 
Q 26.265625 48.1875 28.421875 48.1875 
Q 40.625 48.1875 47.75 41.5 
Q 54.890625 34.8125 54.890625 23.390625 
Q 54.890625 11.625 47.5625 5.09375 
Q 40.234375 -1.421875 26.90625 -1.421875 
Q 22.3125 -1.421875 17.546875 -0.640625 
Q 12.796875 0.140625 7.71875 1.703125 
L 7.71875 11.625 
Q 12.109375 9.234375 16.796875 8.0625 
Q 21.484375 6.890625 26.703125 6.890625 
Q 35.15625 6.890625 40.078125 11.328125 
Q 45.015625 15.765625 45.015625 23.390625 
Q 45.015625 31 40.078125 35.4375 
Q 35.15625 39.890625 26.703125 39.890625 
Q 22.75 39.890625 18.8125 39.015625 
Q 14.890625 38.140625 10.796875 36.28125 
z
" id="DejaVuSans-35"/>
      </defs>
      <g transform="translate(31.057813 151.567398)scale(0.1 -0.1)">
       <use xlink:href="#DejaVuSans-2212"/>
       <use x="83.789062" xlink:href="#DejaVuSans-35"/>
      </g>
     </g>
    </g>
    <g id="ytick_7">
     <g id="line2d_15">
      <g>
       <use style="stroke:#000000;stroke-width:0.8;" x="52.8" xlink:href="#me4971485c7" y="118.046897"/>
      </g>
     </g>
     <g id="text_16">
      <!-- −4 -->
      <g transform="translate(31.057813 121.846116)scale(0.1 -0.1)">
       <use xlink:href="#DejaVuSans-2212"/>
       <use x="83.789062" xlink:href="#DejaVuSans-34"/>
      </g>
     </g>
    </g>
    <g id="ytick_8">
     <g id="line2d_16">
      <g>
       <use style="stroke:#000000;stroke-width:0.8;" x="52.8" xlink:href="#me4971485c7" y="88.325615"/>
      </g>
     </g>
     <g id="text_17">
      <!-- −3 -->
      <defs>
       <path d="M 40.578125 39.3125 
Q 47.65625 37.796875 51.625 33 
Q 55.609375 28.21875 55.609375 21.1875 
Q 55.609375 10.40625 48.1875 4.484375 
Q 40.765625 -1.421875 27.09375 -1.421875 
Q 22.515625 -1.421875 17.65625 -0.515625 
Q 12.796875 0.390625 7.625 2.203125 
L 7.625 11.71875 
Q 11.71875 9.328125 16.59375 8.109375 
Q 21.484375 6.890625 26.8125 6.890625 
Q 36.078125 6.890625 40.9375 10.546875 
Q 45.796875 14.203125 45.796875 21.1875 
Q 45.796875 27.640625 41.28125 31.265625 
Q 36.765625 34.90625 28.71875 34.90625 
L 20.21875 34.90625 
L 20.21875 43.015625 
L 29.109375 43.015625 
Q 36.375 43.015625 40.234375 45.921875 
Q 44.09375 48.828125 44.09375 54.296875 
Q 44.09375 59.90625 40.109375 62.90625 
Q 36.140625 65.921875 28.71875 65.921875 
Q 24.65625 65.921875 20.015625 65.03125 
Q 15.375 64.15625 9.8125 62.3125 
L 9.8125 71.09375 
Q 15.4375 72.65625 20.34375 73.4375 
Q 25.25 74.21875 29.59375 74.21875 
Q 40.828125 74.21875 47.359375 69.109375 
Q 53.90625 64.015625 53.90625 55.328125 
Q 53.90625 49.265625 50.4375 45.09375 
Q 46.96875 40.921875 40.578125 39.3125 
z
" id="DejaVuSans-33"/>
      </defs>
      <g transform="translate(31.057813 92.124834)scale(0.1 -0.1)">
       <use xlink:href="#DejaVuSans-2212"/>
       <use x="83.789062" xlink:href="#DejaVuSans-33"/>
      </g>
     </g>
    </g>
    <g id="text_18">
     <!-- y -->
     <defs>
      <path d="M 32.171875 -5.078125 
Q 28.375 -14.84375 24.75 -17.8125 
Q 21.140625 -20.796875 15.09375 -20.796875 
L 7.90625 -20.796875 
L 7.90625 -13.28125 
L 13.1875 -13.28125 
Q 16.890625 -13.28125 18.9375 -11.515625 
Q 21 -9.765625 23.484375 -3.21875 
L 25.09375 0.875 
L 2.984375 54.6875 
L 12.5 54.6875 
L 29.59375 11.921875 
L 46.6875 54.6875 
L 56.203125 54.6875 
z
" id="DejaVuSans-79"/>
     </defs>
     <g transform="translate(18.615625 199.599375)rotate(-90)scale(0.1 -0.1)">
      <use xlink:href="#DejaVuSans-79"/>
     </g>
    </g>
   </g>
   <g id="patch_3">
    <path d="M 52.8 318.2 
L 52.8 75.08 
" style="fill:none;stroke:#000000;stroke-linecap:square;stroke-linejoin:miter;stroke-width:0.8;"/>
   </g>
   <g id="patch_4">
    <path d="M 402.32 318.2 
L 402.32 75.08 
" style="fill:none;stroke:#000000;stroke-linecap:square;stroke-linejoin:miter;stroke-width:0.8;"/>
   </g>
   <g id="patch_5">
    <path d="M 52.8 318.2 
L 402.32 318.2 
" style="fill:none;stroke:#000000;stroke-linecap:square;stroke-linejoin:miter;stroke-width:0.8;"/>
   </g>
   <g id="patch_6">
    <path d="M 52.8 75.08 
L 402.32 75.08 
" style="fill:none;stroke:#000000;stroke-linecap:square;stroke-linejoin:miter;stroke-width:0.8;"/>
   </g>
  </g>
  <g id="axes_2">
   <g id="patch_7">
    <path clip-path="url(#p6c99ac4ce6)" d="M 168.177359 75.08 
L 211.593806 75.08 
L 211.593806 30.957889 
L 168.177359 30.957889 
z
" style="fill:#1f77b4;opacity:0.4;"/>
   </g>
   <g id="patch_8">
    <path clip-path="url(#p6c99ac4ce6)" d="M 211.593806 75.08 
L 255.010252 75.08 
L 255.010252 30.957889 
L 211.593806 30.957889 
z
" style="fill:#1f77b4;opacity:0.4;"/>
   </g>
   <g id="patch_9">
    <path clip-path="url(#p6c99ac4ce6)" d="M 255.010252 75.08 
L 298.426699 75.08 
L 298.426699 30.957889 
L 255.010252 30.957889 
z
" style="fill:#1f77b4;opacity:0.4;"/>
   </g>
   <g id="patch_10">
    <path clip-path="url(#p6c99ac4ce6)" d="M 156.910831 75.08 
L 191.833586 75.08 
L 191.833586 44.225068 
L 156.910831 44.225068 
z
" style="fill:#ff7f0e;opacity:0.4;"/>
   </g>
   <g id="patch_11">
    <path clip-path="url(#p6c99ac4ce6)" d="M 191.833586 75.08 
L 226.756341 75.08 
L 226.756341 23.655114 
L 191.833586 23.655114 
z
" style="fill:#ff7f0e;opacity:0.4;"/>
   </g>
   <g id="patch_12">
    <path clip-path="url(#p6c99ac4ce6)" d="M 226.756341 75.08 
L 261.679096 75.08 
L 261.679096 3.085159 
L 226.756341 3.085159 
z
" style="fill:#ff7f0e;opacity:0.4;"/>
   </g>
   <g id="patch_13">
    <path clip-path="url(#p6c99ac4ce6)" d="M 261.679096 75.08 
L 296.601851 75.08 
L 296.601851 64.795023 
L 261.679096 64.795023 
z
" style="fill:#ff7f0e;opacity:0.4;"/>
   </g>
   <g id="patch_14">
    <path clip-path="url(#p6c99ac4ce6)" d="M 156.531303 75.08 
L 203.883768 75.08 
L 203.883768 21.98333 
L 156.531303 21.98333 
z
" style="fill:#2ca02c;opacity:0.4;"/>
   </g>
   <g id="patch_15">
    <path clip-path="url(#p6c99ac4ce6)" d="M 203.883768 75.08 
L 251.236232 75.08 
L 251.236232 59.909523 
L 203.883768 59.909523 
z
" style="fill:#2ca02c;opacity:0.4;"/>
   </g>
   <g id="patch_16">
    <path clip-path="url(#p6c99ac4ce6)" d="M 251.236232 75.08 
L 298.588697 75.08 
L 298.588697 21.98333 
L 251.236232 21.98333 
z
" style="fill:#2ca02c;opacity:0.4;"/>
   </g>
   <g id="patch_17">
    <path clip-path="url(#p6c99ac4ce6)" d="M 208.911837 75.08 
L 240.00317 75.08 
L 240.00317 25.789729 
L 208.911837 25.789729 
z
" style="fill:#d62728;opacity:0.4;"/>
   </g>
   <g id="patch_18">
    <path clip-path="url(#p6c99ac4ce6)" d="M 240.00317 75.08 
L 271.094502 75.08 
L 271.094502 25.789729 
L 240.00317 25.789729 
z
" style="fill:#d62728;opacity:0.4;"/>
   </g>
   <g id="patch_19">
    <path clip-path="url(#p6c99ac4ce6)" d="M 271.094502 75.08 
L 302.185835 75.08 
L 302.185835 -11.177975 
L 271.094502 -11.177975 
z
" style="fill:#d62728;opacity:0.4;"/>
   </g>
   <g id="line2d_17">
    <path clip-path="url(#p6c99ac4ce6)" d="M 96.281836 74.916258 
L 104.913029 74.834883 
L 113.544223 74.52957 
L 120.017618 74.080998 
L 126.491012 73.357829 
L 130.806609 72.67808 
L 135.122206 71.807683 
L 139.437802 70.720008 
L 143.753399 69.391072 
L 148.068996 67.800844 
L 152.384592 65.934664 
L 156.700189 63.785052 
L 161.015785 61.354161 
L 165.331382 58.656901 
L 169.646979 55.724309 
L 176.120374 50.998901 
L 186.909365 42.922388 
L 191.224962 39.908952 
L 195.540558 37.166892 
L 199.856155 34.773438 
L 204.171752 32.779172 
L 208.487348 31.204581 
L 212.802945 30.042138 
L 217.118542 29.263176 
L 221.434138 28.827457 
L 225.749735 28.692621 
L 230.065331 28.820987 
L 234.380928 29.18223 
L 238.696525 29.752099 
L 243.012121 30.508723 
L 249.485516 31.94217 
L 255.958911 33.653793 
L 264.590104 36.233334 
L 271.063499 38.36506 
L 277.536894 40.739394 
L 281.852491 42.518962 
L 286.168087 44.498782 
L 290.483684 46.700491 
L 294.799281 49.122126 
L 301.272676 53.09315 
L 316.377264 62.661762 
L 320.69286 65.084646 
L 325.008457 67.240129 
L 329.324054 69.092271 
L 333.63965 70.629706 
L 337.955247 71.862808 
L 342.270844 72.818556 
L 346.58644 73.534365 
L 350.902037 74.052058 
L 357.375432 74.546034 
L 363.848827 74.803858 
L 370.322222 74.907548 
L 370.322222 74.907548 
" style="fill:none;stroke:#1f77b4;stroke-linecap:square;stroke-width:1.5;"/>
   </g>
   <g id="line2d_18">
    <path clip-path="url(#p6c99ac4ce6)" d="M 92.294478 74.939132 
L 100.764516 74.815856 
L 107.117045 74.556943 
L 113.469574 74.077713 
L 117.704594 73.589093 
L 121.939613 72.929754 
L 126.174632 72.071289 
L 130.409651 70.990518 
L 134.644671 69.67221 
L 138.87969 68.11087 
L 143.114709 66.311367 
L 147.349729 64.288516 
L 151.584748 62.065983 
L 157.937277 58.427682 
L 166.407316 53.215915 
L 179.112374 45.325089 
L 187.582412 40.389315 
L 198.16996 34.58011 
L 210.875018 27.572386 
L 219.345057 22.913447 
L 223.580076 20.827936 
L 227.815096 19.113067 
L 229.932605 18.45363 
L 232.050115 17.958569 
L 234.167625 17.651167 
L 236.285134 17.552725 
L 238.402644 17.681579 
L 240.520154 18.052161 
L 242.637663 18.674172 
L 244.755173 19.551903 
L 246.872683 20.683758 
L 248.990192 22.062017 
L 251.107702 23.672854 
L 253.225212 25.496625 
L 255.342721 27.508421 
L 259.577741 31.975106 
L 265.930269 39.263071 
L 270.165289 44.102576 
L 274.400308 48.641834 
L 278.635327 52.710814 
L 282.870347 56.221278 
L 284.987856 57.761465 
L 289.222876 60.437318 
L 293.457895 62.641578 
L 297.692914 64.474993 
L 301.927934 66.038389 
L 308.280463 68.05014 
L 314.632992 69.794059 
L 320.985521 71.304889 
L 327.33805 72.552399 
L 333.690579 73.506525 
L 340.043107 74.172928 
L 346.395636 74.593919 
L 354.865675 74.875275 
L 361.218204 74.940096 
L 361.218204 74.940096 
" style="fill:none;stroke:#ff7f0e;stroke-linecap:square;stroke-width:1.5;"/>
   </g>
   <g id="line2d_19">
    <path clip-path="url(#p6c99ac4ce6)" d="M 68.687273 74.897245 
L 78.695004 74.7449 
L 86.200802 74.458118 
L 93.7066 73.947393 
L 98.710465 73.435515 
L 103.714331 72.748861 
L 108.718196 71.854689 
L 113.722062 70.723387 
L 118.725927 69.332269 
L 123.729792 67.66951 
L 128.733658 65.737803 
L 133.737523 63.557221 
L 138.741389 61.166864 
L 146.247187 57.320096 
L 156.254918 52.134576 
L 161.258783 49.732247 
L 166.262649 47.585501 
L 171.266514 45.778233 
L 176.270379 44.373628 
L 181.274245 43.406118 
L 186.27811 42.875369 
L 191.281976 42.743456 
L 196.285841 42.936187 
L 203.791639 43.599392 
L 211.297437 44.329672 
L 216.301303 44.644309 
L 221.305168 44.703253 
L 226.309034 44.445832 
L 231.312899 43.857324 
L 236.316764 42.972316 
L 243.822563 41.277492 
L 251.328361 39.530048 
L 256.332226 38.587734 
L 261.336092 37.996022 
L 263.838024 37.87134 
L 266.339957 37.877735 
L 268.84189 38.024691 
L 271.343822 38.318809 
L 273.845755 38.763668 
L 276.347688 39.359771 
L 278.849621 40.104586 
L 281.351553 40.992661 
L 283.853486 42.015831 
L 288.857351 44.422909 
L 293.861217 47.217838 
L 301.367015 51.852256 
L 311.374746 58.151282 
L 316.378611 61.086859 
L 321.382477 63.763669 
L 326.386342 66.128836 
L 331.390208 68.156618 
L 336.394073 69.84519 
L 341.397938 71.211818 
L 346.401804 72.287281 
L 351.405669 73.110314 
L 356.409535 73.722667 
L 363.915333 74.334366 
L 371.421131 74.682227 
L 381.428862 74.883089 
L 386.432727 74.904036 
L 386.432727 74.904036 
" style="fill:none;stroke:#2ca02c;stroke-linecap:square;stroke-width:1.5;"/>
   </g>
   <g id="line2d_20">
    <path clip-path="url(#p6c99ac4ce6)" d="M 154.205818 74.818401 
L 160.58963 74.748355 
L 165.377489 74.504779 
L 170.165348 74.04494 
L 173.357254 73.578807 
L 176.549161 72.951674 
L 179.741067 72.133474 
L 182.932973 71.09552 
L 186.124879 69.812954 
L 189.316785 68.266893 
L 192.508691 66.445985 
L 195.700597 64.347203 
L 198.892503 61.975881 
L 202.084409 59.3452 
L 205.276315 56.475458 
L 210.064174 51.783214 
L 214.852033 46.734312 
L 227.619658 32.892461 
L 230.811564 29.740411 
L 234.00347 26.885615 
L 237.195376 24.413809 
L 240.387282 22.395998 
L 241.983235 21.572757 
L 243.579188 20.877321 
L 245.175141 20.309577 
L 246.771094 19.866641 
L 249.963 19.329228 
L 253.154906 19.185011 
L 256.346812 19.314247 
L 264.326578 19.871627 
L 267.518484 19.839817 
L 270.71039 19.550053 
L 273.902296 19.01989 
L 281.882061 17.426595 
L 283.478014 17.253496 
L 285.073967 17.194286 
L 286.66992 17.276435 
L 288.265873 17.525153 
L 289.861826 17.962366 
L 291.457779 18.605827 
L 293.053732 19.468387 
L 294.649685 20.557457 
L 296.245638 21.874696 
L 297.841591 23.415921 
L 299.437545 25.171248 
L 301.033498 27.12544 
L 304.225404 31.54616 
L 307.41731 36.473713 
L 316.993028 51.876374 
L 320.184934 56.480816 
L 323.37684 60.560216 
L 326.568746 64.043556 
L 329.760652 66.914193 
L 331.356605 68.127012 
L 334.548511 70.140786 
L 337.740417 71.665432 
L 340.932324 72.782018 
L 344.12423 73.572526 
L 347.316136 74.112121 
L 350.508042 74.464418 
L 355.295901 74.746876 
L 356.891854 74.792453 
L 356.891854 74.792453 
" style="fill:none;stroke:#d62728;stroke-linecap:square;stroke-width:1.5;"/>
   </g>
  </g>
  <g id="axes_3">
   <g id="patch_20">
    <path clip-path="url(#pb7f046b14b)" d="M 402.32 247.811007 
L 441.376968 247.811007 
L 441.376968 220.877421 
L 402.32 220.877421 
z
" style="fill:#1f77b4;opacity:0.4;"/>
   </g>
   <g id="patch_21">
    <path clip-path="url(#pb7f046b14b)" d="M 402.32 220.877421 
L 480.433935 220.877421 
L 480.433935 193.943836 
L 402.32 193.943836 
z
" style="fill:#1f77b4;opacity:0.4;"/>
   </g>
   <g id="patch_22">
    <path clip-path="url(#pb7f046b14b)" d="M 402.32 193.943836 
L 441.376968 193.943836 
L 441.376968 167.01025 
L 402.32 167.01025 
z
" style="fill:#1f77b4;opacity:0.4;"/>
   </g>
   <g id="patch_23">
    <path clip-path="url(#pb7f046b14b)" d="M 402.32 167.01025 
L 441.376968 167.01025 
L 441.376968 140.076665 
L 402.32 140.076665 
z
" style="fill:#1f77b4;opacity:0.4;"/>
   </g>
   <g id="patch_24">
    <path clip-path="url(#pb7f046b14b)" d="M 402.32 252.372486 
L 433.118284 252.372486 
L 433.118284 220.351297 
L 402.32 220.351297 
z
" style="fill:#ff7f0e;opacity:0.4;"/>
   </g>
   <g id="patch_25">
    <path clip-path="url(#pb7f046b14b)" d="M 402.32 220.351297 
L 474.182662 220.351297 
L 474.182662 188.330108 
L 402.32 188.330108 
z
" style="fill:#ff7f0e;opacity:0.4;"/>
   </g>
   <g id="patch_26">
    <path clip-path="url(#pb7f046b14b)" d="M 402.32 188.330108 
L 463.916568 188.330108 
L 463.916568 156.308919 
L 402.32 156.308919 
z
" style="fill:#ff7f0e;opacity:0.4;"/>
   </g>
   <g id="patch_27">
    <path clip-path="url(#pb7f046b14b)" d="M 402.32 234.659522 
L 464.567038 234.659522 
L 464.567038 202.972948 
L 402.32 202.972948 
z
" style="fill:#2ca02c;opacity:0.4;"/>
   </g>
   <g id="patch_28">
    <path clip-path="url(#pb7f046b14b)" d="M 402.32 202.972948 
L 443.818026 202.972948 
L 443.818026 171.286375 
L 402.32 171.286375 
z
" style="fill:#2ca02c;opacity:0.4;"/>
   </g>
   <g id="patch_29">
    <path clip-path="url(#pb7f046b14b)" d="M 402.32 171.286375 
L 464.567038 171.286375 
L 464.567038 139.599802 
L 402.32 139.599802 
z
" style="fill:#2ca02c;opacity:0.4;"/>
   </g>
   <g id="patch_30">
    <path clip-path="url(#pb7f046b14b)" d="M 402.32 241.257562 
L 465.927321 241.257562 
L 465.927321 219.206764 
L 402.32 219.206764 
z
" style="fill:#d62728;opacity:0.4;"/>
   </g>
   <g id="patch_31">
    <path clip-path="url(#pb7f046b14b)" d="M 402.32 219.206764 
L 513.632812 219.206764 
L 513.632812 197.155965 
L 402.32 197.155965 
z
" style="fill:#d62728;opacity:0.4;"/>
   </g>
   <g id="patch_32">
    <path clip-path="url(#pb7f046b14b)" d="M 402.32 197.155965 
L 465.927321 197.155965 
L 465.927321 175.105166 
L 402.32 175.105166 
z
" style="fill:#d62728;opacity:0.4;"/>
   </g>
   <g id="line2d_21">
    <path clip-path="url(#pb7f046b14b)" d="M 402.498706 301.756763 
L 402.642226 294.965397 
L 402.948043 289.871873 
L 403.516557 284.778349 
L 404.099768 281.382666 
L 404.89242 277.986984 
L 405.933254 274.591301 
L 407.255382 271.195618 
L 408.881564 267.799935 
L 410.820048 264.404253 
L 413.061805 261.00857 
L 415.579796 257.612887 
L 418.330643 254.217204 
L 422.769811 249.12368 
L 439.478866 230.447425 
L 446.546414 221.958218 
L 451.919274 215.166853 
L 454.405061 211.77117 
L 456.63752 208.375488 
L 458.495638 204.979805 
L 459.244245 203.281963 
L 459.852314 201.584122 
L 460.306667 199.886281 
L 460.596573 198.188439 
L 460.714362 196.490598 
L 460.655906 194.792757 
L 460.420938 193.094915 
L 460.013185 191.397074 
L 459.440294 189.699232 
L 458.713566 188.001391 
L 456.85916 184.605708 
L 454.592323 181.210026 
L 450.762804 176.116502 
L 444.283859 167.627295 
L 439.462686 160.835929 
L 433.48097 152.346722 
L 429.612236 147.253198 
L 425.478878 142.159674 
L 417.028266 131.972626 
L 414.422335 128.576943 
L 412.040262 125.181261 
L 409.931851 121.785578 
L 408.1258 118.389895 
L 406.629192 114.994212 
L 405.429867 111.59853 
L 404.500819 108.202847 
L 403.805586 104.807164 
L 403.303682 101.411481 
L 402.827434 96.317957 
L 402.58443 91.224433 
L 402.498939 86.130909 
L 402.498939 86.130909 
" style="fill:none;stroke:#1f77b4;stroke-linecap:square;stroke-width:1.5;"/>
   </g>
   <g id="line2d_22">
    <path clip-path="url(#pb7f046b14b)" d="M 402.569942 307.149091 
L 402.631484 300.672972 
L 402.865201 295.815883 
L 403.312732 290.958793 
L 403.769483 287.720734 
L 404.385766 284.482674 
L 405.189866 281.244615 
L 406.206555 278.006556 
L 407.453649 274.768496 
L 408.938985 271.530437 
L 410.658446 268.292377 
L 412.59557 265.054318 
L 415.847582 260.197228 
L 419.408326 255.340139 
L 424.440168 248.86402 
L 430.991007 240.768871 
L 436.456465 234.292752 
L 450.353419 218.102455 
L 452.681554 214.864395 
L 454.631255 211.626336 
L 455.435992 210.007306 
L 456.11593 208.388277 
L 456.665607 206.769247 
L 457.082447 205.150217 
L 457.366978 203.531187 
L 457.522911 201.912158 
L 457.557079 200.293128 
L 457.30157 197.055068 
L 456.705442 193.817009 
L 455.449156 188.95992 
L 453.265071 180.864771 
L 451.212838 172.769622 
L 450.138398 169.531563 
L 448.712554 166.293503 
L 447.827773 164.674473 
L 446.811887 163.055444 
L 445.656795 161.436414 
L 444.358449 159.817384 
L 441.337635 156.579325 
L 437.804189 153.341265 
L 433.875655 150.103206 
L 419.503148 138.769998 
L 415.918435 135.531938 
L 412.78478 132.293879 
L 410.148011 129.055819 
L 408.010164 125.81776 
L 406.338602 122.5797 
L 405.077528 119.341641 
L 404.15953 116.103581 
L 403.515457 112.865522 
L 403.081715 109.627462 
L 402.711865 104.770373 
L 402.597171 101.532313 
L 402.597171 101.532313 
" style="fill:none;stroke:#ff7f0e;stroke-linecap:square;stroke-width:1.5;"/>
   </g>
   <g id="line2d_23">
    <path clip-path="url(#pb7f046b14b)" d="M 402.494133 284.135742 
L 402.626478 278.025123 
L 402.906323 273.442158 
L 403.424223 268.859194 
L 403.956086 265.803884 
L 404.683319 262.748575 
L 405.649449 259.693265 
L 406.899232 256.637955 
L 408.476061 253.582646 
L 410.418908 250.527336 
L 412.758603 247.472027 
L 415.513198 244.416717 
L 418.682324 241.361407 
L 422.240816 238.306098 
L 426.132592 235.250788 
L 432.385937 230.667824 
L 440.761727 224.557205 
L 444.589085 221.501895 
L 447.960093 218.446585 
L 449.434842 216.918931 
L 450.754655 215.391276 
L 451.91385 213.863621 
L 452.911262 212.335966 
L 453.750368 210.808311 
L 454.439204 209.280656 
L 454.99007 207.753002 
L 455.745235 204.697692 
L 456.176339 201.642382 
L 456.989777 194.004108 
L 457.568635 190.948799 
L 458.375779 187.893489 
L 459.896997 183.310525 
L 461.394666 178.72756 
L 462.080472 175.672251 
L 462.258183 174.144596 
L 462.296607 172.616941 
L 462.176793 171.089286 
L 461.882897 169.561632 
L 461.402675 168.033977 
L 460.727848 166.506322 
L 459.854327 164.978667 
L 458.782275 163.451012 
L 457.51604 161.923358 
L 456.063943 160.395703 
L 452.653171 157.340393 
L 448.680725 154.285084 
L 444.310478 151.229774 
L 426.250879 139.008536 
L 422.274866 135.953226 
L 418.683256 132.897916 
L 415.508259 129.842607 
L 412.758939 126.787297 
L 410.426449 123.731988 
L 408.488605 120.676678 
L 406.913613 117.621368 
L 405.663101 114.566059 
L 404.69476 111.510749 
L 403.964816 108.45544 
L 403.430389 105.40013 
L 402.909549 100.817166 
L 402.627908 96.234201 
L 402.494261 90.123582 
L 402.494261 90.123582 
" style="fill:none;stroke:#2ca02c;stroke-linecap:square;stroke-width:1.5;"/>
   </g>
   <g id="line2d_24">
    <path clip-path="url(#pb7f046b14b)" d="M 402.757672 280.218888 
L 402.988925 276.81554 
L 403.323415 274.546642 
L 403.849118 272.277744 
L 404.621699 270.008845 
L 405.706952 267.739947 
L 407.175114 265.471048 
L 409.092711 263.20215 
L 411.51228 260.933252 
L 414.461042 258.664353 
L 417.930296 256.395455 
L 421.867823 254.126557 
L 428.426432 250.723209 
L 441.971254 243.916514 
L 446.017661 241.647615 
L 449.640613 239.378717 
L 452.815257 237.109819 
L 455.5861 234.84092 
L 459.225933 231.437573 
L 463.89064 226.899776 
L 466.436426 224.630878 
L 470.673498 221.22753 
L 479.652661 214.420835 
L 482.163037 212.151937 
L 483.210926 211.017487 
L 484.088742 209.883038 
L 484.775834 208.748589 
L 485.254898 207.61414 
L 485.512432 206.479691 
L 485.539048 205.345242 
L 485.329635 204.210792 
L 484.883377 203.076343 
L 484.203634 201.941894 
L 483.297698 200.807445 
L 482.176433 199.672996 
L 480.853835 198.538546 
L 477.673044 196.269648 
L 473.908705 194.00075 
L 469.726852 191.731851 
L 460.727713 187.194055 
L 447.204204 180.387359 
L 438.650455 175.849563 
L 430.511749 171.311766 
L 424.761685 167.908418 
L 419.473858 164.505071 
L 416.295663 162.236172 
L 413.452498 159.967274 
L 410.978196 157.698376 
L 408.887344 155.429477 
L 407.174094 153.160579 
L 405.814345 150.891681 
L 404.770407 148.622782 
L 403.996933 146.353884 
L 403.446988 144.084985 
L 403.077422 141.816087 
L 402.787464 138.412739 
L 402.740191 136.143841 
L 402.740191 136.143841 
" style="fill:none;stroke:#d62728;stroke-linecap:square;stroke-width:1.5;"/>
   </g>
  </g>
  <g id="axes_4">
   <g id="patch_33">
    <path d="M 402.32 75.08 
L 489.7 75.08 
L 489.7 14.3 
L 402.32 14.3 
z
" style="fill:#ffffff;"/>
   </g>
   <g id="matplotlib.axis_3">
    <g id="xtick_9">
     <g id="line2d_25">
      <g>
       <use style="stroke:#000000;stroke-width:0.8;" x="402.32" xlink:href="#mdedb74acd1" y="75.08"/>
      </g>
     </g>
    </g>
    <g id="xtick_10">
     <g id="line2d_26">
      <g>
       <use style="stroke:#000000;stroke-width:0.8;" x="446.01" xlink:href="#mdedb74acd1" y="75.08"/>
      </g>
     </g>
    </g>
    <g id="xtick_11">
     <g id="line2d_27">
      <g>
       <use style="stroke:#000000;stroke-width:0.8;" x="489.7" xlink:href="#mdedb74acd1" y="75.08"/>
      </g>
     </g>
    </g>
   </g>
   <g id="matplotlib.axis_4">
    <g id="ytick_9">
     <g id="line2d_28">
      <g>
       <use style="stroke:#000000;stroke-width:0.8;" x="402.32" xlink:href="#me4971485c7" y="75.08"/>
      </g>
     </g>
    </g>
    <g id="ytick_10">
     <g id="line2d_29">
      <g>
       <use style="stroke:#000000;stroke-width:0.8;" x="402.32" xlink:href="#me4971485c7" y="44.69"/>
      </g>
     </g>
    </g>
    <g id="ytick_11">
     <g id="line2d_30">
      <g>
       <use style="stroke:#000000;stroke-width:0.8;" x="402.32" xlink:href="#me4971485c7" y="14.3"/>
      </g>
     </g>
    </g>
   </g>
   <g id="patch_34">
    <path d="M 402.32 75.08 
L 402.32 14.3 
" style="fill:none;stroke:#000000;stroke-linecap:square;stroke-linejoin:miter;stroke-width:0.8;"/>
   </g>
   <g id="patch_35">
    <path d="M 489.7 75.08 
L 489.7 14.3 
" style="fill:none;stroke:#000000;stroke-linecap:square;stroke-linejoin:miter;stroke-width:0.8;"/>
   </g>
   <g id="patch_36">
    <path d="M 402.32 75.08 
L 489.7 75.08 
" style="fill:none;stroke:#000000;stroke-linecap:square;stroke-linejoin:miter;stroke-width:0.8;"/>
   </g>
   <g id="patch_37">
    <path d="M 402.32 14.3 
L 489.7 14.3 
" style="fill:none;stroke:#000000;stroke-linecap:square;stroke-linejoin:miter;stroke-width:0.8;"/>
   </g>
   <g id="legend_1">
    <g id="patch_38">
     <path d="M 434.796875 81.0125 
L 482.7 81.0125 
Q 484.7 81.0125 484.7 79.0125 
L 484.7 21.3 
Q 484.7 19.3 482.7 19.3 
L 434.796875 19.3 
Q 432.796875 19.3 432.796875 21.3 
L 432.796875 79.0125 
Q 432.796875 81.0125 434.796875 81.0125 
z
" style="fill:#ffffff;opacity:0.8;stroke:#cccccc;stroke-linejoin:miter;"/>
    </g>
    <g id="patch_39">
     <path d="M 436.796875 30.898438 
L 456.796875 30.898438 
L 456.796875 23.898438 
L 436.796875 23.898438 
z
" style="fill:#1f77b4;stroke:#1f77b4;stroke-linejoin:miter;"/>
    </g>
    <g id="text_19">
     <!-- 1.0 -->
     <defs>
      <path d="M 10.6875 12.40625 
L 21 12.40625 
L 21 0 
L 10.6875 0 
z
" id="DejaVuSans-2e"/>
     </defs>
     <g transform="translate(464.796875 30.898438)scale(0.1 -0.1)">
      <use xlink:href="#DejaVuSans-31"/>
      <use x="63.623047" xlink:href="#DejaVuSans-2e"/>
      <use x="95.410156" xlink:href="#DejaVuSans-30"/>
     </g>
    </g>
    <g id="patch_40">
     <path d="M 436.796875 45.576563 
L 456.796875 45.576563 
L 456.796875 38.576563 
L 436.796875 38.576563 
z
" style="fill:#ff7f0e;stroke:#ff7f0e;stroke-linejoin:miter;"/>
    </g>
    <g id="text_20">
     <!-- 0.0 -->
     <g transform="translate(464.796875 45.576563)scale(0.1 -0.1)">
      <use xlink:href="#DejaVuSans-30"/>
      <use x="63.623047" xlink:href="#DejaVuSans-2e"/>
      <use x="95.410156" xlink:href="#DejaVuSans-30"/>
     </g>
    </g>
    <g id="patch_41">
     <path d="M 436.796875 60.254688 
L 456.796875 60.254688 
L 456.796875 53.254688 
L 436.796875 53.254688 
z
" style="fill:#2ca02c;stroke:#2ca02c;stroke-linejoin:miter;"/>
    </g>
    <g id="text_21">
     <!-- 3.0 -->
     <g transform="translate(464.796875 60.254688)scale(0.1 -0.1)">
      <use xlink:href="#DejaVuSans-33"/>
      <use x="63.623047" xlink:href="#DejaVuSans-2e"/>
      <use x="95.410156" xlink:href="#DejaVuSans-30"/>
     </g>
    </g>
    <g id="patch_42">
     <path d="M 436.796875 74.932813 
L 456.796875 74.932813 
L 456.796875 67.932813 
L 436.796875 67.932813 
z
" style="fill:#d62728;stroke:#d62728;stroke-linejoin:miter;"/>
    </g>
    <g id="text_22">
     <!-- 2.0 -->
     <g transform="translate(464.796875 74.932813)scale(0.1 -0.1)">
      <use xlink:href="#DejaVuSans-32"/>
      <use x="63.623047" xlink:href="#DejaVuSans-2e"/>
      <use x="95.410156" xlink:href="#DejaVuSans-30"/>
     </g>
    </g>
   </g>
  </g>
 </g>
 <defs>
  <clipPath id="p7ada42e6a6">
   <rect height="243.12" width="349.52" x="52.8" y="75.08"/>
  </clipPath>
  <clipPath id="p6c99ac4ce6">
   <rect height="60.78" width="349.52" x="52.8" y="14.3"/>
  </clipPath>
  <clipPath id="pb7f046b14b">
   <rect height="243.12" width="87.38" x="402.32" y="75.08"/>
  </clipPath>
 </defs>
</svg>
