<?xml version="1.0" encoding="utf-8" standalone="no"?>
<!DOCTYPE svg PUBLIC "-//W3C//DTD SVG 1.1//EN"
  "http://www.w3.org/Graphics/SVG/1.1/DTD/svg11.dtd">
<!-- Created with matplotlib (http://matplotlib.org/) -->
<svg height="360pt" version="1.1" viewBox="0 0 504 360" width="504pt" xmlns="http://www.w3.org/2000/svg" xmlns:xlink="http://www.w3.org/1999/xlink">
 <defs>
  <style type="text/css">
*{stroke-linecap:butt;stroke-linejoin:round;}
  </style>
 </defs>
 <g id="figure_1">
  <g id="patch_1">
   <path d="M 0 360 
L 504 360 
L 504 0 
L 0 0 
z
" style="fill:#ffffff;"/>
  </g>
  <g id="axes_1">
   <g id="patch_2">
    <path d="M 52.8 318.2 
L 402.32 318.2 
L 402.32 75.08 
L 52.8 75.08 
z
" style="fill:#ffffff;"/>
   </g>
   <g id="PathCollection_1">
    <defs>
     <path d="M 0 3 
C 0.795609 3 1.55874 2.683901 2.12132 2.12132 
C 2.683901 1.55874 3 0.795609 3 0 
C 3 -0.795609 2.683901 -1.55874 2.12132 -2.12132 
C 1.55874 -2.683901 0.795609 -3 0 -3 
C -0.795609 -3 -1.55874 -2.683901 -2.12132 -2.12132 
C -2.683901 -1.55874 -3 -0.795609 -3 0 
C -3 0.795609 -2.683901 1.55874 -2.12132 2.12132 
C -1.55874 2.683901 -0.795609 3 0 3 
z
" id="m726fe41817" style="stroke:#1f77b4;stroke-opacity:0.4;"/>
    </defs>
    <g clip-path="url(#p6348ddd623)">
     <use style="fill:#1f77b4;fill-opacity:0.4;stroke:#1f77b4;stroke-opacity:0.4;" x="207.400875" xlink:href="#m726fe41817" y="110.353359"/>
     <use style="fill:#1f77b4;fill-opacity:0.4;stroke:#1f77b4;stroke-opacity:0.4;" x="212.557569" xlink:href="#m726fe41817" y="94.046173"/>
     <use style="fill:#1f77b4;fill-opacity:0.4;stroke:#1f77b4;stroke-opacity:0.4;" x="181.100691" xlink:href="#m726fe41817" y="155.422463"/>
     <use style="fill:#1f77b4;fill-opacity:0.4;stroke:#1f77b4;stroke-opacity:0.4;" x="160.306799" xlink:href="#m726fe41817" y="182.928032"/>
     <use style="fill:#1f77b4;fill-opacity:0.4;stroke:#1f77b4;stroke-opacity:0.4;" x="195.696005" xlink:href="#m726fe41817" y="167.963418"/>
     <use style="fill:#1f77b4;fill-opacity:0.4;stroke:#1f77b4;stroke-opacity:0.4;" x="201.307959" xlink:href="#m726fe41817" y="153.220939"/>
     <use style="fill:#1f77b4;fill-opacity:0.4;stroke:#1f77b4;stroke-opacity:0.4;" x="255.521312" xlink:href="#m726fe41817" y="302.492168"/>
     <use style="fill:#1f77b4;fill-opacity:0.4;stroke:#1f77b4;stroke-opacity:0.4;" x="292.23597" xlink:href="#m726fe41817" y="229.962375"/>
     <use style="fill:#1f77b4;fill-opacity:0.4;stroke:#1f77b4;stroke-opacity:0.4;" x="298.516308" xlink:href="#m726fe41817" y="251.219273"/>
     <use style="fill:#1f77b4;fill-opacity:0.4;stroke:#1f77b4;stroke-opacity:0.4;" x="164.992256" xlink:href="#m726fe41817" y="137.061433"/>
     <use style="fill:#1f77b4;fill-opacity:0.4;stroke:#1f77b4;stroke-opacity:0.4;" x="224.424337" xlink:href="#m726fe41817" y="120.393601"/>
     <use style="fill:#1f77b4;fill-opacity:0.4;stroke:#1f77b4;stroke-opacity:0.4;" x="252.811583" xlink:href="#m726fe41817" y="264.944438"/>
     <use style="fill:#1f77b4;fill-opacity:0.4;stroke:#1f77b4;stroke-opacity:0.4;" x="218.637335" xlink:href="#m726fe41817" y="255.46114"/>
     <use style="fill:#1f77b4;fill-opacity:0.4;stroke:#1f77b4;stroke-opacity:0.4;" x="200.836093" xlink:href="#m726fe41817" y="232.655874"/>
     <use style="fill:#1f77b4;fill-opacity:0.4;stroke:#1f77b4;stroke-opacity:0.4;" x="264.979279" xlink:href="#m726fe41817" y="267.362238"/>
    </g>
   </g>
   <g id="PathCollection_2">
    <defs>
     <path d="M 0 3 
C 0.795609 3 1.55874 2.683901 2.12132 2.12132 
C 2.683901 1.55874 3 0.795609 3 0 
C 3 -0.795609 2.683901 -1.55874 2.12132 -2.12132 
C 1.55874 -2.683901 0.795609 -3 0 -3 
C -0.795609 -3 -1.55874 -2.683901 -2.12132 -2.12132 
C -2.683901 -1.55874 -3 -0.795609 -3 0 
C -3 0.795609 -2.683901 1.55874 -2.12132 2.12132 
C -1.55874 2.683901 -0.795609 3 0 3 
z
" id="m1fc8f68f1f" style="stroke:#ff7f0e;stroke-opacity:0.4;"/>
    </defs>
    <g clip-path="url(#p6348ddd623)">
     <use style="fill:#ff7f0e;fill-opacity:0.4;stroke:#ff7f0e;stroke-opacity:0.4;" x="226.645489" xlink:href="#m1fc8f68f1f" y="277.708845"/>
     <use style="fill:#ff7f0e;fill-opacity:0.4;stroke:#ff7f0e;stroke-opacity:0.4;" x="246.875266" xlink:href="#m1fc8f68f1f" y="209.117466"/>
     <use style="fill:#ff7f0e;fill-opacity:0.4;stroke:#ff7f0e;stroke-opacity:0.4;" x="223.219009" xlink:href="#m1fc8f68f1f" y="181.946157"/>
     <use style="fill:#ff7f0e;fill-opacity:0.4;stroke:#ff7f0e;stroke-opacity:0.4;" x="215.426756" xlink:href="#m1fc8f68f1f" y="156.586925"/>
     <use style="fill:#ff7f0e;fill-opacity:0.4;stroke:#ff7f0e;stroke-opacity:0.4;" x="155.639027" xlink:href="#m1fc8f68f1f" y="114.407944"/>
     <use style="fill:#ff7f0e;fill-opacity:0.4;stroke:#ff7f0e;stroke-opacity:0.4;" x="167.626739" xlink:href="#m1fc8f68f1f" y="162.14343"/>
     <use style="fill:#ff7f0e;fill-opacity:0.4;stroke:#ff7f0e;stroke-opacity:0.4;" x="184.478462" xlink:href="#m1fc8f68f1f" y="98.08398"/>
     <use style="fill:#ff7f0e;fill-opacity:0.4;stroke:#ff7f0e;stroke-opacity:0.4;" x="195.300539" xlink:href="#m1fc8f68f1f" y="126.844139"/>
     <use style="fill:#ff7f0e;fill-opacity:0.4;stroke:#ff7f0e;stroke-opacity:0.4;" x="171.566488" xlink:href="#m1fc8f68f1f" y="193.156127"/>
     <use style="fill:#ff7f0e;fill-opacity:0.4;stroke:#ff7f0e;stroke-opacity:0.4;" x="229.436381" xlink:href="#m1fc8f68f1f" y="159.754843"/>
     <use style="fill:#ff7f0e;fill-opacity:0.4;stroke:#ff7f0e;stroke-opacity:0.4;" x="223.141194" xlink:href="#m1fc8f68f1f" y="234.598861"/>
     <use style="fill:#ff7f0e;fill-opacity:0.4;stroke:#ff7f0e;stroke-opacity:0.4;" x="279.646356" xlink:href="#m1fc8f68f1f" y="213.771168"/>
     <use style="fill:#ff7f0e;fill-opacity:0.4;stroke:#ff7f0e;stroke-opacity:0.4;" x="226.409212" xlink:href="#m1fc8f68f1f" y="142.563464"/>
     <use style="fill:#ff7f0e;fill-opacity:0.4;stroke:#ff7f0e;stroke-opacity:0.4;" x="213.895261" xlink:href="#m1fc8f68f1f" y="132.867271"/>
     <use style="fill:#ff7f0e;fill-opacity:0.4;stroke:#ff7f0e;stroke-opacity:0.4;" x="259.239464" xlink:href="#m1fc8f68f1f" y="250.052282"/>
     <use style="fill:#ff7f0e;fill-opacity:0.4;stroke:#ff7f0e;stroke-opacity:0.4;" x="292.278239" xlink:href="#m1fc8f68f1f" y="271.584474"/>
    </g>
   </g>
   <g id="PathCollection_3">
    <defs>
     <path d="M 0 3 
C 0.795609 3 1.55874 2.683901 2.12132 2.12132 
C 2.683901 1.55874 3 0.795609 3 0 
C 3 -0.795609 2.683901 -1.55874 2.12132 -2.12132 
C 1.55874 -2.683901 0.795609 -3 0 -3 
C -0.795609 -3 -1.55874 -2.683901 -2.12132 -2.12132 
C -2.683901 -1.55874 -3 -0.795609 -3 0 
C -3 0.795609 -2.683901 1.55874 -2.12132 2.12132 
C -1.55874 2.683901 -0.795609 3 0 3 
z
" id="m2477048126" style="stroke:#2ca02c;stroke-opacity:0.4;"/>
    </defs>
    <g clip-path="url(#p6348ddd623)">
     <use style="fill:#2ca02c;fill-opacity:0.4;stroke:#2ca02c;stroke-opacity:0.4;" x="153.989929" xlink:href="#m2477048126" y="95.247632"/>
     <use style="fill:#2ca02c;fill-opacity:0.4;stroke:#2ca02c;stroke-opacity:0.4;" x="185.26892" xlink:href="#m2477048126" y="187.590332"/>
     <use style="fill:#2ca02c;fill-opacity:0.4;stroke:#2ca02c;stroke-opacity:0.4;" x="176.963722" xlink:href="#m2477048126" y="173.849327"/>
     <use style="fill:#2ca02c;fill-opacity:0.4;stroke:#2ca02c;stroke-opacity:0.4;" x="166.655315" xlink:href="#m2477048126" y="100.132464"/>
     <use style="fill:#2ca02c;fill-opacity:0.4;stroke:#2ca02c;stroke-opacity:0.4;" x="198.445398" xlink:href="#m2477048126" y="89.295618"/>
     <use style="fill:#2ca02c;fill-opacity:0.4;stroke:#2ca02c;stroke-opacity:0.4;" x="258.387658" xlink:href="#m2477048126" y="197.40126"/>
     <use style="fill:#2ca02c;fill-opacity:0.4;stroke:#2ca02c;stroke-opacity:0.4;" x="228.791741" xlink:href="#m2477048126" y="210.373882"/>
     <use style="fill:#2ca02c;fill-opacity:0.4;stroke:#2ca02c;stroke-opacity:0.4;" x="267.640545" xlink:href="#m2477048126" y="284.654882"/>
     <use style="fill:#2ca02c;fill-opacity:0.4;stroke:#2ca02c;stroke-opacity:0.4;" x="282.408532" xlink:href="#m2477048126" y="288.292738"/>
     <use style="fill:#2ca02c;fill-opacity:0.4;stroke:#2ca02c;stroke-opacity:0.4;" x="193.689487" xlink:href="#m2477048126" y="109.628187"/>
     <use style="fill:#2ca02c;fill-opacity:0.4;stroke:#2ca02c;stroke-opacity:0.4;" x="181.305817" xlink:href="#m2477048126" y="120.825712"/>
     <use style="fill:#2ca02c;fill-opacity:0.4;stroke:#2ca02c;stroke-opacity:0.4;" x="254.267057" xlink:href="#m2477048126" y="282.495182"/>
     <use style="fill:#2ca02c;fill-opacity:0.4;stroke:#2ca02c;stroke-opacity:0.4;" x="237.36649" xlink:href="#m2477048126" y="231.701475"/>
     <use style="fill:#2ca02c;fill-opacity:0.4;stroke:#2ca02c;stroke-opacity:0.4;" x="284.589257" xlink:href="#m2477048126" y="252.323075"/>
     <use style="fill:#2ca02c;fill-opacity:0.4;stroke:#2ca02c;stroke-opacity:0.4;" x="241.258682" xlink:href="#m2477048126" y="291.903745"/>
     <use style="fill:#2ca02c;fill-opacity:0.4;stroke:#2ca02c;stroke-opacity:0.4;" x="301.130071" xlink:href="#m2477048126" y="302.021735"/>
    </g>
   </g>
   <g id="PathCollection_4">
    <defs>
     <path d="M 0 3 
C 0.795609 3 1.55874 2.683901 2.12132 2.12132 
C 2.683901 1.55874 3 0.795609 3 0 
C 3 -0.795609 2.683901 -1.55874 2.12132 -2.12132 
C 1.55874 -2.683901 0.795609 -3 0 -3 
C -0.795609 -3 -1.55874 -2.683901 -2.12132 -2.12132 
C -2.683901 -1.55874 -3 -0.795609 -3 0 
C -3 0.795609 -2.683901 1.55874 -2.12132 2.12132 
C -1.55874 2.683901 -0.795609 3 0 3 
z
" id="mb379267beb" style="stroke:#d62728;stroke-opacity:0.4;"/>
    </defs>
    <g clip-path="url(#p6348ddd623)">
     <use style="fill:#d62728;fill-opacity:0.4;stroke:#d62728;stroke-opacity:0.4;" x="237.356754" xlink:href="#mb379267beb" y="132.199145"/>
     <use style="fill:#d62728;fill-opacity:0.4;stroke:#d62728;stroke-opacity:0.4;" x="206.798759" xlink:href="#mb379267beb" y="173.095165"/>
     <use style="fill:#d62728;fill-opacity:0.4;stroke:#d62728;stroke-opacity:0.4;" x="240.899233" xlink:href="#mb379267beb" y="150.33937"/>
     <use style="fill:#d62728;fill-opacity:0.4;stroke:#d62728;stroke-opacity:0.4;" x="241.19511" xlink:href="#mb379267beb" y="175.513093"/>
     <use style="fill:#d62728;fill-opacity:0.4;stroke:#d62728;stroke-opacity:0.4;" x="265.993767" xlink:href="#mb379267beb" y="236.083027"/>
     <use style="fill:#d62728;fill-opacity:0.4;stroke:#d62728;stroke-opacity:0.4;" x="265.129501" xlink:href="#mb379267beb" y="218.357245"/>
     <use style="fill:#d62728;fill-opacity:0.4;stroke:#d62728;stroke-opacity:0.4;" x="271.372537" xlink:href="#mb379267beb" y="303.824573"/>
     <use style="fill:#d62728;fill-opacity:0.4;stroke:#d62728;stroke-opacity:0.4;" x="271.947024" xlink:href="#mb379267beb" y="252.504194"/>
     <use style="fill:#d62728;fill-opacity:0.4;stroke:#d62728;stroke-opacity:0.4;" x="246.617307" xlink:href="#mb379267beb" y="248.802254"/>
     <use style="fill:#d62728;fill-opacity:0.4;stroke:#d62728;stroke-opacity:0.4;" x="277.823137" xlink:href="#mb379267beb" y="269.652538"/>
     <use style="fill:#d62728;fill-opacity:0.4;stroke:#d62728;stroke-opacity:0.4;" x="278.590395" xlink:href="#mb379267beb" y="234.742063"/>
     <use style="fill:#d62728;fill-opacity:0.4;stroke:#d62728;stroke-opacity:0.4;" x="252.968555" xlink:href="#mb379267beb" y="231.271941"/>
     <use style="fill:#d62728;fill-opacity:0.4;stroke:#d62728;stroke-opacity:0.4;" x="240.905495" xlink:href="#mb379267beb" y="269.960986"/>
     <use style="fill:#d62728;fill-opacity:0.4;stroke:#d62728;stroke-opacity:0.4;" x="190.941274" xlink:href="#mb379267beb" y="223.151071"/>
     <use style="fill:#d62728;fill-opacity:0.4;stroke:#d62728;stroke-opacity:0.4;" x="232.533102" xlink:href="#mb379267beb" y="251.303469"/>
    </g>
   </g>
   <g id="matplotlib.axis_1">
    <g id="xtick_1">
     <g id="line2d_1">
      <defs>
       <path d="M 0 0 
L 0 3.5 
" id="m51f3f80a2a" style="stroke:#000000;stroke-width:0.8;"/>
      </defs>
      <g>
       <use style="stroke:#000000;stroke-width:0.8;" x="61.6067" xlink:href="#m51f3f80a2a" y="318.2"/>
      </g>
     </g>
     <g id="text_1">
      <!-- −80 -->
      <defs>
       <path d="M 10.59375 35.5 
L 73.1875 35.5 
L 73.1875 27.203125 
L 10.59375 27.203125 
z
" id="DejaVuSans-2212"/>
       <path d="M 31.78125 34.625 
Q 24.75 34.625 20.71875 30.859375 
Q 16.703125 27.09375 16.703125 20.515625 
Q 16.703125 13.921875 20.71875 10.15625 
Q 24.75 6.390625 31.78125 6.390625 
Q 38.8125 6.390625 42.859375 10.171875 
Q 46.921875 13.96875 46.921875 20.515625 
Q 46.921875 27.09375 42.890625 30.859375 
Q 38.875 34.625 31.78125 34.625 
z
M 21.921875 38.8125 
Q 15.578125 40.375 12.03125 44.71875 
Q 8.5 49.078125 8.5 55.328125 
Q 8.5 64.0625 14.71875 69.140625 
Q 20.953125 74.21875 31.78125 74.21875 
Q 42.671875 74.21875 48.875 69.140625 
Q 55.078125 64.0625 55.078125 55.328125 
Q 55.078125 49.078125 51.53125 44.71875 
Q 48 40.375 41.703125 38.8125 
Q 48.828125 37.15625 52.796875 32.3125 
Q 56.78125 27.484375 56.78125 20.515625 
Q 56.78125 9.90625 50.3125 4.234375 
Q 43.84375 -1.421875 31.78125 -1.421875 
Q 19.734375 -1.421875 13.25 4.234375 
Q 6.78125 9.90625 6.78125 20.515625 
Q 6.78125 27.484375 10.78125 32.3125 
Q 14.796875 37.15625 21.921875 38.8125 
z
M 18.3125 54.390625 
Q 18.3125 48.734375 21.84375 45.5625 
Q 25.390625 42.390625 31.78125 42.390625 
Q 38.140625 42.390625 41.71875 45.5625 
Q 45.3125 48.734375 45.3125 54.390625 
Q 45.3125 60.0625 41.71875 63.234375 
Q 38.140625 66.40625 31.78125 66.40625 
Q 25.390625 66.40625 21.84375 63.234375 
Q 18.3125 60.0625 18.3125 54.390625 
z
" id="DejaVuSans-38"/>
       <path d="M 31.78125 66.40625 
Q 24.171875 66.40625 20.328125 58.90625 
Q 16.5 51.421875 16.5 36.375 
Q 16.5 21.390625 20.328125 13.890625 
Q 24.171875 6.390625 31.78125 6.390625 
Q 39.453125 6.390625 43.28125 13.890625 
Q 47.125 21.390625 47.125 36.375 
Q 47.125 51.421875 43.28125 58.90625 
Q 39.453125 66.40625 31.78125 66.40625 
z
M 31.78125 74.21875 
Q 44.046875 74.21875 50.515625 64.515625 
Q 56.984375 54.828125 56.984375 36.375 
Q 56.984375 17.96875 50.515625 8.265625 
Q 44.046875 -1.421875 31.78125 -1.421875 
Q 19.53125 -1.421875 13.0625 8.265625 
Q 6.59375 17.96875 6.59375 36.375 
Q 6.59375 54.828125 13.0625 64.515625 
Q 19.53125 74.21875 31.78125 74.21875 
z
" id="DejaVuSans-30"/>
      </defs>
      <g transform="translate(51.054357 332.798437)scale(0.1 -0.1)">
       <use xlink:href="#DejaVuSans-2212"/>
       <use x="83.789062" xlink:href="#DejaVuSans-38"/>
       <use x="147.412109" xlink:href="#DejaVuSans-30"/>
      </g>
     </g>
    </g>
    <g id="xtick_2">
     <g id="line2d_2">
      <g>
       <use style="stroke:#000000;stroke-width:0.8;" x="102.714236" xlink:href="#m51f3f80a2a" y="318.2"/>
      </g>
     </g>
     <g id="text_2">
      <!-- −60 -->
      <defs>
       <path d="M 33.015625 40.375 
Q 26.375 40.375 22.484375 35.828125 
Q 18.609375 31.296875 18.609375 23.390625 
Q 18.609375 15.53125 22.484375 10.953125 
Q 26.375 6.390625 33.015625 6.390625 
Q 39.65625 6.390625 43.53125 10.953125 
Q 47.40625 15.53125 47.40625 23.390625 
Q 47.40625 31.296875 43.53125 35.828125 
Q 39.65625 40.375 33.015625 40.375 
z
M 52.59375 71.296875 
L 52.59375 62.3125 
Q 48.875 64.0625 45.09375 64.984375 
Q 41.3125 65.921875 37.59375 65.921875 
Q 27.828125 65.921875 22.671875 59.328125 
Q 17.53125 52.734375 16.796875 39.40625 
Q 19.671875 43.65625 24.015625 45.921875 
Q 28.375 48.1875 33.59375 48.1875 
Q 44.578125 48.1875 50.953125 41.515625 
Q 57.328125 34.859375 57.328125 23.390625 
Q 57.328125 12.15625 50.6875 5.359375 
Q 44.046875 -1.421875 33.015625 -1.421875 
Q 20.359375 -1.421875 13.671875 8.265625 
Q 6.984375 17.96875 6.984375 36.375 
Q 6.984375 53.65625 15.1875 63.9375 
Q 23.390625 74.21875 37.203125 74.21875 
Q 40.921875 74.21875 44.703125 73.484375 
Q 48.484375 72.75 52.59375 71.296875 
z
" id="DejaVuSans-36"/>
      </defs>
      <g transform="translate(92.161892 332.798437)scale(0.1 -0.1)">
       <use xlink:href="#DejaVuSans-2212"/>
       <use x="83.789062" xlink:href="#DejaVuSans-36"/>
       <use x="147.412109" xlink:href="#DejaVuSans-30"/>
      </g>
     </g>
    </g>
    <g id="xtick_3">
     <g id="line2d_3">
      <g>
       <use style="stroke:#000000;stroke-width:0.8;" x="143.821771" xlink:href="#m51f3f80a2a" y="318.2"/>
      </g>
     </g>
     <g id="text_3">
      <!-- −40 -->
      <defs>
       <path d="M 37.796875 64.3125 
L 12.890625 25.390625 
L 37.796875 25.390625 
z
M 35.203125 72.90625 
L 47.609375 72.90625 
L 47.609375 25.390625 
L 58.015625 25.390625 
L 58.015625 17.1875 
L 47.609375 17.1875 
L 47.609375 0 
L 37.796875 0 
L 37.796875 17.1875 
L 4.890625 17.1875 
L 4.890625 26.703125 
z
" id="DejaVuSans-34"/>
      </defs>
      <g transform="translate(133.269427 332.798437)scale(0.1 -0.1)">
       <use xlink:href="#DejaVuSans-2212"/>
       <use x="83.789062" xlink:href="#DejaVuSans-34"/>
       <use x="147.412109" xlink:href="#DejaVuSans-30"/>
      </g>
     </g>
    </g>
    <g id="xtick_4">
     <g id="line2d_4">
      <g>
       <use style="stroke:#000000;stroke-width:0.8;" x="184.929307" xlink:href="#m51f3f80a2a" y="318.2"/>
      </g>
     </g>
     <g id="text_4">
      <!-- −20 -->
      <defs>
       <path d="M 19.1875 8.296875 
L 53.609375 8.296875 
L 53.609375 0 
L 7.328125 0 
L 7.328125 8.296875 
Q 12.9375 14.109375 22.625 23.890625 
Q 32.328125 33.6875 34.8125 36.53125 
Q 39.546875 41.84375 41.421875 45.53125 
Q 43.3125 49.21875 43.3125 52.78125 
Q 43.3125 58.59375 39.234375 62.25 
Q 35.15625 65.921875 28.609375 65.921875 
Q 23.96875 65.921875 18.8125 64.3125 
Q 13.671875 62.703125 7.8125 59.421875 
L 7.8125 69.390625 
Q 13.765625 71.78125 18.9375 73 
Q 24.125 74.21875 28.421875 74.21875 
Q 39.75 74.21875 46.484375 68.546875 
Q 53.21875 62.890625 53.21875 53.421875 
Q 53.21875 48.921875 51.53125 44.890625 
Q 49.859375 40.875 45.40625 35.40625 
Q 44.1875 33.984375 37.640625 27.21875 
Q 31.109375 20.453125 19.1875 8.296875 
z
" id="DejaVuSans-32"/>
      </defs>
      <g transform="translate(174.376963 332.798437)scale(0.1 -0.1)">
       <use xlink:href="#DejaVuSans-2212"/>
       <use x="83.789062" xlink:href="#DejaVuSans-32"/>
       <use x="147.412109" xlink:href="#DejaVuSans-30"/>
      </g>
     </g>
    </g>
    <g id="xtick_5">
     <g id="line2d_5">
      <g>
       <use style="stroke:#000000;stroke-width:0.8;" x="226.036842" xlink:href="#m51f3f80a2a" y="318.2"/>
      </g>
     </g>
     <g id="text_5">
      <!-- 0 -->
      <g transform="translate(222.855592 332.798437)scale(0.1 -0.1)">
       <use xlink:href="#DejaVuSans-30"/>
      </g>
     </g>
    </g>
    <g id="xtick_6">
     <g id="line2d_6">
      <g>
       <use style="stroke:#000000;stroke-width:0.8;" x="267.144377" xlink:href="#m51f3f80a2a" y="318.2"/>
      </g>
     </g>
     <g id="text_6">
      <!-- 20 -->
      <g transform="translate(260.781877 332.798437)scale(0.1 -0.1)">
       <use xlink:href="#DejaVuSans-32"/>
       <use x="63.623047" xlink:href="#DejaVuSans-30"/>
      </g>
     </g>
    </g>
    <g id="xtick_7">
     <g id="line2d_7">
      <g>
       <use style="stroke:#000000;stroke-width:0.8;" x="308.251913" xlink:href="#m51f3f80a2a" y="318.2"/>
      </g>
     </g>
     <g id="text_7">
      <!-- 40 -->
      <g transform="translate(301.889413 332.798437)scale(0.1 -0.1)">
       <use xlink:href="#DejaVuSans-34"/>
       <use x="63.623047" xlink:href="#DejaVuSans-30"/>
      </g>
     </g>
    </g>
    <g id="xtick_8">
     <g id="line2d_8">
      <g>
       <use style="stroke:#000000;stroke-width:0.8;" x="349.359448" xlink:href="#m51f3f80a2a" y="318.2"/>
      </g>
     </g>
     <g id="text_8">
      <!-- 60 -->
      <g transform="translate(342.996948 332.798437)scale(0.1 -0.1)">
       <use xlink:href="#DejaVuSans-36"/>
       <use x="63.623047" xlink:href="#DejaVuSans-30"/>
      </g>
     </g>
    </g>
    <g id="xtick_9">
     <g id="line2d_9">
      <g>
       <use style="stroke:#000000;stroke-width:0.8;" x="390.466984" xlink:href="#m51f3f80a2a" y="318.2"/>
      </g>
     </g>
     <g id="text_9">
      <!-- 80 -->
      <g transform="translate(384.104484 332.798437)scale(0.1 -0.1)">
       <use xlink:href="#DejaVuSans-38"/>
       <use x="63.623047" xlink:href="#DejaVuSans-30"/>
      </g>
     </g>
    </g>
    <g id="text_10">
     <!-- x -->
     <defs>
      <path d="M 54.890625 54.6875 
L 35.109375 28.078125 
L 55.90625 0 
L 45.3125 0 
L 29.390625 21.484375 
L 13.484375 0 
L 2.875 0 
L 24.125 28.609375 
L 4.6875 54.6875 
L 15.28125 54.6875 
L 29.78125 35.203125 
L 44.28125 54.6875 
z
" id="DejaVuSans-78"/>
     </defs>
     <g transform="translate(224.600625 346.476562)scale(0.1 -0.1)">
      <use xlink:href="#DejaVuSans-78"/>
     </g>
    </g>
   </g>
   <g id="matplotlib.axis_2">
    <g id="ytick_1">
     <g id="line2d_10">
      <defs>
       <path d="M 0 0 
L -3.5 0 
" id="mce40099561" style="stroke:#000000;stroke-width:0.8;"/>
      </defs>
      <g>
       <use style="stroke:#000000;stroke-width:0.8;" x="52.8" xlink:href="#mce40099561" y="296.474945"/>
      </g>
     </g>
     <g id="text_11">
      <!-- −30 -->
      <defs>
       <path d="M 40.578125 39.3125 
Q 47.65625 37.796875 51.625 33 
Q 55.609375 28.21875 55.609375 21.1875 
Q 55.609375 10.40625 48.1875 4.484375 
Q 40.765625 -1.421875 27.09375 -1.421875 
Q 22.515625 -1.421875 17.65625 -0.515625 
Q 12.796875 0.390625 7.625 2.203125 
L 7.625 11.71875 
Q 11.71875 9.328125 16.59375 8.109375 
Q 21.484375 6.890625 26.8125 6.890625 
Q 36.078125 6.890625 40.9375 10.546875 
Q 45.796875 14.203125 45.796875 21.1875 
Q 45.796875 27.640625 41.28125 31.265625 
Q 36.765625 34.90625 28.71875 34.90625 
L 20.21875 34.90625 
L 20.21875 43.015625 
L 29.109375 43.015625 
Q 36.375 43.015625 40.234375 45.921875 
Q 44.09375 48.828125 44.09375 54.296875 
Q 44.09375 59.90625 40.109375 62.90625 
Q 36.140625 65.921875 28.71875 65.921875 
Q 24.65625 65.921875 20.015625 65.03125 
Q 15.375 64.15625 9.8125 62.3125 
L 9.8125 71.09375 
Q 15.4375 72.65625 20.34375 73.4375 
Q 25.25 74.21875 29.59375 74.21875 
Q 40.828125 74.21875 47.359375 69.109375 
Q 53.90625 64.015625 53.90625 55.328125 
Q 53.90625 49.265625 50.4375 45.09375 
Q 46.96875 40.921875 40.578125 39.3125 
z
" id="DejaVuSans-33"/>
      </defs>
      <g transform="translate(24.695313 300.274163)scale(0.1 -0.1)">
       <use xlink:href="#DejaVuSans-2212"/>
       <use x="83.789062" xlink:href="#DejaVuSans-33"/>
       <use x="147.412109" xlink:href="#DejaVuSans-30"/>
      </g>
     </g>
    </g>
    <g id="ytick_2">
     <g id="line2d_11">
      <g>
       <use style="stroke:#000000;stroke-width:0.8;" x="52.8" xlink:href="#mce40099561" y="267.65321"/>
      </g>
     </g>
     <g id="text_12">
      <!-- −20 -->
      <g transform="translate(24.695313 271.452429)scale(0.1 -0.1)">
       <use xlink:href="#DejaVuSans-2212"/>
       <use x="83.789062" xlink:href="#DejaVuSans-32"/>
       <use x="147.412109" xlink:href="#DejaVuSans-30"/>
      </g>
     </g>
    </g>
    <g id="ytick_3">
     <g id="line2d_12">
      <g>
       <use style="stroke:#000000;stroke-width:0.8;" x="52.8" xlink:href="#mce40099561" y="238.831476"/>
      </g>
     </g>
     <g id="text_13">
      <!-- −10 -->
      <defs>
       <path d="M 12.40625 8.296875 
L 28.515625 8.296875 
L 28.515625 63.921875 
L 10.984375 60.40625 
L 10.984375 69.390625 
L 28.421875 72.90625 
L 38.28125 72.90625 
L 38.28125 8.296875 
L 54.390625 8.296875 
L 54.390625 0 
L 12.40625 0 
z
" id="DejaVuSans-31"/>
      </defs>
      <g transform="translate(24.695313 242.630694)scale(0.1 -0.1)">
       <use xlink:href="#DejaVuSans-2212"/>
       <use x="83.789062" xlink:href="#DejaVuSans-31"/>
       <use x="147.412109" xlink:href="#DejaVuSans-30"/>
      </g>
     </g>
    </g>
    <g id="ytick_4">
     <g id="line2d_13">
      <g>
       <use style="stroke:#000000;stroke-width:0.8;" x="52.8" xlink:href="#mce40099561" y="210.009741"/>
      </g>
     </g>
     <g id="text_14">
      <!-- 0 -->
      <g transform="translate(39.4375 213.80896)scale(0.1 -0.1)">
       <use xlink:href="#DejaVuSans-30"/>
      </g>
     </g>
    </g>
    <g id="ytick_5">
     <g id="line2d_14">
      <g>
       <use style="stroke:#000000;stroke-width:0.8;" x="52.8" xlink:href="#mce40099561" y="181.188007"/>
      </g>
     </g>
     <g id="text_15">
      <!-- 10 -->
      <g transform="translate(33.075 184.987226)scale(0.1 -0.1)">
       <use xlink:href="#DejaVuSans-31"/>
       <use x="63.623047" xlink:href="#DejaVuSans-30"/>
      </g>
     </g>
    </g>
    <g id="ytick_6">
     <g id="line2d_15">
      <g>
       <use style="stroke:#000000;stroke-width:0.8;" x="52.8" xlink:href="#mce40099561" y="152.366272"/>
      </g>
     </g>
     <g id="text_16">
      <!-- 20 -->
      <g transform="translate(33.075 156.165491)scale(0.1 -0.1)">
       <use xlink:href="#DejaVuSans-32"/>
       <use x="63.623047" xlink:href="#DejaVuSans-30"/>
      </g>
     </g>
    </g>
    <g id="ytick_7">
     <g id="line2d_16">
      <g>
       <use style="stroke:#000000;stroke-width:0.8;" x="52.8" xlink:href="#mce40099561" y="123.544538"/>
      </g>
     </g>
     <g id="text_17">
      <!-- 30 -->
      <g transform="translate(33.075 127.343757)scale(0.1 -0.1)">
       <use xlink:href="#DejaVuSans-33"/>
       <use x="63.623047" xlink:href="#DejaVuSans-30"/>
      </g>
     </g>
    </g>
    <g id="ytick_8">
     <g id="line2d_17">
      <g>
       <use style="stroke:#000000;stroke-width:0.8;" x="52.8" xlink:href="#mce40099561" y="94.722804"/>
      </g>
     </g>
     <g id="text_18">
      <!-- 40 -->
      <g transform="translate(33.075 98.522022)scale(0.1 -0.1)">
       <use xlink:href="#DejaVuSans-34"/>
       <use x="63.623047" xlink:href="#DejaVuSans-30"/>
      </g>
     </g>
    </g>
    <g id="text_19">
     <!-- y -->
     <defs>
      <path d="M 32.171875 -5.078125 
Q 28.375 -14.84375 24.75 -17.8125 
Q 21.140625 -20.796875 15.09375 -20.796875 
L 7.90625 -20.796875 
L 7.90625 -13.28125 
L 13.1875 -13.28125 
Q 16.890625 -13.28125 18.9375 -11.515625 
Q 21 -9.765625 23.484375 -3.21875 
L 25.09375 0.875 
L 2.984375 54.6875 
L 12.5 54.6875 
L 29.59375 11.921875 
L 46.6875 54.6875 
L 56.203125 54.6875 
z
" id="DejaVuSans-79"/>
     </defs>
     <g transform="translate(18.615625 199.599375)rotate(-90)scale(0.1 -0.1)">
      <use xlink:href="#DejaVuSans-79"/>
     </g>
    </g>
   </g>
   <g id="patch_3">
    <path d="M 52.8 318.2 
L 52.8 75.08 
" style="fill:none;stroke:#000000;stroke-linecap:square;stroke-linejoin:miter;stroke-width:0.8;"/>
   </g>
   <g id="patch_4">
    <path d="M 402.32 318.2 
L 402.32 75.08 
" style="fill:none;stroke:#000000;stroke-linecap:square;stroke-linejoin:miter;stroke-width:0.8;"/>
   </g>
   <g id="patch_5">
    <path d="M 52.8 318.2 
L 402.32 318.2 
" style="fill:none;stroke:#000000;stroke-linecap:square;stroke-linejoin:miter;stroke-width:0.8;"/>
   </g>
   <g id="patch_6">
    <path d="M 52.8 75.08 
L 402.32 75.08 
" style="fill:none;stroke:#000000;stroke-linecap:square;stroke-linejoin:miter;stroke-width:0.8;"/>
   </g>
  </g>
  <g id="axes_2">
   <g id="patch_7">
    <path clip-path="url(#p89cbef69ee)" d="M 160.306799 75.08 
L 194.859176 75.08 
L 194.859176 51.633253 
L 160.306799 51.633253 
z
" style="fill:#1f77b4;opacity:0.4;"/>
   </g>
   <g id="patch_8">
    <path clip-path="url(#p89cbef69ee)" d="M 194.859176 75.08 
L 229.411553 75.08 
L 229.411553 20.370923 
L 194.859176 20.370923 
z
" style="fill:#1f77b4;opacity:0.4;"/>
   </g>
   <g id="patch_9">
    <path clip-path="url(#p89cbef69ee)" d="M 229.411553 75.08 
L 263.96393 75.08 
L 263.96393 59.448835 
L 229.411553 59.448835 
z
" style="fill:#1f77b4;opacity:0.4;"/>
   </g>
   <g id="patch_10">
    <path clip-path="url(#p89cbef69ee)" d="M 263.96393 75.08 
L 298.516308 75.08 
L 298.516308 51.633253 
L 263.96393 51.633253 
z
" style="fill:#1f77b4;opacity:0.4;"/>
   </g>
   <g id="patch_11">
    <path clip-path="url(#p89cbef69ee)" d="M 155.639027 75.08 
L 182.96687 75.08 
L 182.96687 47.287574 
L 155.639027 47.287574 
z
" style="fill:#ff7f0e;opacity:0.4;"/>
   </g>
   <g id="patch_12">
    <path clip-path="url(#p89cbef69ee)" d="M 182.96687 75.08 
L 210.294712 75.08 
L 210.294712 56.551716 
L 182.96687 56.551716 
z
" style="fill:#ff7f0e;opacity:0.4;"/>
   </g>
   <g id="patch_13">
    <path clip-path="url(#p89cbef69ee)" d="M 210.294712 75.08 
L 237.622554 75.08 
L 237.622554 10.231005 
L 210.294712 10.231005 
z
" style="fill:#ff7f0e;opacity:0.4;"/>
   </g>
   <g id="patch_14">
    <path clip-path="url(#p89cbef69ee)" d="M 237.622554 75.08 
L 264.950397 75.08 
L 264.950397 56.551716 
L 237.622554 56.551716 
z
" style="fill:#ff7f0e;opacity:0.4;"/>
   </g>
   <g id="patch_15">
    <path clip-path="url(#p89cbef69ee)" d="M 264.950397 75.08 
L 292.278239 75.08 
L 292.278239 56.551716 
L 264.950397 56.551716 
z
" style="fill:#ff7f0e;opacity:0.4;"/>
   </g>
   <g id="patch_16">
    <path clip-path="url(#p89cbef69ee)" d="M 153.989929 75.08 
L 203.036643 75.08 
L 203.036643 38.947445 
L 153.989929 38.947445 
z
" style="fill:#2ca02c;opacity:0.4;"/>
   </g>
   <g id="patch_17">
    <path clip-path="url(#p89cbef69ee)" d="M 203.036643 75.08 
L 252.083357 75.08 
L 252.083357 59.594619 
L 203.036643 59.594619 
z
" style="fill:#2ca02c;opacity:0.4;"/>
   </g>
   <g id="patch_18">
    <path clip-path="url(#p89cbef69ee)" d="M 252.083357 75.08 
L 301.130071 75.08 
L 301.130071 44.109238 
L 252.083357 44.109238 
z
" style="fill:#2ca02c;opacity:0.4;"/>
   </g>
   <g id="patch_19">
    <path clip-path="url(#p89cbef69ee)" d="M 190.941274 75.08 
L 212.853554 75.08 
L 212.853554 50.431999 
L 190.941274 50.431999 
z
" style="fill:#d62728;opacity:0.4;"/>
   </g>
   <g id="patch_20">
    <path clip-path="url(#p89cbef69ee)" d="M 212.853554 75.08 
L 234.765834 75.08 
L 234.765834 62.756 
L 212.853554 62.756 
z
" style="fill:#d62728;opacity:0.4;"/>
   </g>
   <g id="patch_21">
    <path clip-path="url(#p89cbef69ee)" d="M 234.765834 75.08 
L 256.678115 75.08 
L 256.678115 1.135998 
L 234.765834 1.135998 
z
" style="fill:#d62728;opacity:0.4;"/>
   </g>
   <g id="patch_22">
    <path clip-path="url(#p89cbef69ee)" d="M 256.678115 75.08 
L 278.590395 75.08 
L 278.590395 1.135998 
L 256.678115 1.135998 
z
" style="fill:#d62728;opacity:0.4;"/>
   </g>
   <g id="line2d_18">
    <path clip-path="url(#p89cbef69ee)" d="M 83.711535 74.941476 
L 92.889489 74.829803 
L 102.067443 74.491037 
L 108.950908 74.000179 
L 113.539885 73.513977 
L 118.128862 72.869649 
L 122.717839 72.042815 
L 127.306816 71.014158 
L 131.895793 69.772013 
L 136.48477 68.314139 
L 141.073747 66.64831 
L 145.662724 64.791602 
L 152.54619 61.704128 
L 159.429655 58.348513 
L 180.080051 48.036959 
L 184.669028 46.045848 
L 189.258005 44.318636 
L 193.846982 42.933372 
L 198.435959 41.958497 
L 200.730448 41.641071 
L 203.024936 41.442156 
L 205.319424 41.363043 
L 207.613913 41.402764 
L 212.20289 41.823264 
L 216.791867 42.650879 
L 221.380844 43.802943 
L 228.264309 45.915467 
L 239.736752 49.632515 
L 246.620217 51.602854 
L 253.503682 53.286527 
L 260.387148 54.738373 
L 285.626521 59.779795 
L 292.509987 61.429305 
L 301.68794 63.883229 
L 322.338337 69.634851 
L 329.221802 71.228595 
L 336.105268 72.515161 
L 342.988733 73.476182 
L 349.872198 74.139386 
L 356.755664 74.560673 
L 365.933618 74.853733 
L 375.111572 74.943646 
L 375.111572 74.943646 
" style="fill:none;stroke:#1f77b4;stroke-linecap:square;stroke-width:1.5;"/>
   </g>
   <g id="line2d_19">
    <path clip-path="url(#p89cbef69ee)" d="M 99.908917 74.952188 
L 107.723073 74.812753 
L 113.583689 74.509106 
L 117.490767 74.157135 
L 121.397844 73.638715 
L 125.304922 72.909968 
L 129.212 71.930411 
L 133.119077 70.670958 
L 137.026155 69.122499 
L 140.933233 67.303284 
L 144.84031 65.263049 
L 158.515082 57.717055 
L 162.42216 55.888621 
L 166.329238 54.356499 
L 170.236315 53.137857 
L 174.143393 52.194678 
L 181.957548 50.722586 
L 185.864626 49.898986 
L 189.771704 48.809275 
L 193.678781 47.335162 
L 197.585859 45.426047 
L 201.492937 43.12274 
L 213.21417 35.678117 
L 215.167708 34.717333 
L 217.121247 33.932786 
L 219.074786 33.35401 
L 221.028325 33.004417 
L 222.981864 32.900133 
L 224.935403 33.049213 
L 226.888942 33.451302 
L 228.84248 34.097751 
L 230.796019 34.97217 
L 232.749558 36.051378 
L 234.703097 37.306667 
L 238.610175 40.212064 
L 250.331408 49.625599 
L 254.238485 52.274234 
L 258.145563 54.489047 
L 262.052641 56.263288 
L 265.959718 57.644644 
L 269.866796 58.718119 
L 275.727412 59.983818 
L 283.541568 61.583735 
L 289.402184 63.06002 
L 295.262801 64.874172 
L 303.076956 67.634927 
L 310.891111 70.313584 
L 314.798189 71.464573 
L 318.705267 72.437857 
L 322.612344 73.221314 
L 326.519422 73.821992 
L 332.380039 74.427754 
L 338.240655 74.764393 
L 346.05481 74.943294 
L 348.008349 74.953733 
L 348.008349 74.953733 
" style="fill:none;stroke:#ff7f0e;stroke-linecap:square;stroke-width:1.5;"/>
   </g>
   <g id="line2d_20">
    <path clip-path="url(#p89cbef69ee)" d="M 68.687273 74.981264 
L 81.196936 74.861387 
L 91.204667 74.557739 
L 98.710465 74.119566 
L 106.216263 73.407623 
L 111.220129 72.733531 
L 116.223994 71.867865 
L 121.22786 70.788462 
L 126.231725 69.482097 
L 131.235591 67.948425 
L 136.239456 66.203421 
L 143.745254 63.270494 
L 161.258783 56.125879 
L 166.262649 54.384769 
L 171.266514 52.922032 
L 176.270379 51.788189 
L 181.274245 51.004403 
L 186.27811 50.558891 
L 191.281976 50.407841 
L 196.285841 50.481074 
L 206.293572 50.948969 
L 213.79937 51.246885 
L 221.305168 51.283311 
L 228.810966 51.019315 
L 248.826428 49.917744 
L 253.830293 49.897655 
L 258.834159 50.093276 
L 263.838024 50.537932 
L 268.84189 51.248051 
L 273.845755 52.223685 
L 278.849621 53.449988 
L 283.853486 54.899153 
L 291.359284 57.403911 
L 301.367015 61.099538 
L 311.374746 64.79949 
L 318.880544 67.33164 
L 323.884409 68.830642 
L 328.888275 70.14997 
L 333.89214 71.278716 
L 338.896006 72.217258 
L 343.899871 72.975542 
L 351.405669 73.813719 
L 358.911467 74.359738 
L 366.417266 74.691343 
L 376.424996 74.914202 
L 386.432727 74.982226 
L 386.432727 74.982226 
" style="fill:none;stroke:#2ca02c;stroke-linecap:square;stroke-width:1.5;"/>
   </g>
   <g id="line2d_21">
    <path clip-path="url(#p89cbef69ee)" d="M 150.444512 74.824126 
L 154.428196 74.798566 
L 158.411881 74.589888 
L 162.395566 74.157101 
L 166.37925 73.428304 
L 169.03504 72.742948 
L 171.690829 71.883732 
L 174.346619 70.853264 
L 178.330304 69.034947 
L 188.953462 63.819655 
L 191.609252 62.778814 
L 194.265042 61.942296 
L 196.920831 61.320127 
L 199.576621 60.888241 
L 207.54399 59.915136 
L 210.19978 59.246373 
L 211.527675 58.752699 
L 212.85557 58.12416 
L 214.183464 57.341186 
L 215.511359 56.386889 
L 216.839254 55.248022 
L 218.167149 53.915899 
L 219.495044 52.387224 
L 220.822939 50.664757 
L 223.478728 46.682277 
L 226.134518 42.122368 
L 234.101887 27.776832 
L 236.757677 23.854669 
L 238.085572 22.208669 
L 239.413466 20.798295 
L 240.741361 19.632321 
L 242.069256 18.710845 
L 243.397151 18.025531 
L 244.725046 17.560308 
L 246.052941 17.292496 
L 247.380835 17.194286 
L 250.036625 17.380521 
L 254.02031 18.146873 
L 259.331889 19.176669 
L 263.315574 19.895972 
L 265.971363 20.618695 
L 267.299258 21.1358 
L 268.627153 21.794201 
L 269.955048 22.618848 
L 271.282943 23.630297 
L 272.610838 24.843454 
L 273.938732 26.266646 
L 275.266627 27.901062 
L 276.594522 29.740597 
L 279.250312 33.975753 
L 281.906101 38.793951 
L 291.201365 56.493748 
L 293.857155 60.777964 
L 296.512945 64.430168 
L 299.168734 67.409856 
L 300.496629 68.652456 
L 301.824524 69.739233 
L 304.480314 71.485526 
L 307.136103 72.741385 
L 309.791893 73.60719 
L 312.447683 74.177533 
L 315.103472 74.532612 
L 319.087157 74.791113 
L 319.087157 74.791113 
" style="fill:none;stroke:#d62728;stroke-linecap:square;stroke-width:1.5;"/>
   </g>
  </g>
  <g id="axes_3">
   <g id="patch_23">
    <path clip-path="url(#p6f57236a76)" d="M 402.32 243.866069 
L 448.255271 243.866069 
L 448.255271 213.151341 
L 402.32 213.151341 
z
" style="fill:#1f77b4;opacity:0.4;"/>
   </g>
   <g id="patch_24">
    <path clip-path="url(#p6f57236a76)" d="M 402.32 213.151341 
L 439.068217 213.151341 
L 439.068217 182.436613 
L 402.32 182.436613 
z
" style="fill:#1f77b4;opacity:0.4;"/>
   </g>
   <g id="patch_25">
    <path clip-path="url(#p6f57236a76)" d="M 402.32 182.436613 
L 457.442325 182.436613 
L 457.442325 151.721885 
L 402.32 151.721885 
z
" style="fill:#1f77b4;opacity:0.4;"/>
   </g>
   <g id="patch_26">
    <path clip-path="url(#p6f57236a76)" d="M 402.32 232.910526 
L 442.299251 232.910526 
L 442.299251 206.44262 
L 402.32 206.44262 
z
" style="fill:#ff7f0e;opacity:0.4;"/>
   </g>
   <g id="patch_27">
    <path clip-path="url(#p6f57236a76)" d="M 402.32 206.44262 
L 462.288876 206.44262 
L 462.288876 179.974715 
L 402.32 179.974715 
z
" style="fill:#ff7f0e;opacity:0.4;"/>
   </g>
   <g id="patch_28">
    <path clip-path="url(#p6f57236a76)" d="M 402.32 179.974715 
L 462.288876 179.974715 
L 462.288876 153.506809 
L 402.32 153.506809 
z
" style="fill:#ff7f0e;opacity:0.4;"/>
   </g>
   <g id="patch_29">
    <path clip-path="url(#p6f57236a76)" d="M 402.32 243.658113 
L 452.957417 243.658113 
L 452.957417 196.64 
L 402.32 196.64 
z
" style="fill:#2ca02c;opacity:0.4;"/>
   </g>
   <g id="patch_30">
    <path clip-path="url(#p6f57236a76)" d="M 402.32 196.64 
L 441.704658 196.64 
L 441.704658 149.621887 
L 402.32 149.621887 
z
" style="fill:#2ca02c;opacity:0.4;"/>
   </g>
   <g id="patch_31">
    <path clip-path="url(#p6f57236a76)" d="M 402.32 244.455062 
L 446.95219 244.455062 
L 446.95219 225.488177 
L 402.32 225.488177 
z
" style="fill:#d62728;opacity:0.4;"/>
   </g>
   <g id="patch_32">
    <path clip-path="url(#p6f57236a76)" d="M 402.32 225.488177 
L 521.339173 225.488177 
L 521.339173 206.521292 
L 402.32 206.521292 
z
" style="fill:#d62728;opacity:0.4;"/>
   </g>
   <g id="patch_33">
    <path clip-path="url(#p6f57236a76)" d="M 402.32 206.521292 
L 417.197397 206.521292 
L 417.197397 187.554407 
L 402.32 187.554407 
z
" style="fill:#d62728;opacity:0.4;"/>
   </g>
   <g id="patch_34">
    <path clip-path="url(#p6f57236a76)" d="M 402.32 187.554407 
L 446.95219 187.554407 
L 446.95219 168.587522 
L 402.32 168.587522 
z
" style="fill:#d62728;opacity:0.4;"/>
   </g>
   <g id="line2d_22">
    <path clip-path="url(#p6f57236a76)" d="M 402.484034 298.069574 
L 402.575412 291.753001 
L 402.900631 285.436428 
L 403.386911 280.698998 
L 403.880428 277.540712 
L 404.551473 274.382425 
L 405.439967 271.224139 
L 406.58666 268.065852 
L 408.029841 264.907566 
L 409.801214 261.749279 
L 411.921078 258.590992 
L 414.393103 255.432706 
L 417.199209 252.274419 
L 420.295282 249.116133 
L 425.316293 244.378703 
L 432.122404 238.06213 
L 435.263223 234.903843 
L 438.039706 231.745557 
L 440.330629 228.58727 
L 441.265613 227.008127 
L 442.050916 225.428984 
L 442.683734 223.849841 
L 443.164882 222.270697 
L 443.498866 220.691554 
L 443.693811 219.112411 
L 443.761255 217.533267 
L 443.57469 214.374981 
L 443.083778 211.216694 
L 441.604071 203.320978 
L 441.28733 200.162692 
L 441.25797 197.004405 
L 441.525248 193.846118 
L 442.040648 190.687832 
L 443.959873 181.212972 
L 444.260906 178.054686 
L 444.177507 174.896399 
L 443.962283 173.317256 
L 443.620335 171.738113 
L 443.146498 170.158969 
L 442.538148 168.579826 
L 441.795166 167.000683 
L 440.919843 165.42154 
L 438.792585 162.263253 
L 436.21705 159.104967 
L 433.280676 155.94668 
L 428.434959 151.20925 
L 420.152112 143.313534 
L 417.080484 140.155247 
L 414.272936 136.996961 
L 411.782824 133.838674 
L 409.639003 130.680388 
L 407.847148 127.522101 
L 406.393113 124.363815 
L 405.247663 121.205528 
L 404.371826 118.047242 
L 403.722118 114.888955 
L 403.255062 111.730669 
L 402.810993 106.993239 
L 402.536819 100.676666 
L 402.489843 97.518379 
L 402.489843 97.518379 
" style="fill:none;stroke:#1f77b4;stroke-linecap:square;stroke-width:1.5;"/>
   </g>
   <g id="line2d_23">
    <path clip-path="url(#p6f57236a76)" d="M 402.540504 277.868693 
L 402.730143 272.535778 
L 403.099273 268.536092 
L 403.502529 265.869635 
L 404.072871 263.203177 
L 404.849619 260.53672 
L 405.871147 257.870262 
L 407.169757 255.203805 
L 408.766068 252.537347 
L 410.663793 249.87089 
L 412.845967 247.204432 
L 415.273656 244.537975 
L 419.242126 240.538288 
L 427.400092 232.538916 
L 431.114092 228.53923 
L 434.408282 224.539543 
L 437.289463 220.539857 
L 439.850894 216.540171 
L 443.768424 209.874027 
L 449.292703 200.541426 
L 454.110048 192.542053 
L 456.220756 188.542367 
L 457.352869 185.875909 
L 458.159454 183.209452 
L 458.411491 181.876223 
L 458.547717 180.542994 
L 458.557779 179.209766 
L 458.432371 177.876537 
L 458.163506 176.543308 
L 457.744758 175.210079 
L 457.171475 173.876851 
L 456.440945 172.543622 
L 455.552515 171.210393 
L 454.507662 169.877164 
L 451.965328 167.210707 
L 448.867889 164.544249 
L 445.299619 161.877792 
L 441.369345 159.211334 
L 432.933751 153.878419 
L 424.6095 148.545504 
L 420.783033 145.879047 
L 417.298385 143.212589 
L 414.21203 140.546132 
L 411.553246 137.879674 
L 409.325686 135.213217 
L 407.511018 132.546759 
L 406.074001 129.880302 
L 404.968271 127.213844 
L 404.142073 124.547387 
L 403.543362 121.880929 
L 402.967937 117.881243 
L 402.663985 113.881557 
L 402.533994 108.548642 
L 402.533994 108.548642 
" style="fill:none;stroke:#ff7f0e;stroke-linecap:square;stroke-width:1.5;"/>
   </g>
   <g id="line2d_24">
    <path clip-path="url(#p6f57236a76)" d="M 402.587974 307.149091 
L 402.76279 300.187888 
L 403.125013 294.966986 
L 403.523087 291.486385 
L 404.087627 288.005784 
L 404.859853 284.525183 
L 405.882664 281.044581 
L 407.195992 277.56398 
L 408.831076 274.083379 
L 410.804179 270.602777 
L 413.110623 267.122176 
L 415.720195 263.641575 
L 418.57506 260.160974 
L 430.50107 246.238568 
L 433.040041 242.757967 
L 435.203277 239.277366 
L 436.934833 235.796764 
L 438.212953 232.316163 
L 439.049101 228.835562 
L 439.482508 225.354961 
L 439.571572 221.874359 
L 439.384005 218.393758 
L 438.987758 214.913157 
L 438.134102 209.692255 
L 436.051281 199.250451 
L 434.745233 192.289248 
L 433.967592 187.068346 
L 433.431367 181.847445 
L 433.123114 176.626543 
L 432.60844 166.184739 
L 432.194835 162.704137 
L 431.523003 159.223536 
L 430.529297 155.742935 
L 429.177908 152.262334 
L 427.467425 148.781732 
L 425.432264 145.301131 
L 423.138791 141.82053 
L 418.149213 134.859327 
L 414.456174 129.638425 
L 412.188107 126.157824 
L 410.151234 122.677223 
L 408.383693 119.196621 
L 406.899934 115.71602 
L 405.694018 112.235419 
L 404.744588 108.754817 
L 404.020478 105.274216 
L 403.486091 101.793615 
L 402.963559 96.572713 
L 402.686887 91.351811 
L 402.587601 86.130909 
L 402.587601 86.130909 
" style="fill:none;stroke:#2ca02c;stroke-linecap:square;stroke-width:1.5;"/>
   </g>
   <g id="line2d_25">
    <path clip-path="url(#p6f57236a76)" d="M 402.538565 277.749874 
L 402.643644 274.384744 
L 402.954261 271.019614 
L 403.317944 268.776194 
L 403.848483 266.532774 
L 404.585838 264.289354 
L 405.568946 262.045934 
L 406.831537 259.802514 
L 408.39957 257.559095 
L 410.291558 255.315675 
L 412.522408 253.072255 
L 415.11006 250.828835 
L 418.082776 248.585415 
L 421.483732 246.341995 
L 425.369527 244.098575 
L 429.800362 241.855155 
L 434.822028 239.611735 
L 440.442534 237.368315 
L 446.608414 235.124896 
L 456.564764 231.759766 
L 469.795813 227.272926 
L 475.604416 225.029506 
L 478.137174 223.907796 
L 480.359824 222.786086 
L 482.229814 221.664376 
L 483.709718 220.542666 
L 484.768587 219.420956 
L 485.383185 218.299246 
L 485.539048 217.177536 
L 485.231323 216.055826 
L 484.465336 214.934117 
L 483.256838 213.812407 
L 481.63191 212.690697 
L 479.626488 211.568987 
L 477.285515 210.447277 
L 471.814026 208.203857 
L 450.943657 200.351887 
L 446.320773 198.108467 
L 444.404837 196.986757 
L 442.762406 195.865047 
L 441.388288 194.743337 
L 440.268282 193.621628 
L 439.380454 192.499918 
L 438.696667 191.378208 
L 438.18426 190.256498 
L 437.530628 188.013078 
L 436.45094 182.404528 
L 435.666541 180.161108 
L 434.486837 177.917688 
L 432.871894 175.674268 
L 430.833663 173.430848 
L 428.423804 171.187429 
L 424.295165 167.822299 
L 414.177124 159.970329 
L 411.653626 157.726909 
L 409.443847 155.483489 
L 407.585006 153.240069 
L 406.083695 150.99665 
L 404.920079 148.75323 
L 404.05525 146.50981 
L 403.43991 144.26639 
L 403.022682 142.02297 
L 402.668537 138.65784 
L 402.541501 135.29271 
L 402.541501 135.29271 
" style="fill:none;stroke:#d62728;stroke-linecap:square;stroke-width:1.5;"/>
   </g>
  </g>
  <g id="axes_4">
   <g id="patch_35">
    <path d="M 402.32 75.08 
L 489.7 75.08 
L 489.7 14.3 
L 402.32 14.3 
z
" style="fill:#ffffff;"/>
   </g>
   <g id="matplotlib.axis_3">
    <g id="xtick_10">
     <g id="line2d_26">
      <g>
       <use style="stroke:#000000;stroke-width:0.8;" x="402.32" xlink:href="#m51f3f80a2a" y="75.08"/>
      </g>
     </g>
    </g>
    <g id="xtick_11">
     <g id="line2d_27">
      <g>
       <use style="stroke:#000000;stroke-width:0.8;" x="446.01" xlink:href="#m51f3f80a2a" y="75.08"/>
      </g>
     </g>
    </g>
    <g id="xtick_12">
     <g id="line2d_28">
      <g>
       <use style="stroke:#000000;stroke-width:0.8;" x="489.7" xlink:href="#m51f3f80a2a" y="75.08"/>
      </g>
     </g>
    </g>
   </g>
   <g id="matplotlib.axis_4">
    <g id="ytick_9">
     <g id="line2d_29">
      <g>
       <use style="stroke:#000000;stroke-width:0.8;" x="402.32" xlink:href="#mce40099561" y="75.08"/>
      </g>
     </g>
    </g>
    <g id="ytick_10">
     <g id="line2d_30">
      <g>
       <use style="stroke:#000000;stroke-width:0.8;" x="402.32" xlink:href="#mce40099561" y="44.69"/>
      </g>
     </g>
    </g>
    <g id="ytick_11">
     <g id="line2d_31">
      <g>
       <use style="stroke:#000000;stroke-width:0.8;" x="402.32" xlink:href="#mce40099561" y="14.3"/>
      </g>
     </g>
    </g>
   </g>
   <g id="patch_36">
    <path d="M 402.32 75.08 
L 402.32 14.3 
" style="fill:none;stroke:#000000;stroke-linecap:square;stroke-linejoin:miter;stroke-width:0.8;"/>
   </g>
   <g id="patch_37">
    <path d="M 489.7 75.08 
L 489.7 14.3 
" style="fill:none;stroke:#000000;stroke-linecap:square;stroke-linejoin:miter;stroke-width:0.8;"/>
   </g>
   <g id="patch_38">
    <path d="M 402.32 75.08 
L 489.7 75.08 
" style="fill:none;stroke:#000000;stroke-linecap:square;stroke-linejoin:miter;stroke-width:0.8;"/>
   </g>
   <g id="patch_39">
    <path d="M 402.32 14.3 
L 489.7 14.3 
" style="fill:none;stroke:#000000;stroke-linecap:square;stroke-linejoin:miter;stroke-width:0.8;"/>
   </g>
   <g id="legend_1">
    <g id="patch_40">
     <path d="M 434.796875 81.0125 
L 482.7 81.0125 
Q 484.7 81.0125 484.7 79.0125 
L 484.7 21.3 
Q 484.7 19.3 482.7 19.3 
L 434.796875 19.3 
Q 432.796875 19.3 432.796875 21.3 
L 432.796875 79.0125 
Q 432.796875 81.0125 434.796875 81.0125 
z
" style="fill:#ffffff;opacity:0.8;stroke:#cccccc;stroke-linejoin:miter;"/>
    </g>
    <g id="patch_41">
     <path d="M 436.796875 30.898438 
L 456.796875 30.898438 
L 456.796875 23.898438 
L 436.796875 23.898438 
z
" style="fill:#1f77b4;stroke:#1f77b4;stroke-linejoin:miter;"/>
    </g>
    <g id="text_20">
     <!-- 1.0 -->
     <defs>
      <path d="M 10.6875 12.40625 
L 21 12.40625 
L 21 0 
L 10.6875 0 
z
" id="DejaVuSans-2e"/>
     </defs>
     <g transform="translate(464.796875 30.898438)scale(0.1 -0.1)">
      <use xlink:href="#DejaVuSans-31"/>
      <use x="63.623047" xlink:href="#DejaVuSans-2e"/>
      <use x="95.410156" xlink:href="#DejaVuSans-30"/>
     </g>
    </g>
    <g id="patch_42">
     <path d="M 436.796875 45.576563 
L 456.796875 45.576563 
L 456.796875 38.576563 
L 436.796875 38.576563 
z
" style="fill:#ff7f0e;stroke:#ff7f0e;stroke-linejoin:miter;"/>
    </g>
    <g id="text_21">
     <!-- 0.0 -->
     <g transform="translate(464.796875 45.576563)scale(0.1 -0.1)">
      <use xlink:href="#DejaVuSans-30"/>
      <use x="63.623047" xlink:href="#DejaVuSans-2e"/>
      <use x="95.410156" xlink:href="#DejaVuSans-30"/>
     </g>
    </g>
    <g id="patch_43">
     <path d="M 436.796875 60.254688 
L 456.796875 60.254688 
L 456.796875 53.254688 
L 436.796875 53.254688 
z
" style="fill:#2ca02c;stroke:#2ca02c;stroke-linejoin:miter;"/>
    </g>
    <g id="text_22">
     <!-- 3.0 -->
     <g transform="translate(464.796875 60.254688)scale(0.1 -0.1)">
      <use xlink:href="#DejaVuSans-33"/>
      <use x="63.623047" xlink:href="#DejaVuSans-2e"/>
      <use x="95.410156" xlink:href="#DejaVuSans-30"/>
     </g>
    </g>
    <g id="patch_44">
     <path d="M 436.796875 74.932813 
L 456.796875 74.932813 
L 456.796875 67.932813 
L 436.796875 67.932813 
z
" style="fill:#d62728;stroke:#d62728;stroke-linejoin:miter;"/>
    </g>
    <g id="text_23">
     <!-- 2.0 -->
     <g transform="translate(464.796875 74.932813)scale(0.1 -0.1)">
      <use xlink:href="#DejaVuSans-32"/>
      <use x="63.623047" xlink:href="#DejaVuSans-2e"/>
      <use x="95.410156" xlink:href="#DejaVuSans-30"/>
     </g>
    </g>
   </g>
  </g>
 </g>
 <defs>
  <clipPath id="p6348ddd623">
   <rect height="243.12" width="349.52" x="52.8" y="75.08"/>
  </clipPath>
  <clipPath id="p89cbef69ee">
   <rect height="60.78" width="349.52" x="52.8" y="14.3"/>
  </clipPath>
  <clipPath id="p6f57236a76">
   <rect height="243.12" width="87.38" x="402.32" y="75.08"/>
  </clipPath>
 </defs>
</svg>
