<?xml version="1.0" encoding="utf-8" standalone="no"?>
<!DOCTYPE svg PUBLIC "-//W3C//DTD SVG 1.1//EN"
  "http://www.w3.org/Graphics/SVG/1.1/DTD/svg11.dtd">
<!-- Created with matplotlib (http://matplotlib.org/) -->
<svg height="360pt" version="1.1" viewBox="0 0 504 360" width="504pt" xmlns="http://www.w3.org/2000/svg" xmlns:xlink="http://www.w3.org/1999/xlink">
 <defs>
  <style type="text/css">
*{stroke-linecap:butt;stroke-linejoin:round;}
  </style>
 </defs>
 <g id="figure_1">
  <g id="patch_1">
   <path d="M 0 360 
L 504 360 
L 504 0 
L 0 0 
z
" style="fill:#ffffff;"/>
  </g>
  <g id="axes_1">
   <g id="patch_2">
    <path d="M 52.8 318.2 
L 402.32 318.2 
L 402.32 75.08 
L 52.8 75.08 
z
" style="fill:#ffffff;"/>
   </g>
   <g id="PathCollection_1">
    <defs>
     <path d="M 0 3 
C 0.795609 3 1.55874 2.683901 2.12132 2.12132 
C 2.683901 1.55874 3 0.795609 3 0 
C 3 -0.795609 2.683901 -1.55874 2.12132 -2.12132 
C 1.55874 -2.683901 0.795609 -3 0 -3 
C -0.795609 -3 -1.55874 -2.683901 -2.12132 -2.12132 
C -2.683901 -1.55874 -3 -0.795609 -3 0 
C -3 0.795609 -2.683901 1.55874 -2.12132 2.12132 
C -1.55874 2.683901 -0.795609 3 0 3 
z
" id="m12ce0d9015" style="stroke:#1f77b4;stroke-opacity:0.4;"/>
    </defs>
    <g clip-path="url(#p380fefb3b7)">
     <use style="fill:#1f77b4;fill-opacity:0.4;stroke:#1f77b4;stroke-opacity:0.4;" x="201.602048" xlink:href="#m12ce0d9015" y="102.469836"/>
     <use style="fill:#1f77b4;fill-opacity:0.4;stroke:#1f77b4;stroke-opacity:0.4;" x="207.424805" xlink:href="#m12ce0d9015" y="201.845423"/>
     <use style="fill:#1f77b4;fill-opacity:0.4;stroke:#1f77b4;stroke-opacity:0.4;" x="272.267532" xlink:href="#m12ce0d9015" y="202.496689"/>
     <use style="fill:#1f77b4;fill-opacity:0.4;stroke:#1f77b4;stroke-opacity:0.4;" x="260.022105" xlink:href="#m12ce0d9015" y="195.883939"/>
     <use style="fill:#1f77b4;fill-opacity:0.4;stroke:#1f77b4;stroke-opacity:0.4;" x="191.564063" xlink:href="#m12ce0d9015" y="125.849253"/>
     <use style="fill:#1f77b4;fill-opacity:0.4;stroke:#1f77b4;stroke-opacity:0.4;" x="191.930745" xlink:href="#m12ce0d9015" y="177.01141"/>
     <use style="fill:#1f77b4;fill-opacity:0.4;stroke:#1f77b4;stroke-opacity:0.4;" x="154.650993" xlink:href="#m12ce0d9015" y="189.074116"/>
     <use style="fill:#1f77b4;fill-opacity:0.4;stroke:#1f77b4;stroke-opacity:0.4;" x="188.767946" xlink:href="#m12ce0d9015" y="205.282052"/>
     <use style="fill:#1f77b4;fill-opacity:0.4;stroke:#1f77b4;stroke-opacity:0.4;" x="175.094029" xlink:href="#m12ce0d9015" y="154.02925"/>
     <use style="fill:#1f77b4;fill-opacity:0.4;stroke:#1f77b4;stroke-opacity:0.4;" x="283.419079" xlink:href="#m12ce0d9015" y="120.578117"/>
     <use style="fill:#1f77b4;fill-opacity:0.4;stroke:#1f77b4;stroke-opacity:0.4;" x="298.348709" xlink:href="#m12ce0d9015" y="160.398449"/>
     <use style="fill:#1f77b4;fill-opacity:0.4;stroke:#1f77b4;stroke-opacity:0.4;" x="183.018954" xlink:href="#m12ce0d9015" y="86.186751"/>
     <use style="fill:#1f77b4;fill-opacity:0.4;stroke:#1f77b4;stroke-opacity:0.4;" x="166.683378" xlink:href="#m12ce0d9015" y="261.849545"/>
     <use style="fill:#1f77b4;fill-opacity:0.4;stroke:#1f77b4;stroke-opacity:0.4;" x="234.261026" xlink:href="#m12ce0d9015" y="282.422784"/>
     <use style="fill:#1f77b4;fill-opacity:0.4;stroke:#1f77b4;stroke-opacity:0.4;" x="232.405992" xlink:href="#m12ce0d9015" y="197.70748"/>
    </g>
   </g>
   <g id="PathCollection_2">
    <defs>
     <path d="M 0 3 
C 0.795609 3 1.55874 2.683901 2.12132 2.12132 
C 2.683901 1.55874 3 0.795609 3 0 
C 3 -0.795609 2.683901 -1.55874 2.12132 -2.12132 
C 1.55874 -2.683901 0.795609 -3 0 -3 
C -0.795609 -3 -1.55874 -2.683901 -2.12132 -2.12132 
C -2.683901 -1.55874 -3 -0.795609 -3 0 
C -3 0.795609 -2.683901 1.55874 -2.12132 2.12132 
C -1.55874 2.683901 -0.795609 3 0 3 
z
" id="mc6581d59a0" style="stroke:#ff7f0e;stroke-opacity:0.4;"/>
    </defs>
    <g clip-path="url(#p380fefb3b7)">
     <use style="fill:#ff7f0e;fill-opacity:0.4;stroke:#ff7f0e;stroke-opacity:0.4;" x="214.025724" xlink:href="#mc6581d59a0" y="99.359915"/>
     <use style="fill:#ff7f0e;fill-opacity:0.4;stroke:#ff7f0e;stroke-opacity:0.4;" x="228.071376" xlink:href="#mc6581d59a0" y="104.980313"/>
     <use style="fill:#ff7f0e;fill-opacity:0.4;stroke:#ff7f0e;stroke-opacity:0.4;" x="281.038581" xlink:href="#mc6581d59a0" y="177.394464"/>
     <use style="fill:#ff7f0e;fill-opacity:0.4;stroke:#ff7f0e;stroke-opacity:0.4;" x="206.983645" xlink:href="#mc6581d59a0" y="126.388666"/>
     <use style="fill:#ff7f0e;fill-opacity:0.4;stroke:#ff7f0e;stroke-opacity:0.4;" x="285.47592" xlink:href="#mc6581d59a0" y="209.979603"/>
     <use style="fill:#ff7f0e;fill-opacity:0.4;stroke:#ff7f0e;stroke-opacity:0.4;" x="269.375629" xlink:href="#mc6581d59a0" y="118.928211"/>
     <use style="fill:#ff7f0e;fill-opacity:0.4;stroke:#ff7f0e;stroke-opacity:0.4;" x="233.730323" xlink:href="#mc6581d59a0" y="141.553974"/>
     <use style="fill:#ff7f0e;fill-opacity:0.4;stroke:#ff7f0e;stroke-opacity:0.4;" x="235.77341" xlink:href="#mc6581d59a0" y="170.418774"/>
     <use style="fill:#ff7f0e;fill-opacity:0.4;stroke:#ff7f0e;stroke-opacity:0.4;" x="254.456003" xlink:href="#mc6581d59a0" y="167.055643"/>
     <use style="fill:#ff7f0e;fill-opacity:0.4;stroke:#ff7f0e;stroke-opacity:0.4;" x="244.618553" xlink:href="#mc6581d59a0" y="154.462931"/>
     <use style="fill:#ff7f0e;fill-opacity:0.4;stroke:#ff7f0e;stroke-opacity:0.4;" x="274.81938" xlink:href="#mc6581d59a0" y="148.745655"/>
     <use style="fill:#ff7f0e;fill-opacity:0.4;stroke:#ff7f0e;stroke-opacity:0.4;" x="161.57573" xlink:href="#mc6581d59a0" y="154.799874"/>
     <use style="fill:#ff7f0e;fill-opacity:0.4;stroke:#ff7f0e;stroke-opacity:0.4;" x="308.009" xlink:href="#mc6581d59a0" y="140.27044"/>
     <use style="fill:#ff7f0e;fill-opacity:0.4;stroke:#ff7f0e;stroke-opacity:0.4;" x="307.257418" xlink:href="#mc6581d59a0" y="179.415726"/>
     <use style="fill:#ff7f0e;fill-opacity:0.4;stroke:#ff7f0e;stroke-opacity:0.4;" x="245.090122" xlink:href="#mc6581d59a0" y="274.257956"/>
     <use style="fill:#ff7f0e;fill-opacity:0.4;stroke:#ff7f0e;stroke-opacity:0.4;" x="176.766217" xlink:href="#mc6581d59a0" y="205.358587"/>
    </g>
   </g>
   <g id="PathCollection_3">
    <defs>
     <path d="M 0 3 
C 0.795609 3 1.55874 2.683901 2.12132 2.12132 
C 2.683901 1.55874 3 0.795609 3 0 
C 3 -0.795609 2.683901 -1.55874 2.12132 -2.12132 
C 1.55874 -2.683901 0.795609 -3 0 -3 
C -0.795609 -3 -1.55874 -2.683901 -2.12132 -2.12132 
C -2.683901 -1.55874 -3 -0.795609 -3 0 
C -3 0.795609 -2.683901 1.55874 -2.12132 2.12132 
C -1.55874 2.683901 -0.795609 3 0 3 
z
" id="mead34bf7d3" style="stroke:#2ca02c;stroke-opacity:0.4;"/>
    </defs>
    <g clip-path="url(#p380fefb3b7)">
     <use style="fill:#2ca02c;fill-opacity:0.4;stroke:#2ca02c;stroke-opacity:0.4;" x="286.702701" xlink:href="#mead34bf7d3" y="151.922957"/>
     <use style="fill:#2ca02c;fill-opacity:0.4;stroke:#2ca02c;stroke-opacity:0.4;" x="264.0933" xlink:href="#mead34bf7d3" y="147.051585"/>
     <use style="fill:#2ca02c;fill-opacity:0.4;stroke:#2ca02c;stroke-opacity:0.4;" x="268.146342" xlink:href="#mead34bf7d3" y="173.476893"/>
     <use style="fill:#2ca02c;fill-opacity:0.4;stroke:#2ca02c;stroke-opacity:0.4;" x="291.738696" xlink:href="#mead34bf7d3" y="181.866748"/>
     <use style="fill:#2ca02c;fill-opacity:0.4;stroke:#2ca02c;stroke-opacity:0.4;" x="298.633048" xlink:href="#mead34bf7d3" y="206.062549"/>
     <use style="fill:#2ca02c;fill-opacity:0.4;stroke:#2ca02c;stroke-opacity:0.4;" x="199.02101" xlink:href="#mead34bf7d3" y="149.404861"/>
     <use style="fill:#2ca02c;fill-opacity:0.4;stroke:#2ca02c;stroke-opacity:0.4;" x="218.310935" xlink:href="#mead34bf7d3" y="184.209467"/>
     <use style="fill:#2ca02c;fill-opacity:0.4;stroke:#2ca02c;stroke-opacity:0.4;" x="166.329399" xlink:href="#mead34bf7d3" y="184.69535"/>
     <use style="fill:#2ca02c;fill-opacity:0.4;stroke:#2ca02c;stroke-opacity:0.4;" x="164.175019" xlink:href="#mead34bf7d3" y="218.950605"/>
     <use style="fill:#2ca02c;fill-opacity:0.4;stroke:#2ca02c;stroke-opacity:0.4;" x="295.459218" xlink:href="#mead34bf7d3" y="133.222317"/>
     <use style="fill:#2ca02c;fill-opacity:0.4;stroke:#2ca02c;stroke-opacity:0.4;" x="296.153149" xlink:href="#mead34bf7d3" y="104.532308"/>
     <use style="fill:#2ca02c;fill-opacity:0.4;stroke:#2ca02c;stroke-opacity:0.4;" x="205.021607" xlink:href="#mead34bf7d3" y="174.450032"/>
     <use style="fill:#2ca02c;fill-opacity:0.4;stroke:#2ca02c;stroke-opacity:0.4;" x="175.894942" xlink:href="#mead34bf7d3" y="249.814099"/>
     <use style="fill:#2ca02c;fill-opacity:0.4;stroke:#2ca02c;stroke-opacity:0.4;" x="235.031947" xlink:href="#mead34bf7d3" y="256.577626"/>
     <use style="fill:#2ca02c;fill-opacity:0.4;stroke:#2ca02c;stroke-opacity:0.4;" x="240.852232" xlink:href="#mead34bf7d3" y="302.604438"/>
     <use style="fill:#2ca02c;fill-opacity:0.4;stroke:#2ca02c;stroke-opacity:0.4;" x="227.779711" xlink:href="#mead34bf7d3" y="304.1692"/>
    </g>
   </g>
   <g id="PathCollection_4">
    <defs>
     <path d="M 0 3 
C 0.795609 3 1.55874 2.683901 2.12132 2.12132 
C 2.683901 1.55874 3 0.795609 3 0 
C 3 -0.795609 2.683901 -1.55874 2.12132 -2.12132 
C 1.55874 -2.683901 0.795609 -3 0 -3 
C -0.795609 -3 -1.55874 -2.683901 -2.12132 -2.12132 
C -2.683901 -1.55874 -3 -0.795609 -3 0 
C -3 0.795609 -2.683901 1.55874 -2.12132 2.12132 
C -1.55874 2.683901 -0.795609 3 0 3 
z
" id="md010cde33e" style="stroke:#d62728;stroke-opacity:0.4;"/>
    </defs>
    <g clip-path="url(#p380fefb3b7)">
     <use style="fill:#d62728;fill-opacity:0.4;stroke:#d62728;stroke-opacity:0.4;" x="246.108144" xlink:href="#md010cde33e" y="189.228282"/>
     <use style="fill:#d62728;fill-opacity:0.4;stroke:#d62728;stroke-opacity:0.4;" x="253.672185" xlink:href="#md010cde33e" y="133.146069"/>
     <use style="fill:#d62728;fill-opacity:0.4;stroke:#d62728;stroke-opacity:0.4;" x="210.925794" xlink:href="#md010cde33e" y="153.219078"/>
     <use style="fill:#d62728;fill-opacity:0.4;stroke:#d62728;stroke-opacity:0.4;" x="221.166775" xlink:href="#md010cde33e" y="157.672236"/>
     <use style="fill:#d62728;fill-opacity:0.4;stroke:#d62728;stroke-opacity:0.4;" x="142.522169" xlink:href="#md010cde33e" y="227.537858"/>
     <use style="fill:#d62728;fill-opacity:0.4;stroke:#d62728;stroke-opacity:0.4;" x="147.220967" xlink:href="#md010cde33e" y="166.261056"/>
     <use style="fill:#d62728;fill-opacity:0.4;stroke:#d62728;stroke-opacity:0.4;" x="153.808446" xlink:href="#md010cde33e" y="243.465917"/>
     <use style="fill:#d62728;fill-opacity:0.4;stroke:#d62728;stroke-opacity:0.4;" x="142.681997" xlink:href="#md010cde33e" y="195.343207"/>
     <use style="fill:#d62728;fill-opacity:0.4;stroke:#d62728;stroke-opacity:0.4;" x="153.306517" xlink:href="#md010cde33e" y="214.68604"/>
     <use style="fill:#d62728;fill-opacity:0.4;stroke:#d62728;stroke-opacity:0.4;" x="179.927658" xlink:href="#md010cde33e" y="178.450808"/>
     <use style="fill:#d62728;fill-opacity:0.4;stroke:#d62728;stroke-opacity:0.4;" x="178.177252" xlink:href="#md010cde33e" y="127.514735"/>
     <use style="fill:#d62728;fill-opacity:0.4;stroke:#d62728;stroke-opacity:0.4;" x="186.948098" xlink:href="#md010cde33e" y="151.78479"/>
     <use style="fill:#d62728;fill-opacity:0.4;stroke:#d62728;stroke-opacity:0.4;" x="242.315251" xlink:href="#md010cde33e" y="121.195706"/>
     <use style="fill:#d62728;fill-opacity:0.4;stroke:#d62728;stroke-opacity:0.4;" x="223.616143" xlink:href="#md010cde33e" y="275.440197"/>
     <use style="fill:#d62728;fill-opacity:0.4;stroke:#d62728;stroke-opacity:0.4;" x="218.310114" xlink:href="#md010cde33e" y="128.454326"/>
    </g>
   </g>
   <g id="matplotlib.axis_1">
    <g id="xtick_1">
     <g id="line2d_1">
      <defs>
       <path d="M 0 0 
L 0 3.5 
" id="m4632353f89" style="stroke:#000000;stroke-width:0.8;"/>
      </defs>
      <g>
       <use style="stroke:#000000;stroke-width:0.8;" x="65.508172" xlink:href="#m4632353f89" y="318.2"/>
      </g>
     </g>
     <g id="text_1">
      <!-- −100 -->
      <defs>
       <path d="M 10.59375 35.5 
L 73.1875 35.5 
L 73.1875 27.203125 
L 10.59375 27.203125 
z
" id="DejaVuSans-2212"/>
       <path d="M 12.40625 8.296875 
L 28.515625 8.296875 
L 28.515625 63.921875 
L 10.984375 60.40625 
L 10.984375 69.390625 
L 28.421875 72.90625 
L 38.28125 72.90625 
L 38.28125 8.296875 
L 54.390625 8.296875 
L 54.390625 0 
L 12.40625 0 
z
" id="DejaVuSans-31"/>
       <path d="M 31.78125 66.40625 
Q 24.171875 66.40625 20.328125 58.90625 
Q 16.5 51.421875 16.5 36.375 
Q 16.5 21.390625 20.328125 13.890625 
Q 24.171875 6.390625 31.78125 6.390625 
Q 39.453125 6.390625 43.28125 13.890625 
Q 47.125 21.390625 47.125 36.375 
Q 47.125 51.421875 43.28125 58.90625 
Q 39.453125 66.40625 31.78125 66.40625 
z
M 31.78125 74.21875 
Q 44.046875 74.21875 50.515625 64.515625 
Q 56.984375 54.828125 56.984375 36.375 
Q 56.984375 17.96875 50.515625 8.265625 
Q 44.046875 -1.421875 31.78125 -1.421875 
Q 19.53125 -1.421875 13.0625 8.265625 
Q 6.59375 17.96875 6.59375 36.375 
Q 6.59375 54.828125 13.0625 64.515625 
Q 19.53125 74.21875 31.78125 74.21875 
z
" id="DejaVuSans-30"/>
      </defs>
      <g transform="translate(51.774578 332.798437)scale(0.1 -0.1)">
       <use xlink:href="#DejaVuSans-2212"/>
       <use x="83.789062" xlink:href="#DejaVuSans-31"/>
       <use x="147.412109" xlink:href="#DejaVuSans-30"/>
       <use x="211.035156" xlink:href="#DejaVuSans-30"/>
      </g>
     </g>
    </g>
    <g id="xtick_2">
     <g id="line2d_2">
      <g>
       <use style="stroke:#000000;stroke-width:0.8;" x="106.348965" xlink:href="#m4632353f89" y="318.2"/>
      </g>
     </g>
     <g id="text_2">
      <!-- −75 -->
      <defs>
       <path d="M 8.203125 72.90625 
L 55.078125 72.90625 
L 55.078125 68.703125 
L 28.609375 0 
L 18.3125 0 
L 43.21875 64.59375 
L 8.203125 64.59375 
z
" id="DejaVuSans-37"/>
       <path d="M 10.796875 72.90625 
L 49.515625 72.90625 
L 49.515625 64.59375 
L 19.828125 64.59375 
L 19.828125 46.734375 
Q 21.96875 47.46875 24.109375 47.828125 
Q 26.265625 48.1875 28.421875 48.1875 
Q 40.625 48.1875 47.75 41.5 
Q 54.890625 34.8125 54.890625 23.390625 
Q 54.890625 11.625 47.5625 5.09375 
Q 40.234375 -1.421875 26.90625 -1.421875 
Q 22.3125 -1.421875 17.546875 -0.640625 
Q 12.796875 0.140625 7.71875 1.703125 
L 7.71875 11.625 
Q 12.109375 9.234375 16.796875 8.0625 
Q 21.484375 6.890625 26.703125 6.890625 
Q 35.15625 6.890625 40.078125 11.328125 
Q 45.015625 15.765625 45.015625 23.390625 
Q 45.015625 31 40.078125 35.4375 
Q 35.15625 39.890625 26.703125 39.890625 
Q 22.75 39.890625 18.8125 39.015625 
Q 14.890625 38.140625 10.796875 36.28125 
z
" id="DejaVuSans-35"/>
      </defs>
      <g transform="translate(95.796621 332.798437)scale(0.1 -0.1)">
       <use xlink:href="#DejaVuSans-2212"/>
       <use x="83.789062" xlink:href="#DejaVuSans-37"/>
       <use x="147.412109" xlink:href="#DejaVuSans-35"/>
      </g>
     </g>
    </g>
    <g id="xtick_3">
     <g id="line2d_3">
      <g>
       <use style="stroke:#000000;stroke-width:0.8;" x="147.189758" xlink:href="#m4632353f89" y="318.2"/>
      </g>
     </g>
     <g id="text_3">
      <!-- −50 -->
      <g transform="translate(136.637414 332.798437)scale(0.1 -0.1)">
       <use xlink:href="#DejaVuSans-2212"/>
       <use x="83.789062" xlink:href="#DejaVuSans-35"/>
       <use x="147.412109" xlink:href="#DejaVuSans-30"/>
      </g>
     </g>
    </g>
    <g id="xtick_4">
     <g id="line2d_4">
      <g>
       <use style="stroke:#000000;stroke-width:0.8;" x="188.030551" xlink:href="#m4632353f89" y="318.2"/>
      </g>
     </g>
     <g id="text_4">
      <!-- −25 -->
      <defs>
       <path d="M 19.1875 8.296875 
L 53.609375 8.296875 
L 53.609375 0 
L 7.328125 0 
L 7.328125 8.296875 
Q 12.9375 14.109375 22.625 23.890625 
Q 32.328125 33.6875 34.8125 36.53125 
Q 39.546875 41.84375 41.421875 45.53125 
Q 43.3125 49.21875 43.3125 52.78125 
Q 43.3125 58.59375 39.234375 62.25 
Q 35.15625 65.921875 28.609375 65.921875 
Q 23.96875 65.921875 18.8125 64.3125 
Q 13.671875 62.703125 7.8125 59.421875 
L 7.8125 69.390625 
Q 13.765625 71.78125 18.9375 73 
Q 24.125 74.21875 28.421875 74.21875 
Q 39.75 74.21875 46.484375 68.546875 
Q 53.21875 62.890625 53.21875 53.421875 
Q 53.21875 48.921875 51.53125 44.890625 
Q 49.859375 40.875 45.40625 35.40625 
Q 44.1875 33.984375 37.640625 27.21875 
Q 31.109375 20.453125 19.1875 8.296875 
z
" id="DejaVuSans-32"/>
      </defs>
      <g transform="translate(177.478207 332.798437)scale(0.1 -0.1)">
       <use xlink:href="#DejaVuSans-2212"/>
       <use x="83.789062" xlink:href="#DejaVuSans-32"/>
       <use x="147.412109" xlink:href="#DejaVuSans-35"/>
      </g>
     </g>
    </g>
    <g id="xtick_5">
     <g id="line2d_5">
      <g>
       <use style="stroke:#000000;stroke-width:0.8;" x="228.871344" xlink:href="#m4632353f89" y="318.2"/>
      </g>
     </g>
     <g id="text_5">
      <!-- 0 -->
      <g transform="translate(225.690094 332.798437)scale(0.1 -0.1)">
       <use xlink:href="#DejaVuSans-30"/>
      </g>
     </g>
    </g>
    <g id="xtick_6">
     <g id="line2d_6">
      <g>
       <use style="stroke:#000000;stroke-width:0.8;" x="269.712138" xlink:href="#m4632353f89" y="318.2"/>
      </g>
     </g>
     <g id="text_6">
      <!-- 25 -->
      <g transform="translate(263.349638 332.798437)scale(0.1 -0.1)">
       <use xlink:href="#DejaVuSans-32"/>
       <use x="63.623047" xlink:href="#DejaVuSans-35"/>
      </g>
     </g>
    </g>
    <g id="xtick_7">
     <g id="line2d_7">
      <g>
       <use style="stroke:#000000;stroke-width:0.8;" x="310.552931" xlink:href="#m4632353f89" y="318.2"/>
      </g>
     </g>
     <g id="text_7">
      <!-- 50 -->
      <g transform="translate(304.190431 332.798437)scale(0.1 -0.1)">
       <use xlink:href="#DejaVuSans-35"/>
       <use x="63.623047" xlink:href="#DejaVuSans-30"/>
      </g>
     </g>
    </g>
    <g id="xtick_8">
     <g id="line2d_8">
      <g>
       <use style="stroke:#000000;stroke-width:0.8;" x="351.393724" xlink:href="#m4632353f89" y="318.2"/>
      </g>
     </g>
     <g id="text_8">
      <!-- 75 -->
      <g transform="translate(345.031224 332.798437)scale(0.1 -0.1)">
       <use xlink:href="#DejaVuSans-37"/>
       <use x="63.623047" xlink:href="#DejaVuSans-35"/>
      </g>
     </g>
    </g>
    <g id="xtick_9">
     <g id="line2d_9">
      <g>
       <use style="stroke:#000000;stroke-width:0.8;" x="392.234517" xlink:href="#m4632353f89" y="318.2"/>
      </g>
     </g>
     <g id="text_9">
      <!-- 100 -->
      <g transform="translate(382.690767 332.798437)scale(0.1 -0.1)">
       <use xlink:href="#DejaVuSans-31"/>
       <use x="63.623047" xlink:href="#DejaVuSans-30"/>
       <use x="127.246094" xlink:href="#DejaVuSans-30"/>
      </g>
     </g>
    </g>
    <g id="text_10">
     <!-- x -->
     <defs>
      <path d="M 54.890625 54.6875 
L 35.109375 28.078125 
L 55.90625 0 
L 45.3125 0 
L 29.390625 21.484375 
L 13.484375 0 
L 2.875 0 
L 24.125 28.609375 
L 4.6875 54.6875 
L 15.28125 54.6875 
L 29.78125 35.203125 
L 44.28125 54.6875 
z
" id="DejaVuSans-78"/>
     </defs>
     <g transform="translate(224.600625 346.476562)scale(0.1 -0.1)">
      <use xlink:href="#DejaVuSans-78"/>
     </g>
    </g>
   </g>
   <g id="matplotlib.axis_2">
    <g id="ytick_1">
     <g id="line2d_10">
      <defs>
       <path d="M 0 0 
L -3.5 0 
" id="mb5b4540bb8" style="stroke:#000000;stroke-width:0.8;"/>
      </defs>
      <g>
       <use style="stroke:#000000;stroke-width:0.8;" x="52.8" xlink:href="#mb5b4540bb8" y="308.533275"/>
      </g>
     </g>
     <g id="text_11">
      <!-- −50 -->
      <g transform="translate(24.695313 312.332493)scale(0.1 -0.1)">
       <use xlink:href="#DejaVuSans-2212"/>
       <use x="83.789062" xlink:href="#DejaVuSans-35"/>
       <use x="147.412109" xlink:href="#DejaVuSans-30"/>
      </g>
     </g>
    </g>
    <g id="ytick_2">
     <g id="line2d_11">
      <g>
       <use style="stroke:#000000;stroke-width:0.8;" x="52.8" xlink:href="#mb5b4540bb8" y="268.058769"/>
      </g>
     </g>
     <g id="text_12">
      <!-- −40 -->
      <defs>
       <path d="M 37.796875 64.3125 
L 12.890625 25.390625 
L 37.796875 25.390625 
z
M 35.203125 72.90625 
L 47.609375 72.90625 
L 47.609375 25.390625 
L 58.015625 25.390625 
L 58.015625 17.1875 
L 47.609375 17.1875 
L 47.609375 0 
L 37.796875 0 
L 37.796875 17.1875 
L 4.890625 17.1875 
L 4.890625 26.703125 
z
" id="DejaVuSans-34"/>
      </defs>
      <g transform="translate(24.695313 271.857987)scale(0.1 -0.1)">
       <use xlink:href="#DejaVuSans-2212"/>
       <use x="83.789062" xlink:href="#DejaVuSans-34"/>
       <use x="147.412109" xlink:href="#DejaVuSans-30"/>
      </g>
     </g>
    </g>
    <g id="ytick_3">
     <g id="line2d_12">
      <g>
       <use style="stroke:#000000;stroke-width:0.8;" x="52.8" xlink:href="#mb5b4540bb8" y="227.584262"/>
      </g>
     </g>
     <g id="text_13">
      <!-- −30 -->
      <defs>
       <path d="M 40.578125 39.3125 
Q 47.65625 37.796875 51.625 33 
Q 55.609375 28.21875 55.609375 21.1875 
Q 55.609375 10.40625 48.1875 4.484375 
Q 40.765625 -1.421875 27.09375 -1.421875 
Q 22.515625 -1.421875 17.65625 -0.515625 
Q 12.796875 0.390625 7.625 2.203125 
L 7.625 11.71875 
Q 11.71875 9.328125 16.59375 8.109375 
Q 21.484375 6.890625 26.8125 6.890625 
Q 36.078125 6.890625 40.9375 10.546875 
Q 45.796875 14.203125 45.796875 21.1875 
Q 45.796875 27.640625 41.28125 31.265625 
Q 36.765625 34.90625 28.71875 34.90625 
L 20.21875 34.90625 
L 20.21875 43.015625 
L 29.109375 43.015625 
Q 36.375 43.015625 40.234375 45.921875 
Q 44.09375 48.828125 44.09375 54.296875 
Q 44.09375 59.90625 40.109375 62.90625 
Q 36.140625 65.921875 28.71875 65.921875 
Q 24.65625 65.921875 20.015625 65.03125 
Q 15.375 64.15625 9.8125 62.3125 
L 9.8125 71.09375 
Q 15.4375 72.65625 20.34375 73.4375 
Q 25.25 74.21875 29.59375 74.21875 
Q 40.828125 74.21875 47.359375 69.109375 
Q 53.90625 64.015625 53.90625 55.328125 
Q 53.90625 49.265625 50.4375 45.09375 
Q 46.96875 40.921875 40.578125 39.3125 
z
" id="DejaVuSans-33"/>
      </defs>
      <g transform="translate(24.695313 231.383481)scale(0.1 -0.1)">
       <use xlink:href="#DejaVuSans-2212"/>
       <use x="83.789062" xlink:href="#DejaVuSans-33"/>
       <use x="147.412109" xlink:href="#DejaVuSans-30"/>
      </g>
     </g>
    </g>
    <g id="ytick_4">
     <g id="line2d_13">
      <g>
       <use style="stroke:#000000;stroke-width:0.8;" x="52.8" xlink:href="#mb5b4540bb8" y="187.109756"/>
      </g>
     </g>
     <g id="text_14">
      <!-- −20 -->
      <g transform="translate(24.695313 190.908975)scale(0.1 -0.1)">
       <use xlink:href="#DejaVuSans-2212"/>
       <use x="83.789062" xlink:href="#DejaVuSans-32"/>
       <use x="147.412109" xlink:href="#DejaVuSans-30"/>
      </g>
     </g>
    </g>
    <g id="ytick_5">
     <g id="line2d_14">
      <g>
       <use style="stroke:#000000;stroke-width:0.8;" x="52.8" xlink:href="#mb5b4540bb8" y="146.63525"/>
      </g>
     </g>
     <g id="text_15">
      <!-- −10 -->
      <g transform="translate(24.695313 150.434469)scale(0.1 -0.1)">
       <use xlink:href="#DejaVuSans-2212"/>
       <use x="83.789062" xlink:href="#DejaVuSans-31"/>
       <use x="147.412109" xlink:href="#DejaVuSans-30"/>
      </g>
     </g>
    </g>
    <g id="ytick_6">
     <g id="line2d_15">
      <g>
       <use style="stroke:#000000;stroke-width:0.8;" x="52.8" xlink:href="#mb5b4540bb8" y="106.160744"/>
      </g>
     </g>
     <g id="text_16">
      <!-- 0 -->
      <g transform="translate(39.4375 109.959963)scale(0.1 -0.1)">
       <use xlink:href="#DejaVuSans-30"/>
      </g>
     </g>
    </g>
    <g id="text_17">
     <!-- y -->
     <defs>
      <path d="M 32.171875 -5.078125 
Q 28.375 -14.84375 24.75 -17.8125 
Q 21.140625 -20.796875 15.09375 -20.796875 
L 7.90625 -20.796875 
L 7.90625 -13.28125 
L 13.1875 -13.28125 
Q 16.890625 -13.28125 18.9375 -11.515625 
Q 21 -9.765625 23.484375 -3.21875 
L 25.09375 0.875 
L 2.984375 54.6875 
L 12.5 54.6875 
L 29.59375 11.921875 
L 46.6875 54.6875 
L 56.203125 54.6875 
z
" id="DejaVuSans-79"/>
     </defs>
     <g transform="translate(18.615625 199.599375)rotate(-90)scale(0.1 -0.1)">
      <use xlink:href="#DejaVuSans-79"/>
     </g>
    </g>
   </g>
   <g id="patch_3">
    <path d="M 52.8 318.2 
L 52.8 75.08 
" style="fill:none;stroke:#000000;stroke-linecap:square;stroke-linejoin:miter;stroke-width:0.8;"/>
   </g>
   <g id="patch_4">
    <path d="M 402.32 318.2 
L 402.32 75.08 
" style="fill:none;stroke:#000000;stroke-linecap:square;stroke-linejoin:miter;stroke-width:0.8;"/>
   </g>
   <g id="patch_5">
    <path d="M 52.8 318.2 
L 402.32 318.2 
" style="fill:none;stroke:#000000;stroke-linecap:square;stroke-linejoin:miter;stroke-width:0.8;"/>
   </g>
   <g id="patch_6">
    <path d="M 52.8 75.08 
L 402.32 75.08 
" style="fill:none;stroke:#000000;stroke-linecap:square;stroke-linejoin:miter;stroke-width:0.8;"/>
   </g>
  </g>
  <g id="axes_2">
   <g id="patch_7">
    <path clip-path="url(#pc013a52081)" d="M 154.650993 75.08 
L 202.550231 75.08 
L 202.550231 17.194286 
L 154.650993 17.194286 
z
" style="fill:#1f77b4;opacity:0.4;"/>
   </g>
   <g id="patch_8">
    <path clip-path="url(#pc013a52081)" d="M 202.550231 75.08 
L 250.44947 75.08 
L 250.44947 53.372857 
L 202.550231 53.372857 
z
" style="fill:#1f77b4;opacity:0.4;"/>
   </g>
   <g id="patch_9">
    <path clip-path="url(#pc013a52081)" d="M 250.44947 75.08 
L 298.348709 75.08 
L 298.348709 46.137143 
L 250.44947 46.137143 
z
" style="fill:#1f77b4;opacity:0.4;"/>
   </g>
   <g id="patch_10">
    <path clip-path="url(#pc013a52081)" d="M 161.57573 75.08 
L 198.184048 75.08 
L 198.184048 57.328644 
L 161.57573 57.328644 
z
" style="fill:#ff7f0e;opacity:0.4;"/>
   </g>
   <g id="patch_11">
    <path clip-path="url(#pc013a52081)" d="M 198.184048 75.08 
L 234.792365 75.08 
L 234.792365 39.577289 
L 198.184048 39.577289 
z
" style="fill:#ff7f0e;opacity:0.4;"/>
   </g>
   <g id="patch_12">
    <path clip-path="url(#pc013a52081)" d="M 234.792365 75.08 
L 271.400682 75.08 
L 271.400682 30.701611 
L 234.792365 30.701611 
z
" style="fill:#ff7f0e;opacity:0.4;"/>
   </g>
   <g id="patch_13">
    <path clip-path="url(#pc013a52081)" d="M 271.400682 75.08 
L 308.009 75.08 
L 308.009 30.701611 
L 271.400682 30.701611 
z
" style="fill:#ff7f0e;opacity:0.4;"/>
   </g>
   <g id="patch_14">
    <path clip-path="url(#pc013a52081)" d="M 164.175019 75.08 
L 208.994362 75.08 
L 208.994362 38.831853 
L 164.175019 38.831853 
z
" style="fill:#2ca02c;opacity:0.4;"/>
   </g>
   <g id="patch_15">
    <path clip-path="url(#pc013a52081)" d="M 208.994362 75.08 
L 253.813705 75.08 
L 253.813705 46.081482 
L 208.994362 46.081482 
z
" style="fill:#2ca02c;opacity:0.4;"/>
   </g>
   <g id="patch_16">
    <path clip-path="url(#pc013a52081)" d="M 253.813705 75.08 
L 298.633048 75.08 
L 298.633048 24.332594 
L 253.813705 24.332594 
z
" style="fill:#2ca02c;opacity:0.4;"/>
   </g>
   <g id="patch_17">
    <path clip-path="url(#pc013a52081)" d="M 142.522169 75.08 
L 198.097177 75.08 
L 198.097177 25.189199 
L 142.522169 25.189199 
z
" style="fill:#d62728;opacity:0.4;"/>
   </g>
   <g id="patch_18">
    <path clip-path="url(#pc013a52081)" d="M 198.097177 75.08 
L 253.672185 75.08 
L 253.672185 31.425549 
L 198.097177 31.425549 
z
" style="fill:#d62728;opacity:0.4;"/>
   </g>
   <g id="line2d_16">
    <path clip-path="url(#pc013a52081)" d="M 71.709169 74.942999 
L 81.459764 74.828322 
L 88.772709 74.593733 
L 96.085655 74.153697 
L 100.960952 73.694102 
L 105.836249 73.056005 
L 110.711546 72.19556 
L 115.586843 71.067683 
L 120.46214 69.630002 
L 125.337437 67.847734 
L 130.212734 65.699148 
L 135.088031 63.181125 
L 139.963328 60.314137 
L 144.838625 57.14593 
L 152.151571 52.004199 
L 161.902165 45.030312 
L 166.777462 41.809066 
L 171.652759 38.961408 
L 174.090407 37.720098 
L 176.528056 36.620109 
L 178.965704 35.673601 
L 181.403353 34.890268 
L 183.841002 34.277049 
L 186.27865 33.83793 
L 188.716299 33.573819 
L 191.153947 33.482515 
L 193.591596 33.558769 
L 196.029244 33.794441 
L 198.466893 34.17874 
L 200.904541 34.698548 
L 205.779838 36.082933 
L 210.655135 37.811831 
L 217.968081 40.735824 
L 225.281026 43.659996 
L 230.156323 45.436743 
L 235.031621 46.999202 
L 239.906918 48.319412 
L 244.782215 49.400506 
L 249.657512 50.27228 
L 256.970457 51.302025 
L 271.596348 53.201392 
L 276.471645 54.02835 
L 281.346942 55.031346 
L 286.22224 56.229579 
L 291.097537 57.620109 
L 298.410482 60.00848 
L 322.786967 68.461503 
L 327.662264 69.83828 
L 332.537561 71.02933 
L 337.412859 72.027337 
L 342.288156 72.837543 
L 347.163453 73.47487 
L 354.476398 74.154079 
L 361.789344 74.574051 
L 371.539938 74.86015 
L 381.290532 74.945775 
L 381.290532 74.945775 
" style="fill:none;stroke:#1f77b4;stroke-linecap:square;stroke-width:1.5;"/>
   </g>
   <g id="line2d_17">
    <path clip-path="url(#pc013a52081)" d="M 91.489902 74.910666 
L 100.516829 74.833364 
L 107.287024 74.61378 
L 114.057219 74.19792 
L 120.827414 73.512098 
L 125.340878 72.87039 
L 129.854341 72.066161 
L 134.367805 71.099621 
L 141.138 69.383111 
L 150.164927 66.791759 
L 159.191853 64.20887 
L 165.962048 62.448964 
L 184.015902 57.963816 
L 188.529365 56.53565 
L 193.042829 54.843693 
L 197.556292 52.853831 
L 202.069756 50.570354 
L 206.583219 48.039517 
L 222.380341 38.709824 
L 226.893804 36.442828 
L 231.407268 34.57097 
L 233.663999 33.807677 
L 235.920731 33.167441 
L 238.177463 32.652874 
L 240.434194 32.263953 
L 242.690926 31.9982 
L 244.947658 31.850963 
L 249.461121 31.884875 
L 253.974585 32.300592 
L 258.488048 33.026495 
L 263.001511 33.998311 
L 267.514975 35.168858 
L 272.028438 36.511959 
L 276.541901 38.020573 
L 281.055365 39.700681 
L 285.568828 41.563229 
L 290.082292 43.616311 
L 294.595755 45.859051 
L 301.36595 49.544686 
L 308.136145 53.514379 
L 321.676535 61.548123 
L 326.189999 64.004519 
L 330.703462 66.243226 
L 335.216926 68.218105 
L 339.730389 69.901837 
L 344.243852 71.287463 
L 348.757316 72.386977 
L 353.270779 73.227435 
L 357.784243 73.845564 
L 362.297706 74.282023 
L 369.067901 74.681106 
L 378.094828 74.896529 
L 378.094828 74.896529 
" style="fill:none;stroke:#ff7f0e;stroke-linecap:square;stroke-width:1.5;"/>
   </g>
   <g id="line2d_18">
    <path clip-path="url(#pc013a52081)" d="M 76.375339 74.836805 
L 86.140926 74.74714 
L 93.465116 74.506459 
L 100.789307 74.065275 
L 108.113497 73.352408 
L 112.99629 72.687497 
L 117.879084 71.846604 
L 122.761877 70.815447 
L 127.644671 69.58898 
L 132.527464 68.173855 
L 139.851655 65.743866 
L 149.617242 62.12612 
L 161.824226 57.539363 
L 169.148416 55.02118 
L 176.472606 52.791722 
L 183.796796 50.875489 
L 191.120987 49.255442 
L 198.445177 47.900242 
L 205.769367 46.785897 
L 213.093557 45.900405 
L 220.417748 45.230689 
L 230.183335 44.609075 
L 257.038699 43.151519 
L 266.804286 42.586309 
L 271.68708 42.461166 
L 276.569873 42.546008 
L 281.452667 42.922351 
L 286.33546 43.659847 
L 291.218254 44.80499 
L 296.101047 46.372507 
L 300.983841 48.341006 
L 305.866634 50.653717 
L 310.749428 53.224219 
L 330.280602 63.907431 
L 335.163395 66.182414 
L 340.046189 68.168557 
L 344.928982 69.845144 
L 349.811776 71.214705 
L 354.694569 72.297924 
L 359.577363 73.12759 
L 364.460156 73.742612 
L 369.34295 74.182829 
L 376.66714 74.594342 
L 383.991331 74.792238 
L 386.432727 74.822277 
L 386.432727 74.822277 
" style="fill:none;stroke:#2ca02c;stroke-linecap:square;stroke-width:1.5;"/>
   </g>
   <g id="line2d_19">
    <path clip-path="url(#pc013a52081)" d="M 68.687273 74.794377 
L 74.801126 74.623948 
L 80.91498 74.242984 
L 84.990883 73.825584 
L 89.066785 73.233843 
L 93.142688 72.424526 
L 97.21859 71.353014 
L 101.294493 69.978275 
L 105.370395 68.268975 
L 109.446298 66.21012 
L 113.5222 63.809284 
L 117.598103 61.101277 
L 121.674005 58.150076 
L 135.939664 47.395572 
L 140.015566 44.703339 
L 144.091469 42.384776 
L 148.167371 40.512655 
L 150.205323 39.756905 
L 152.243274 39.123383 
L 154.281225 38.610576 
L 158.357128 37.929724 
L 162.43303 37.659774 
L 166.508933 37.720549 
L 170.584835 38.016215 
L 188.926397 39.746144 
L 193.002299 39.824985 
L 197.078202 39.741987 
L 203.192055 39.374055 
L 215.419763 38.498772 
L 219.495665 38.448332 
L 223.571568 38.646942 
L 227.64747 39.155718 
L 231.723373 40.017365 
L 235.799275 41.252874 
L 239.875178 42.860109 
L 243.95108 44.814199 
L 248.026983 47.069556 
L 252.102885 49.563262 
L 258.216739 53.582933 
L 268.406495 60.33167 
L 272.482398 62.821197 
L 276.5583 65.098392 
L 280.634203 67.123644 
L 284.710105 68.875196 
L 288.786008 70.348371 
L 292.86191 71.553286 
L 296.937813 72.511476 
L 301.013715 73.251997 
L 305.089618 73.807512 
L 311.203472 74.364863 
L 317.317325 74.675653 
L 325.46913 74.819542 
L 327.507082 74.815023 
L 327.507082 74.815023 
" style="fill:none;stroke:#d62728;stroke-linecap:square;stroke-width:1.5;"/>
   </g>
  </g>
  <g id="axes_3">
   <g id="patch_19">
    <path clip-path="url(#p16b293e3c4)" d="M 402.32 239.67793 
L 425.132019 239.67793 
L 425.132019 212.91883 
L 402.32 212.91883 
z
" style="fill:#1f77b4;opacity:0.4;"/>
   </g>
   <g id="patch_20">
    <path clip-path="url(#p16b293e3c4)" d="M 402.32 212.91883 
L 470.756057 212.91883 
L 470.756057 186.159731 
L 402.32 186.159731 
z
" style="fill:#1f77b4;opacity:0.4;"/>
   </g>
   <g id="patch_21">
    <path clip-path="url(#p16b293e3c4)" d="M 402.32 186.159731 
L 436.538028 186.159731 
L 436.538028 159.400631 
L 402.32 159.400631 
z
" style="fill:#1f77b4;opacity:0.4;"/>
   </g>
   <g id="patch_22">
    <path clip-path="url(#p16b293e3c4)" d="M 402.32 159.400631 
L 447.944038 159.400631 
L 447.944038 132.641531 
L 402.32 132.641531 
z
" style="fill:#1f77b4;opacity:0.4;"/>
   </g>
   <g id="patch_23">
    <path clip-path="url(#p16b293e3c4)" d="M 402.32 235.224447 
L 420.316584 235.224447 
L 420.316584 219.324839 
L 402.32 219.324839 
z
" style="fill:#ff7f0e;opacity:0.4;"/>
   </g>
   <g id="patch_24">
    <path clip-path="url(#p16b293e3c4)" d="M 402.32 219.324839 
L 402.32 219.324839 
L 402.32 203.42523 
L 402.32 203.42523 
z
" style="fill:#ff7f0e;opacity:0.4;"/>
   </g>
   <g id="patch_25">
    <path clip-path="url(#p16b293e3c4)" d="M 402.32 203.42523 
L 438.313168 203.42523 
L 438.313168 187.525622 
L 402.32 187.525622 
z
" style="fill:#ff7f0e;opacity:0.4;"/>
   </g>
   <g id="patch_26">
    <path clip-path="url(#p16b293e3c4)" d="M 402.32 187.525622 
L 474.306335 187.525622 
L 474.306335 171.626013 
L 402.32 171.626013 
z
" style="fill:#ff7f0e;opacity:0.4;"/>
   </g>
   <g id="patch_27">
    <path clip-path="url(#p16b293e3c4)" d="M 402.32 171.626013 
L 492.302919 171.626013 
L 492.302919 155.726405 
L 402.32 155.726405 
z
" style="fill:#ff7f0e;opacity:0.4;"/>
   </g>
   <g id="patch_28">
    <path clip-path="url(#p16b293e3c4)" d="M 402.32 155.726405 
L 474.306335 155.726405 
L 474.306335 139.826796 
L 402.32 139.826796 
z
" style="fill:#ff7f0e;opacity:0.4;"/>
   </g>
   <g id="patch_29">
    <path clip-path="url(#p16b293e3c4)" d="M 402.32 251.539453 
L 433.852922 251.539453 
L 433.852922 224.316605 
L 402.32 224.316605 
z
" style="fill:#2ca02c;opacity:0.4;"/>
   </g>
   <g id="patch_30">
    <path clip-path="url(#p16b293e3c4)" d="M 402.32 224.316605 
L 433.852922 224.316605 
L 433.852922 197.093758 
L 402.32 197.093758 
z
" style="fill:#2ca02c;opacity:0.4;"/>
   </g>
   <g id="patch_31">
    <path clip-path="url(#p16b293e3c4)" d="M 402.32 197.093758 
L 454.874869 197.093758 
L 454.874869 169.870911 
L 402.32 169.870911 
z
" style="fill:#2ca02c;opacity:0.4;"/>
   </g>
   <g id="patch_32">
    <path clip-path="url(#p16b293e3c4)" d="M 402.32 169.870911 
L 454.874869 169.870911 
L 454.874869 142.648064 
L 402.32 142.648064 
z
" style="fill:#2ca02c;opacity:0.4;"/>
   </g>
   <g id="patch_33">
    <path clip-path="url(#p16b293e3c4)" d="M 402.32 235.869297 
L 431.342366 235.869297 
L 431.342366 214.83624 
L 402.32 214.83624 
z
" style="fill:#d62728;opacity:0.4;"/>
   </g>
   <g id="patch_34">
    <path clip-path="url(#p16b293e3c4)" d="M 402.32 214.83624 
L 431.342366 214.83624 
L 431.342366 193.803183 
L 402.32 193.803183 
z
" style="fill:#d62728;opacity:0.4;"/>
   </g>
   <g id="patch_35">
    <path clip-path="url(#p16b293e3c4)" d="M 402.32 193.803183 
L 460.364732 193.803183 
L 460.364732 172.770125 
L 402.32 172.770125 
z
" style="fill:#d62728;opacity:0.4;"/>
   </g>
   <g id="patch_36">
    <path clip-path="url(#p16b293e3c4)" d="M 402.32 172.770125 
L 503.898281 172.770125 
L 503.898281 151.737068 
L 402.32 151.737068 
z
" style="fill:#d62728;opacity:0.4;"/>
   </g>
   <g id="line2d_20">
    <path clip-path="url(#p16b293e3c4)" d="M 402.501642 286.188552 
L 402.660355 279.887524 
L 403.008983 275.161753 
L 403.401094 272.011239 
L 403.961486 268.860725 
L 404.723938 265.710211 
L 405.7134 262.559696 
L 406.937768 259.409182 
L 408.380472 256.258668 
L 410.846833 251.532897 
L 415.064851 243.656612 
L 416.524866 240.506098 
L 417.773507 237.355584 
L 419.316569 232.629813 
L 420.828744 227.904042 
L 422.152288 224.753528 
L 422.997029 223.178271 
L 424.001432 221.603014 
L 425.189678 220.027757 
L 426.580697 218.4525 
L 428.186644 216.877243 
L 430.011601 215.301986 
L 432.050592 213.726729 
L 436.702521 210.576214 
L 441.911595 207.4257 
L 449.954143 202.699929 
L 454.814963 199.549415 
L 456.929145 197.974158 
L 458.769543 196.398901 
L 460.298902 194.823644 
L 461.489786 193.248387 
L 462.325549 191.67313 
L 462.800731 190.097873 
L 462.920923 188.522616 
L 462.702087 186.947359 
L 462.169427 185.372102 
L 461.355879 183.796845 
L 460.300339 182.221588 
L 459.045733 180.646331 
L 456.11945 177.495817 
L 448.289447 169.619532 
L 445.582068 166.469018 
L 443.283404 163.318504 
L 441.376205 160.16799 
L 439.772185 157.017475 
L 435.384958 147.565933 
L 433.611796 144.415419 
L 431.535545 141.264905 
L 429.139521 138.114391 
L 426.457419 134.963877 
L 422.073659 130.238106 
L 416.147774 123.937078 
L 413.412948 120.786564 
L 410.956762 117.63605 
L 408.83817 114.485536 
L 407.083085 111.335022 
L 405.686795 108.184508 
L 404.620257 105.033993 
L 403.838528 101.883479 
L 403.289534 98.732965 
L 402.921734 95.582451 
L 402.61337 90.85668 
L 402.504038 86.130909 
L 402.504038 86.130909 
" style="fill:none;stroke:#1f77b4;stroke-linecap:square;stroke-width:1.5;"/>
   </g>
   <g id="line2d_21">
    <path clip-path="url(#p16b293e3c4)" d="M 402.584096 265.547543 
L 402.726448 261.861468 
L 403.0072 259.404084 
L 403.481623 256.946701 
L 404.198611 254.489318 
L 405.195755 252.031934 
L 406.476625 249.574551 
L 408.799202 245.888476 
L 411.183246 242.202401 
L 412.479533 239.745018 
L 412.964596 238.516326 
L 413.314317 237.287634 
L 413.51545 236.058943 
L 413.561554 234.830251 
L 413.453719 233.601559 
L 413.200832 232.372868 
L 412.332631 229.915484 
L 409.067402 222.543334 
L 408.80703 221.314643 
L 408.716622 220.085951 
L 408.820718 218.857259 
L 409.138064 217.628568 
L 409.680954 216.399876 
L 410.454758 215.171184 
L 411.45765 213.942493 
L 412.680606 212.713801 
L 414.107726 211.485109 
L 417.481203 209.027726 
L 421.351317 206.570343 
L 435.830196 197.969501 
L 442.223429 194.283426 
L 446.900363 191.826043 
L 452.070799 189.368659 
L 457.72085 186.911276 
L 472.375185 180.767818 
L 477.450201 178.310434 
L 479.621228 177.081743 
L 481.493932 175.853051 
L 483.036373 174.624359 
L 484.224281 173.395668 
L 485.0414 172.166976 
L 485.479633 170.938284 
L 485.539048 169.709593 
L 485.227765 168.480901 
L 484.561706 167.252209 
L 483.564151 166.023518 
L 482.26505 164.794826 
L 480.700014 163.566134 
L 476.934513 161.108751 
L 472.607156 158.651368 
L 452.354708 147.593143 
L 445.493324 143.907068 
L 438.017314 140.220993 
L 419.673517 131.620151 
L 415.196356 129.162768 
L 411.435488 126.705384 
L 409.850297 125.476693 
L 408.463347 124.248001 
L 407.268571 123.019309 
L 406.25529 121.790618 
L 405.409335 120.561926 
L 404.714214 119.333234 
L 403.705567 116.875851 
L 403.090755 114.418468 
L 402.751462 111.961084 
L 402.602946 109.503701 
L 402.602946 109.503701 
" style="fill:none;stroke:#ff7f0e;stroke-linecap:square;stroke-width:1.5;"/>
   </g>
   <g id="line2d_22">
    <path clip-path="url(#p16b293e3c4)" d="M 402.51594 307.149091 
L 402.727148 300.216472 
L 403.108529 295.017007 
L 403.777313 289.817542 
L 404.432524 286.351233 
L 405.285483 282.884923 
L 406.351308 279.418613 
L 407.629593 275.952304 
L 409.100623 272.485994 
L 411.576282 267.286529 
L 416.712934 256.8876 
L 418.959792 251.688136 
L 420.856206 246.488671 
L 422.456628 241.289207 
L 425.458888 230.890278 
L 426.638977 227.423968 
L 428.016264 223.957658 
L 429.646995 220.491349 
L 431.57644 217.025039 
L 433.832569 213.558729 
L 436.41778 210.09242 
L 439.300155 206.62611 
L 444.009163 201.426645 
L 448.786887 196.227181 
L 451.721305 192.760871 
L 454.229539 189.294561 
L 455.265136 187.561407 
L 456.126811 185.828252 
L 456.796367 184.095097 
L 457.258624 182.361942 
L 457.501827 180.628787 
L 457.517945 178.895632 
L 457.302848 177.162477 
L 456.856363 175.429323 
L 456.182204 173.696168 
L 455.287797 171.963013 
L 454.183994 170.229858 
L 452.884713 168.496703 
L 451.406496 166.763548 
L 447.989641 163.297239 
L 444.09936 159.830929 
L 437.759224 154.631464 
L 429.210871 147.698845 
L 425.189995 144.232535 
L 421.460371 140.766226 
L 418.078333 137.299916 
L 415.075418 133.833606 
L 412.462599 130.367297 
L 410.234573 126.900987 
L 408.373546 123.434677 
L 406.852419 119.968367 
L 405.637457 116.502058 
L 404.690699 113.035748 
L 403.972254 109.569438 
L 403.442541 106.103129 
L 402.921654 100.903664 
L 402.636851 95.7042 
L 402.501227 88.77158 
L 402.501893 87.038425 
L 402.501893 87.038425 
" style="fill:none;stroke:#2ca02c;stroke-linecap:square;stroke-width:1.5;"/>
   </g>
   <g id="line2d_23">
    <path clip-path="url(#p16b293e3c4)" d="M 402.573747 282.617128 
L 402.626279 277.022549 
L 402.846662 272.826615 
L 403.261971 268.63068 
L 403.933578 264.434746 
L 404.556071 261.637456 
L 405.337069 258.840167 
L 406.28606 256.042877 
L 407.404727 253.245587 
L 409.38417 249.049653 
L 411.676832 244.853718 
L 414.212237 240.657784 
L 417.859433 235.063205 
L 422.723811 228.069981 
L 427.868237 221.076757 
L 434.336492 212.684888 
L 441.103587 204.293019 
L 445.8695 198.698439 
L 452.148094 191.705215 
L 458.397991 184.711991 
L 460.672513 181.914702 
L 462.677836 179.117412 
L 464.301748 176.320122 
L 464.93367 174.921478 
L 465.425694 173.522833 
L 465.763315 172.124188 
L 465.932729 170.725543 
L 465.92117 169.326898 
L 465.71727 167.928253 
L 465.31142 166.529609 
L 464.696126 165.130964 
L 463.866348 163.732319 
L 462.819805 162.333674 
L 461.557241 160.935029 
L 460.082614 159.536385 
L 458.403221 158.13774 
L 454.476104 155.34045 
L 449.899742 152.54316 
L 444.84296 149.745871 
L 426.329742 139.955357 
L 421.619425 137.158068 
L 417.434679 134.360778 
L 413.845261 131.563488 
L 410.871426 128.766199 
L 408.490802 125.968909 
L 406.64904 123.171619 
L 405.27198 120.37433 
L 404.277299 117.57704 
L 403.58416 114.77975 
L 403.120115 111.982461 
L 402.726291 107.786526 
L 402.603671 104.989237 
L 402.603671 104.989237 
" style="fill:none;stroke:#d62728;stroke-linecap:square;stroke-width:1.5;"/>
   </g>
  </g>
  <g id="axes_4">
   <g id="patch_37">
    <path d="M 402.32 75.08 
L 489.7 75.08 
L 489.7 14.3 
L 402.32 14.3 
z
" style="fill:#ffffff;"/>
   </g>
   <g id="matplotlib.axis_3">
    <g id="xtick_10">
     <g id="line2d_24">
      <g>
       <use style="stroke:#000000;stroke-width:0.8;" x="402.32" xlink:href="#m4632353f89" y="75.08"/>
      </g>
     </g>
    </g>
    <g id="xtick_11">
     <g id="line2d_25">
      <g>
       <use style="stroke:#000000;stroke-width:0.8;" x="446.01" xlink:href="#m4632353f89" y="75.08"/>
      </g>
     </g>
    </g>
    <g id="xtick_12">
     <g id="line2d_26">
      <g>
       <use style="stroke:#000000;stroke-width:0.8;" x="489.7" xlink:href="#m4632353f89" y="75.08"/>
      </g>
     </g>
    </g>
   </g>
   <g id="matplotlib.axis_4">
    <g id="ytick_7">
     <g id="line2d_27">
      <g>
       <use style="stroke:#000000;stroke-width:0.8;" x="402.32" xlink:href="#mb5b4540bb8" y="75.08"/>
      </g>
     </g>
    </g>
    <g id="ytick_8">
     <g id="line2d_28">
      <g>
       <use style="stroke:#000000;stroke-width:0.8;" x="402.32" xlink:href="#mb5b4540bb8" y="44.69"/>
      </g>
     </g>
    </g>
    <g id="ytick_9">
     <g id="line2d_29">
      <g>
       <use style="stroke:#000000;stroke-width:0.8;" x="402.32" xlink:href="#mb5b4540bb8" y="14.3"/>
      </g>
     </g>
    </g>
   </g>
   <g id="patch_38">
    <path d="M 402.32 75.08 
L 402.32 14.3 
" style="fill:none;stroke:#000000;stroke-linecap:square;stroke-linejoin:miter;stroke-width:0.8;"/>
   </g>
   <g id="patch_39">
    <path d="M 489.7 75.08 
L 489.7 14.3 
" style="fill:none;stroke:#000000;stroke-linecap:square;stroke-linejoin:miter;stroke-width:0.8;"/>
   </g>
   <g id="patch_40">
    <path d="M 402.32 75.08 
L 489.7 75.08 
" style="fill:none;stroke:#000000;stroke-linecap:square;stroke-linejoin:miter;stroke-width:0.8;"/>
   </g>
   <g id="patch_41">
    <path d="M 402.32 14.3 
L 489.7 14.3 
" style="fill:none;stroke:#000000;stroke-linecap:square;stroke-linejoin:miter;stroke-width:0.8;"/>
   </g>
   <g id="legend_1">
    <g id="patch_42">
     <path d="M 434.796875 81.0125 
L 482.7 81.0125 
Q 484.7 81.0125 484.7 79.0125 
L 484.7 21.3 
Q 484.7 19.3 482.7 19.3 
L 434.796875 19.3 
Q 432.796875 19.3 432.796875 21.3 
L 432.796875 79.0125 
Q 432.796875 81.0125 434.796875 81.0125 
z
" style="fill:#ffffff;opacity:0.8;stroke:#cccccc;stroke-linejoin:miter;"/>
    </g>
    <g id="patch_43">
     <path d="M 436.796875 30.898438 
L 456.796875 30.898438 
L 456.796875 23.898438 
L 436.796875 23.898438 
z
" style="fill:#1f77b4;stroke:#1f77b4;stroke-linejoin:miter;"/>
    </g>
    <g id="text_18">
     <!-- 1.0 -->
     <defs>
      <path d="M 10.6875 12.40625 
L 21 12.40625 
L 21 0 
L 10.6875 0 
z
" id="DejaVuSans-2e"/>
     </defs>
     <g transform="translate(464.796875 30.898438)scale(0.1 -0.1)">
      <use xlink:href="#DejaVuSans-31"/>
      <use x="63.623047" xlink:href="#DejaVuSans-2e"/>
      <use x="95.410156" xlink:href="#DejaVuSans-30"/>
     </g>
    </g>
    <g id="patch_44">
     <path d="M 436.796875 45.576563 
L 456.796875 45.576563 
L 456.796875 38.576563 
L 436.796875 38.576563 
z
" style="fill:#ff7f0e;stroke:#ff7f0e;stroke-linejoin:miter;"/>
    </g>
    <g id="text_19">
     <!-- 0.0 -->
     <g transform="translate(464.796875 45.576563)scale(0.1 -0.1)">
      <use xlink:href="#DejaVuSans-30"/>
      <use x="63.623047" xlink:href="#DejaVuSans-2e"/>
      <use x="95.410156" xlink:href="#DejaVuSans-30"/>
     </g>
    </g>
    <g id="patch_45">
     <path d="M 436.796875 60.254688 
L 456.796875 60.254688 
L 456.796875 53.254688 
L 436.796875 53.254688 
z
" style="fill:#2ca02c;stroke:#2ca02c;stroke-linejoin:miter;"/>
    </g>
    <g id="text_20">
     <!-- 3.0 -->
     <g transform="translate(464.796875 60.254688)scale(0.1 -0.1)">
      <use xlink:href="#DejaVuSans-33"/>
      <use x="63.623047" xlink:href="#DejaVuSans-2e"/>
      <use x="95.410156" xlink:href="#DejaVuSans-30"/>
     </g>
    </g>
    <g id="patch_46">
     <path d="M 436.796875 74.932813 
L 456.796875 74.932813 
L 456.796875 67.932813 
L 436.796875 67.932813 
z
" style="fill:#d62728;stroke:#d62728;stroke-linejoin:miter;"/>
    </g>
    <g id="text_21">
     <!-- 2.0 -->
     <g transform="translate(464.796875 74.932813)scale(0.1 -0.1)">
      <use xlink:href="#DejaVuSans-32"/>
      <use x="63.623047" xlink:href="#DejaVuSans-2e"/>
      <use x="95.410156" xlink:href="#DejaVuSans-30"/>
     </g>
    </g>
   </g>
  </g>
 </g>
 <defs>
  <clipPath id="p380fefb3b7">
   <rect height="243.12" width="349.52" x="52.8" y="75.08"/>
  </clipPath>
  <clipPath id="pc013a52081">
   <rect height="60.78" width="349.52" x="52.8" y="14.3"/>
  </clipPath>
  <clipPath id="p16b293e3c4">
   <rect height="243.12" width="87.38" x="402.32" y="75.08"/>
  </clipPath>
 </defs>
</svg>
