<?xml version="1.0" encoding="utf-8" standalone="no"?>
<!DOCTYPE svg PUBLIC "-//W3C//DTD SVG 1.1//EN"
  "http://www.w3.org/Graphics/SVG/1.1/DTD/svg11.dtd">
<!-- Created with matplotlib (http://matplotlib.org/) -->
<svg height="360pt" version="1.1" viewBox="0 0 504 360" width="504pt" xmlns="http://www.w3.org/2000/svg" xmlns:xlink="http://www.w3.org/1999/xlink">
 <defs>
  <style type="text/css">
*{stroke-linecap:butt;stroke-linejoin:round;}
  </style>
 </defs>
 <g id="figure_1">
  <g id="patch_1">
   <path d="M 0 360 
L 504 360 
L 504 0 
L 0 0 
z
" style="fill:#ffffff;"/>
  </g>
  <g id="axes_1">
   <g id="patch_2">
    <path d="M 52.8 318.2 
L 402.32 318.2 
L 402.32 75.08 
L 52.8 75.08 
z
" style="fill:#ffffff;"/>
   </g>
   <g id="PathCollection_1">
    <defs>
     <path d="M 0 3 
C 0.795609 3 1.55874 2.683901 2.12132 2.12132 
C 2.683901 1.55874 3 0.795609 3 0 
C 3 -0.795609 2.683901 -1.55874 2.12132 -2.12132 
C 1.55874 -2.683901 0.795609 -3 0 -3 
C -0.795609 -3 -1.55874 -2.683901 -2.12132 -2.12132 
C -2.683901 -1.55874 -3 -0.795609 -3 0 
C -3 0.795609 -2.683901 1.55874 -2.12132 2.12132 
C -1.55874 2.683901 -0.795609 3 0 3 
z
" id="m6c0716082f" style="stroke:#1f77b4;stroke-opacity:0.4;"/>
    </defs>
    <g clip-path="url(#p6a184e80df)">
     <use style="fill:#1f77b4;fill-opacity:0.4;stroke:#1f77b4;stroke-opacity:0.4;" x="198.912998" xlink:href="#m6c0716082f" y="224.034778"/>
     <use style="fill:#1f77b4;fill-opacity:0.4;stroke:#1f77b4;stroke-opacity:0.4;" x="204.048959" xlink:href="#m6c0716082f" y="203.466311"/>
     <use style="fill:#1f77b4;fill-opacity:0.4;stroke:#1f77b4;stroke-opacity:0.4;" x="264.316687" xlink:href="#m6c0716082f" y="181.71039"/>
     <use style="fill:#1f77b4;fill-opacity:0.4;stroke:#1f77b4;stroke-opacity:0.4;" x="251.770045" xlink:href="#m6c0716082f" y="181.774675"/>
     <use style="fill:#1f77b4;fill-opacity:0.4;stroke:#1f77b4;stroke-opacity:0.4;" x="292.424422" xlink:href="#m6c0716082f" y="96.312343"/>
     <use style="fill:#1f77b4;fill-opacity:0.4;stroke:#1f77b4;stroke-opacity:0.4;" x="296.895921" xlink:href="#m6c0716082f" y="124.255578"/>
     <use style="fill:#1f77b4;fill-opacity:0.4;stroke:#1f77b4;stroke-opacity:0.4;" x="233.174594" xlink:href="#m6c0716082f" y="307.122126"/>
     <use style="fill:#1f77b4;fill-opacity:0.4;stroke:#1f77b4;stroke-opacity:0.4;" x="202.578896" xlink:href="#m6c0716082f" y="174.144244"/>
     <use style="fill:#1f77b4;fill-opacity:0.4;stroke:#1f77b4;stroke-opacity:0.4;" x="200.568029" xlink:href="#m6c0716082f" y="147.80414"/>
     <use style="fill:#1f77b4;fill-opacity:0.4;stroke:#1f77b4;stroke-opacity:0.4;" x="286.101367" xlink:href="#m6c0716082f" y="186.456983"/>
     <use style="fill:#1f77b4;fill-opacity:0.4;stroke:#1f77b4;stroke-opacity:0.4;" x="246.611929" xlink:href="#m6c0716082f" y="110.689438"/>
     <use style="fill:#1f77b4;fill-opacity:0.4;stroke:#1f77b4;stroke-opacity:0.4;" x="167.091379" xlink:href="#m6c0716082f" y="149.933829"/>
     <use style="fill:#1f77b4;fill-opacity:0.4;stroke:#1f77b4;stroke-opacity:0.4;" x="163.425359" xlink:href="#m6c0716082f" y="199.705282"/>
     <use style="fill:#1f77b4;fill-opacity:0.4;stroke:#1f77b4;stroke-opacity:0.4;" x="170.311741" xlink:href="#m6c0716082f" y="215.932894"/>
     <use style="fill:#1f77b4;fill-opacity:0.4;stroke:#1f77b4;stroke-opacity:0.4;" x="159.083605" xlink:href="#m6c0716082f" y="171.02105"/>
    </g>
   </g>
   <g id="PathCollection_2">
    <defs>
     <path d="M 0 3 
C 0.795609 3 1.55874 2.683901 2.12132 2.12132 
C 2.683901 1.55874 3 0.795609 3 0 
C 3 -0.795609 2.683901 -1.55874 2.12132 -2.12132 
C 1.55874 -2.683901 0.795609 -3 0 -3 
C -0.795609 -3 -1.55874 -2.683901 -2.12132 -2.12132 
C -2.683901 -1.55874 -3 -0.795609 -3 0 
C -3 0.795609 -2.683901 1.55874 -2.12132 2.12132 
C -1.55874 2.683901 -0.795609 3 0 3 
z
" id="m4eb7358111" style="stroke:#ff7f0e;stroke-opacity:0.4;"/>
    </defs>
    <g clip-path="url(#p6a184e80df)">
     <use style="fill:#ff7f0e;fill-opacity:0.4;stroke:#ff7f0e;stroke-opacity:0.4;" x="220.614572" xlink:href="#m4eb7358111" y="180.966623"/>
     <use style="fill:#ff7f0e;fill-opacity:0.4;stroke:#ff7f0e;stroke-opacity:0.4;" x="224.366011" xlink:href="#m4eb7358111" y="151.210423"/>
     <use style="fill:#ff7f0e;fill-opacity:0.4;stroke:#ff7f0e;stroke-opacity:0.4;" x="231.416173" xlink:href="#m4eb7358111" y="127.572424"/>
     <use style="fill:#ff7f0e;fill-opacity:0.4;stroke:#ff7f0e;stroke-opacity:0.4;" x="212.080694" xlink:href="#m4eb7358111" y="190.867233"/>
     <use style="fill:#ff7f0e;fill-opacity:0.4;stroke:#ff7f0e;stroke-opacity:0.4;" x="266.814317" xlink:href="#m4eb7358111" y="210.345248"/>
     <use style="fill:#ff7f0e;fill-opacity:0.4;stroke:#ff7f0e;stroke-opacity:0.4;" x="258.783375" xlink:href="#m4eb7358111" y="163.034733"/>
     <use style="fill:#ff7f0e;fill-opacity:0.4;stroke:#ff7f0e;stroke-opacity:0.4;" x="212.508419" xlink:href="#m4eb7358111" y="152.380232"/>
     <use style="fill:#ff7f0e;fill-opacity:0.4;stroke:#ff7f0e;stroke-opacity:0.4;" x="236.019546" xlink:href="#m4eb7358111" y="203.700813"/>
     <use style="fill:#ff7f0e;fill-opacity:0.4;stroke:#ff7f0e;stroke-opacity:0.4;" x="243.487196" xlink:href="#m4eb7358111" y="181.690087"/>
     <use style="fill:#ff7f0e;fill-opacity:0.4;stroke:#ff7f0e;stroke-opacity:0.4;" x="234.528243" xlink:href="#m4eb7358111" y="174.971893"/>
     <use style="fill:#ff7f0e;fill-opacity:0.4;stroke:#ff7f0e;stroke-opacity:0.4;" x="257.352207" xlink:href="#m4eb7358111" y="134.142555"/>
     <use style="fill:#ff7f0e;fill-opacity:0.4;stroke:#ff7f0e;stroke-opacity:0.4;" x="210.576551" xlink:href="#m4eb7358111" y="229.002106"/>
     <use style="fill:#ff7f0e;fill-opacity:0.4;stroke:#ff7f0e;stroke-opacity:0.4;" x="256.85047" xlink:href="#m4eb7358111" y="98.094369"/>
     <use style="fill:#ff7f0e;fill-opacity:0.4;stroke:#ff7f0e;stroke-opacity:0.4;" x="277.689891" xlink:href="#m4eb7358111" y="219.449706"/>
     <use style="fill:#ff7f0e;fill-opacity:0.4;stroke:#ff7f0e;stroke-opacity:0.4;" x="169.835052" xlink:href="#m4eb7358111" y="179.565044"/>
     <use style="fill:#ff7f0e;fill-opacity:0.4;stroke:#ff7f0e;stroke-opacity:0.4;" x="282.169525" xlink:href="#m4eb7358111" y="89.331103"/>
    </g>
   </g>
   <g id="PathCollection_3">
    <defs>
     <path d="M 0 3 
C 0.795609 3 1.55874 2.683901 2.12132 2.12132 
C 2.683901 1.55874 3 0.795609 3 0 
C 3 -0.795609 2.683901 -1.55874 2.12132 -2.12132 
C 1.55874 -2.683901 0.795609 -3 0 -3 
C -0.795609 -3 -1.55874 -2.683901 -2.12132 -2.12132 
C -2.683901 -1.55874 -3 -0.795609 -3 0 
C -3 0.795609 -2.683901 1.55874 -2.12132 2.12132 
C -1.55874 2.683901 -0.795609 3 0 3 
z
" id="m300f690543" style="stroke:#2ca02c;stroke-opacity:0.4;"/>
    </defs>
    <g clip-path="url(#p6a184e80df)">
     <use style="fill:#2ca02c;fill-opacity:0.4;stroke:#2ca02c;stroke-opacity:0.4;" x="265.95358" xlink:href="#m300f690543" y="141.568047"/>
     <use style="fill:#2ca02c;fill-opacity:0.4;stroke:#2ca02c;stroke-opacity:0.4;" x="257.819002" xlink:href="#m300f690543" y="199.587855"/>
     <use style="fill:#2ca02c;fill-opacity:0.4;stroke:#2ca02c;stroke-opacity:0.4;" x="250.50004" xlink:href="#m300f690543" y="152.953845"/>
     <use style="fill:#2ca02c;fill-opacity:0.4;stroke:#2ca02c;stroke-opacity:0.4;" x="274.065726" xlink:href="#m300f690543" y="187.662486"/>
     <use style="fill:#2ca02c;fill-opacity:0.4;stroke:#2ca02c;stroke-opacity:0.4;" x="270.524123" xlink:href="#m300f690543" y="162.82606"/>
     <use style="fill:#2ca02c;fill-opacity:0.4;stroke:#2ca02c;stroke-opacity:0.4;" x="285.798368" xlink:href="#m300f690543" y="122.339647"/>
     <use style="fill:#2ca02c;fill-opacity:0.4;stroke:#2ca02c;stroke-opacity:0.4;" x="290.923621" xlink:href="#m300f690543" y="152.417569"/>
     <use style="fill:#2ca02c;fill-opacity:0.4;stroke:#2ca02c;stroke-opacity:0.4;" x="210.099681" xlink:href="#m300f690543" y="257.735992"/>
     <use style="fill:#2ca02c;fill-opacity:0.4;stroke:#2ca02c;stroke-opacity:0.4;" x="237.544266" xlink:href="#m300f690543" y="276.501967"/>
     <use style="fill:#2ca02c;fill-opacity:0.4;stroke:#2ca02c;stroke-opacity:0.4;" x="275.963975" xlink:href="#m300f690543" y="136.030797"/>
     <use style="fill:#2ca02c;fill-opacity:0.4;stroke:#2ca02c;stroke-opacity:0.4;" x="280.371896" xlink:href="#m300f690543" y="161.790464"/>
     <use style="fill:#2ca02c;fill-opacity:0.4;stroke:#2ca02c;stroke-opacity:0.4;" x="177.807584" xlink:href="#m300f690543" y="194.594057"/>
     <use style="fill:#2ca02c;fill-opacity:0.4;stroke:#2ca02c;stroke-opacity:0.4;" x="154.802051" xlink:href="#m300f690543" y="209.072598"/>
     <use style="fill:#2ca02c;fill-opacity:0.4;stroke:#2ca02c;stroke-opacity:0.4;" x="179.240431" xlink:href="#m300f690543" y="225.596569"/>
     <use style="fill:#2ca02c;fill-opacity:0.4;stroke:#2ca02c;stroke-opacity:0.4;" x="172.276225" xlink:href="#m300f690543" y="247.702491"/>
     <use style="fill:#2ca02c;fill-opacity:0.4;stroke:#2ca02c;stroke-opacity:0.4;" x="189.230581" xlink:href="#m300f690543" y="240.182188"/>
    </g>
   </g>
   <g id="PathCollection_4">
    <defs>
     <path d="M 0 3 
C 0.795609 3 1.55874 2.683901 2.12132 2.12132 
C 2.683901 1.55874 3 0.795609 3 0 
C 3 -0.795609 2.683901 -1.55874 2.12132 -2.12132 
C 1.55874 -2.683901 0.795609 -3 0 -3 
C -0.795609 -3 -1.55874 -2.683901 -2.12132 -2.12132 
C -2.683901 -1.55874 -3 -0.795609 -3 0 
C -3 0.795609 -2.683901 1.55874 -2.12132 2.12132 
C -1.55874 2.683901 -0.795609 3 0 3 
z
" id="m16e581d3a4" style="stroke:#d62728;stroke-opacity:0.4;"/>
    </defs>
    <g clip-path="url(#p6a184e80df)">
     <use style="fill:#d62728;fill-opacity:0.4;stroke:#d62728;stroke-opacity:0.4;" x="245.785123" xlink:href="#m16e581d3a4" y="209.475531"/>
     <use style="fill:#d62728;fill-opacity:0.4;stroke:#d62728;stroke-opacity:0.4;" x="241.356893" xlink:href="#m16e581d3a4" y="153.627619"/>
     <use style="fill:#d62728;fill-opacity:0.4;stroke:#d62728;stroke-opacity:0.4;" x="268.170064" xlink:href="#m16e581d3a4" y="110.464938"/>
     <use style="fill:#d62728;fill-opacity:0.4;stroke:#d62728;stroke-opacity:0.4;" x="254.628153" xlink:href="#m16e581d3a4" y="227.646822"/>
     <use style="fill:#d62728;fill-opacity:0.4;stroke:#d62728;stroke-opacity:0.4;" x="220.917227" xlink:href="#m16e581d3a4" y="298.300304"/>
     <use style="fill:#d62728;fill-opacity:0.4;stroke:#d62728;stroke-opacity:0.4;" x="229.742296" xlink:href="#m16e581d3a4" y="256.257629"/>
     <use style="fill:#d62728;fill-opacity:0.4;stroke:#d62728;stroke-opacity:0.4;" x="228.857765" xlink:href="#m16e581d3a4" y="284.278681"/>
     <use style="fill:#d62728;fill-opacity:0.4;stroke:#d62728;stroke-opacity:0.4;" x="219.690039" xlink:href="#m16e581d3a4" y="236.330873"/>
     <use style="fill:#d62728;fill-opacity:0.4;stroke:#d62728;stroke-opacity:0.4;" x="220.292593" xlink:href="#m16e581d3a4" y="268.015644"/>
     <use style="fill:#d62728;fill-opacity:0.4;stroke:#d62728;stroke-opacity:0.4;" x="195.354262" xlink:href="#m16e581d3a4" y="189.402569"/>
     <use style="fill:#d62728;fill-opacity:0.4;stroke:#d62728;stroke-opacity:0.4;" x="192.031113" xlink:href="#m16e581d3a4" y="160.088139"/>
     <use style="fill:#d62728;fill-opacity:0.4;stroke:#d62728;stroke-opacity:0.4;" x="185.315666" xlink:href="#m16e581d3a4" y="179.430622"/>
     <use style="fill:#d62728;fill-opacity:0.4;stroke:#d62728;stroke-opacity:0.4;" x="187.394657" xlink:href="#m16e581d3a4" y="207.656393"/>
     <use style="fill:#d62728;fill-opacity:0.4;stroke:#d62728;stroke-opacity:0.4;" x="161.851041" xlink:href="#m16e581d3a4" y="235.046358"/>
     <use style="fill:#d62728;fill-opacity:0.4;stroke:#d62728;stroke-opacity:0.4;" x="178.653068" xlink:href="#m16e581d3a4" y="156.80994"/>
    </g>
   </g>
   <g id="matplotlib.axis_1">
    <g id="xtick_1">
     <g id="line2d_1">
      <defs>
       <path d="M 0 0 
L 0 3.5 
" id="m838d6a7bf9" style="stroke:#000000;stroke-width:0.8;"/>
      </defs>
      <g>
       <use style="stroke:#000000;stroke-width:0.8;" x="88.967967" xlink:href="#m838d6a7bf9" y="318.2"/>
      </g>
     </g>
     <g id="text_1">
      <!-- −200 -->
      <defs>
       <path d="M 10.59375 35.5 
L 73.1875 35.5 
L 73.1875 27.203125 
L 10.59375 27.203125 
z
" id="DejaVuSans-2212"/>
       <path d="M 19.1875 8.296875 
L 53.609375 8.296875 
L 53.609375 0 
L 7.328125 0 
L 7.328125 8.296875 
Q 12.9375 14.109375 22.625 23.890625 
Q 32.328125 33.6875 34.8125 36.53125 
Q 39.546875 41.84375 41.421875 45.53125 
Q 43.3125 49.21875 43.3125 52.78125 
Q 43.3125 58.59375 39.234375 62.25 
Q 35.15625 65.921875 28.609375 65.921875 
Q 23.96875 65.921875 18.8125 64.3125 
Q 13.671875 62.703125 7.8125 59.421875 
L 7.8125 69.390625 
Q 13.765625 71.78125 18.9375 73 
Q 24.125 74.21875 28.421875 74.21875 
Q 39.75 74.21875 46.484375 68.546875 
Q 53.21875 62.890625 53.21875 53.421875 
Q 53.21875 48.921875 51.53125 44.890625 
Q 49.859375 40.875 45.40625 35.40625 
Q 44.1875 33.984375 37.640625 27.21875 
Q 31.109375 20.453125 19.1875 8.296875 
z
" id="DejaVuSans-32"/>
       <path d="M 31.78125 66.40625 
Q 24.171875 66.40625 20.328125 58.90625 
Q 16.5 51.421875 16.5 36.375 
Q 16.5 21.390625 20.328125 13.890625 
Q 24.171875 6.390625 31.78125 6.390625 
Q 39.453125 6.390625 43.28125 13.890625 
Q 47.125 21.390625 47.125 36.375 
Q 47.125 51.421875 43.28125 58.90625 
Q 39.453125 66.40625 31.78125 66.40625 
z
M 31.78125 74.21875 
Q 44.046875 74.21875 50.515625 64.515625 
Q 56.984375 54.828125 56.984375 36.375 
Q 56.984375 17.96875 50.515625 8.265625 
Q 44.046875 -1.421875 31.78125 -1.421875 
Q 19.53125 -1.421875 13.0625 8.265625 
Q 6.59375 17.96875 6.59375 36.375 
Q 6.59375 54.828125 13.0625 64.515625 
Q 19.53125 74.21875 31.78125 74.21875 
z
" id="DejaVuSans-30"/>
      </defs>
      <g transform="translate(75.234373 332.798437)scale(0.1 -0.1)">
       <use xlink:href="#DejaVuSans-2212"/>
       <use x="83.789062" xlink:href="#DejaVuSans-32"/>
       <use x="147.412109" xlink:href="#DejaVuSans-30"/>
       <use x="211.035156" xlink:href="#DejaVuSans-30"/>
      </g>
     </g>
    </g>
    <g id="xtick_2">
     <g id="line2d_2">
      <g>
       <use style="stroke:#000000;stroke-width:0.8;" x="152.508429" xlink:href="#m838d6a7bf9" y="318.2"/>
      </g>
     </g>
     <g id="text_2">
      <!-- −100 -->
      <defs>
       <path d="M 12.40625 8.296875 
L 28.515625 8.296875 
L 28.515625 63.921875 
L 10.984375 60.40625 
L 10.984375 69.390625 
L 28.421875 72.90625 
L 38.28125 72.90625 
L 38.28125 8.296875 
L 54.390625 8.296875 
L 54.390625 0 
L 12.40625 0 
z
" id="DejaVuSans-31"/>
      </defs>
      <g transform="translate(138.774835 332.798437)scale(0.1 -0.1)">
       <use xlink:href="#DejaVuSans-2212"/>
       <use x="83.789062" xlink:href="#DejaVuSans-31"/>
       <use x="147.412109" xlink:href="#DejaVuSans-30"/>
       <use x="211.035156" xlink:href="#DejaVuSans-30"/>
      </g>
     </g>
    </g>
    <g id="xtick_3">
     <g id="line2d_3">
      <g>
       <use style="stroke:#000000;stroke-width:0.8;" x="216.04889" xlink:href="#m838d6a7bf9" y="318.2"/>
      </g>
     </g>
     <g id="text_3">
      <!-- 0 -->
      <g transform="translate(212.86764 332.798437)scale(0.1 -0.1)">
       <use xlink:href="#DejaVuSans-30"/>
      </g>
     </g>
    </g>
    <g id="xtick_4">
     <g id="line2d_4">
      <g>
       <use style="stroke:#000000;stroke-width:0.8;" x="279.589352" xlink:href="#m838d6a7bf9" y="318.2"/>
      </g>
     </g>
     <g id="text_4">
      <!-- 100 -->
      <g transform="translate(270.045602 332.798437)scale(0.1 -0.1)">
       <use xlink:href="#DejaVuSans-31"/>
       <use x="63.623047" xlink:href="#DejaVuSans-30"/>
       <use x="127.246094" xlink:href="#DejaVuSans-30"/>
      </g>
     </g>
    </g>
    <g id="xtick_5">
     <g id="line2d_5">
      <g>
       <use style="stroke:#000000;stroke-width:0.8;" x="343.129814" xlink:href="#m838d6a7bf9" y="318.2"/>
      </g>
     </g>
     <g id="text_5">
      <!-- 200 -->
      <g transform="translate(333.586064 332.798437)scale(0.1 -0.1)">
       <use xlink:href="#DejaVuSans-32"/>
       <use x="63.623047" xlink:href="#DejaVuSans-30"/>
       <use x="127.246094" xlink:href="#DejaVuSans-30"/>
      </g>
     </g>
    </g>
    <g id="text_6">
     <!-- x -->
     <defs>
      <path d="M 54.890625 54.6875 
L 35.109375 28.078125 
L 55.90625 0 
L 45.3125 0 
L 29.390625 21.484375 
L 13.484375 0 
L 2.875 0 
L 24.125 28.609375 
L 4.6875 54.6875 
L 15.28125 54.6875 
L 29.78125 35.203125 
L 44.28125 54.6875 
z
" id="DejaVuSans-78"/>
     </defs>
     <g transform="translate(224.600625 346.476562)scale(0.1 -0.1)">
      <use xlink:href="#DejaVuSans-78"/>
     </g>
    </g>
   </g>
   <g id="matplotlib.axis_2">
    <g id="ytick_1">
     <g id="line2d_6">
      <defs>
       <path d="M 0 0 
L -3.5 0 
" id="m652961d703" style="stroke:#000000;stroke-width:0.8;"/>
      </defs>
      <g>
       <use style="stroke:#000000;stroke-width:0.8;" x="52.8" xlink:href="#m652961d703" y="302.117181"/>
      </g>
     </g>
     <g id="text_7">
      <!-- −60 -->
      <defs>
       <path d="M 33.015625 40.375 
Q 26.375 40.375 22.484375 35.828125 
Q 18.609375 31.296875 18.609375 23.390625 
Q 18.609375 15.53125 22.484375 10.953125 
Q 26.375 6.390625 33.015625 6.390625 
Q 39.65625 6.390625 43.53125 10.953125 
Q 47.40625 15.53125 47.40625 23.390625 
Q 47.40625 31.296875 43.53125 35.828125 
Q 39.65625 40.375 33.015625 40.375 
z
M 52.59375 71.296875 
L 52.59375 62.3125 
Q 48.875 64.0625 45.09375 64.984375 
Q 41.3125 65.921875 37.59375 65.921875 
Q 27.828125 65.921875 22.671875 59.328125 
Q 17.53125 52.734375 16.796875 39.40625 
Q 19.671875 43.65625 24.015625 45.921875 
Q 28.375 48.1875 33.59375 48.1875 
Q 44.578125 48.1875 50.953125 41.515625 
Q 57.328125 34.859375 57.328125 23.390625 
Q 57.328125 12.15625 50.6875 5.359375 
Q 44.046875 -1.421875 33.015625 -1.421875 
Q 20.359375 -1.421875 13.671875 8.265625 
Q 6.984375 17.96875 6.984375 36.375 
Q 6.984375 53.65625 15.1875 63.9375 
Q 23.390625 74.21875 37.203125 74.21875 
Q 40.921875 74.21875 44.703125 73.484375 
Q 48.484375 72.75 52.59375 71.296875 
z
" id="DejaVuSans-36"/>
      </defs>
      <g transform="translate(24.695313 305.9164)scale(0.1 -0.1)">
       <use xlink:href="#DejaVuSans-2212"/>
       <use x="83.789062" xlink:href="#DejaVuSans-36"/>
       <use x="147.412109" xlink:href="#DejaVuSans-30"/>
      </g>
     </g>
    </g>
    <g id="ytick_2">
     <g id="line2d_7">
      <g>
       <use style="stroke:#000000;stroke-width:0.8;" x="52.8" xlink:href="#m652961d703" y="263.028771"/>
      </g>
     </g>
     <g id="text_8">
      <!-- −40 -->
      <defs>
       <path d="M 37.796875 64.3125 
L 12.890625 25.390625 
L 37.796875 25.390625 
z
M 35.203125 72.90625 
L 47.609375 72.90625 
L 47.609375 25.390625 
L 58.015625 25.390625 
L 58.015625 17.1875 
L 47.609375 17.1875 
L 47.609375 0 
L 37.796875 0 
L 37.796875 17.1875 
L 4.890625 17.1875 
L 4.890625 26.703125 
z
" id="DejaVuSans-34"/>
      </defs>
      <g transform="translate(24.695313 266.82799)scale(0.1 -0.1)">
       <use xlink:href="#DejaVuSans-2212"/>
       <use x="83.789062" xlink:href="#DejaVuSans-34"/>
       <use x="147.412109" xlink:href="#DejaVuSans-30"/>
      </g>
     </g>
    </g>
    <g id="ytick_3">
     <g id="line2d_8">
      <g>
       <use style="stroke:#000000;stroke-width:0.8;" x="52.8" xlink:href="#m652961d703" y="223.940361"/>
      </g>
     </g>
     <g id="text_9">
      <!-- −20 -->
      <g transform="translate(24.695313 227.73958)scale(0.1 -0.1)">
       <use xlink:href="#DejaVuSans-2212"/>
       <use x="83.789062" xlink:href="#DejaVuSans-32"/>
       <use x="147.412109" xlink:href="#DejaVuSans-30"/>
      </g>
     </g>
    </g>
    <g id="ytick_4">
     <g id="line2d_9">
      <g>
       <use style="stroke:#000000;stroke-width:0.8;" x="52.8" xlink:href="#m652961d703" y="184.851952"/>
      </g>
     </g>
     <g id="text_10">
      <!-- 0 -->
      <g transform="translate(39.4375 188.65117)scale(0.1 -0.1)">
       <use xlink:href="#DejaVuSans-30"/>
      </g>
     </g>
    </g>
    <g id="ytick_5">
     <g id="line2d_10">
      <g>
       <use style="stroke:#000000;stroke-width:0.8;" x="52.8" xlink:href="#m652961d703" y="145.763542"/>
      </g>
     </g>
     <g id="text_11">
      <!-- 20 -->
      <g transform="translate(33.075 149.56276)scale(0.1 -0.1)">
       <use xlink:href="#DejaVuSans-32"/>
       <use x="63.623047" xlink:href="#DejaVuSans-30"/>
      </g>
     </g>
    </g>
    <g id="ytick_6">
     <g id="line2d_11">
      <g>
       <use style="stroke:#000000;stroke-width:0.8;" x="52.8" xlink:href="#m652961d703" y="106.675132"/>
      </g>
     </g>
     <g id="text_12">
      <!-- 40 -->
      <g transform="translate(33.075 110.47435)scale(0.1 -0.1)">
       <use xlink:href="#DejaVuSans-34"/>
       <use x="63.623047" xlink:href="#DejaVuSans-30"/>
      </g>
     </g>
    </g>
    <g id="text_13">
     <!-- y -->
     <defs>
      <path d="M 32.171875 -5.078125 
Q 28.375 -14.84375 24.75 -17.8125 
Q 21.140625 -20.796875 15.09375 -20.796875 
L 7.90625 -20.796875 
L 7.90625 -13.28125 
L 13.1875 -13.28125 
Q 16.890625 -13.28125 18.9375 -11.515625 
Q 21 -9.765625 23.484375 -3.21875 
L 25.09375 0.875 
L 2.984375 54.6875 
L 12.5 54.6875 
L 29.59375 11.921875 
L 46.6875 54.6875 
L 56.203125 54.6875 
z
" id="DejaVuSans-79"/>
     </defs>
     <g transform="translate(18.615625 199.599375)rotate(-90)scale(0.1 -0.1)">
      <use xlink:href="#DejaVuSans-79"/>
     </g>
    </g>
   </g>
   <g id="patch_3">
    <path d="M 52.8 318.2 
L 52.8 75.08 
" style="fill:none;stroke:#000000;stroke-linecap:square;stroke-linejoin:miter;stroke-width:0.8;"/>
   </g>
   <g id="patch_4">
    <path d="M 402.32 318.2 
L 402.32 75.08 
" style="fill:none;stroke:#000000;stroke-linecap:square;stroke-linejoin:miter;stroke-width:0.8;"/>
   </g>
   <g id="patch_5">
    <path d="M 52.8 318.2 
L 402.32 318.2 
" style="fill:none;stroke:#000000;stroke-linecap:square;stroke-linejoin:miter;stroke-width:0.8;"/>
   </g>
   <g id="patch_6">
    <path d="M 52.8 75.08 
L 402.32 75.08 
" style="fill:none;stroke:#000000;stroke-linecap:square;stroke-linejoin:miter;stroke-width:0.8;"/>
   </g>
  </g>
  <g id="axes_2">
   <g id="patch_7">
    <path clip-path="url(#p1df9478c9d)" d="M 159.083605 75.08 
L 205.021044 75.08 
L 205.021044 17.57237 
L 159.083605 17.57237 
z
" style="fill:#1f77b4;opacity:0.4;"/>
   </g>
   <g id="patch_8">
    <path clip-path="url(#p1df9478c9d)" d="M 205.021044 75.08 
L 250.958482 75.08 
L 250.958482 60.703093 
L 205.021044 60.703093 
z
" style="fill:#1f77b4;opacity:0.4;"/>
   </g>
   <g id="patch_9">
    <path clip-path="url(#p1df9478c9d)" d="M 250.958482 75.08 
L 296.895921 75.08 
L 296.895921 39.137732 
L 250.958482 39.137732 
z
" style="fill:#1f77b4;opacity:0.4;"/>
   </g>
   <g id="patch_10">
    <path clip-path="url(#p1df9478c9d)" d="M 169.835052 75.08 
L 197.91867 75.08 
L 197.91867 64.056475 
L 169.835052 64.056475 
z
" style="fill:#ff7f0e;opacity:0.4;"/>
   </g>
   <g id="patch_11">
    <path clip-path="url(#p1df9478c9d)" d="M 197.91867 75.08 
L 226.002289 75.08 
L 226.002289 19.962377 
L 197.91867 19.962377 
z
" style="fill:#ff7f0e;opacity:0.4;"/>
   </g>
   <g id="patch_12">
    <path clip-path="url(#p1df9478c9d)" d="M 226.002289 75.08 
L 254.085907 75.08 
L 254.085907 30.985902 
L 226.002289 30.985902 
z
" style="fill:#ff7f0e;opacity:0.4;"/>
   </g>
   <g id="patch_13">
    <path clip-path="url(#p1df9478c9d)" d="M 254.085907 75.08 
L 282.169525 75.08 
L 282.169525 8.938853 
L 254.085907 8.938853 
z
" style="fill:#ff7f0e;opacity:0.4;"/>
   </g>
   <g id="patch_14">
    <path clip-path="url(#p1df9478c9d)" d="M 154.802051 75.08 
L 222.862836 75.08 
L 222.862836 47.788473 
L 154.802051 47.788473 
z
" style="fill:#2ca02c;opacity:0.4;"/>
   </g>
   <g id="patch_15">
    <path clip-path="url(#p1df9478c9d)" d="M 222.862836 75.08 
L 290.923621 75.08 
L 290.923621 29.594122 
L 222.862836 29.594122 
z
" style="fill:#2ca02c;opacity:0.4;"/>
   </g>
   <g id="patch_16">
    <path clip-path="url(#p1df9478c9d)" d="M 161.851041 75.08 
L 197.290716 75.08 
L 197.290716 19.173309 
L 161.851041 19.173309 
z
" style="fill:#d62728;opacity:0.4;"/>
   </g>
   <g id="patch_17">
    <path clip-path="url(#p1df9478c9d)" d="M 197.290716 75.08 
L 232.73039 75.08 
L 232.73039 28.491091 
L 197.290716 28.491091 
z
" style="fill:#d62728;opacity:0.4;"/>
   </g>
   <g id="patch_18">
    <path clip-path="url(#p1df9478c9d)" d="M 232.73039 75.08 
L 268.170064 75.08 
L 268.170064 37.808873 
L 232.73039 37.808873 
z
" style="fill:#d62728;opacity:0.4;"/>
   </g>
   <g id="line2d_12">
    <path clip-path="url(#p1df9478c9d)" d="M 69.546799 74.874402 
L 79.527458 74.717307 
L 87.012952 74.41309 
L 94.498447 73.868873 
L 99.488776 73.323655 
L 104.479106 72.593979 
L 109.469435 71.647601 
L 114.459765 70.457312 
L 119.450095 69.005372 
L 124.440424 67.287813 
L 129.430754 65.317862 
L 134.421083 63.127791 
L 141.906578 59.546136 
L 156.877566 52.235426 
L 161.867896 50.052774 
L 166.858226 48.117579 
L 171.848555 46.481332 
L 176.838885 45.17719 
L 181.829214 44.219149 
L 186.819544 43.602736 
L 191.809873 43.306791 
L 196.800203 43.296021 
L 201.790533 43.524101 
L 209.276027 44.195465 
L 219.256686 45.409112 
L 231.73251 46.9084 
L 241.713169 47.857599 
L 266.664817 49.983165 
L 271.655147 50.639846 
L 276.645476 51.457957 
L 281.635806 52.461846 
L 286.626136 53.664243 
L 291.616465 55.063801 
L 296.606795 56.643729 
L 304.092289 59.27802 
L 324.053607 66.609111 
L 329.043937 68.212755 
L 334.034267 69.640636 
L 339.024596 70.873101 
L 344.014926 71.904505 
L 349.005255 72.741448 
L 353.995585 73.399921 
L 361.481079 74.10193 
L 368.966574 74.53481 
L 378.947233 74.820367 
L 386.432727 74.8797 
L 386.432727 74.8797 
" style="fill:none;stroke:#1f77b4;stroke-linecap:square;stroke-width:1.5;"/>
   </g>
   <g id="line2d_13">
    <path clip-path="url(#p1df9478c9d)" d="M 116.917233 74.903666 
L 123.788732 74.811818 
L 130.660232 74.460469 
L 135.813857 73.962567 
L 140.967481 73.212508 
L 146.121106 72.201035 
L 152.992606 70.546712 
L 163.299855 68.005043 
L 177.042854 64.874506 
L 180.478604 63.684496 
L 182.196479 62.937977 
L 183.914354 62.067535 
L 185.632229 61.058173 
L 187.350104 59.897637 
L 189.067978 58.577161 
L 190.785853 57.092105 
L 192.503728 55.442439 
L 195.939478 51.67385 
L 199.375228 47.369916 
L 204.528852 40.298491 
L 209.682477 33.188905 
L 213.118227 28.837033 
L 216.553977 25.042466 
L 218.271852 23.403261 
L 219.989727 21.953644 
L 221.707601 20.700996 
L 223.425476 19.64812 
L 225.143351 18.793477 
L 226.861226 18.131565 
L 228.579101 17.653446 
L 230.296976 17.347353 
L 232.014851 17.199396 
L 233.732726 17.194286 
L 237.168475 17.548953 
L 240.604225 18.288786 
L 244.039975 19.311959 
L 247.475725 20.550973 
L 250.911475 21.977993 
L 254.347224 23.601627 
L 257.782974 25.456576 
L 261.218724 27.588918 
L 264.654474 30.040406 
L 268.090224 32.834873 
L 271.525973 35.968892 
L 274.961723 39.407599 
L 280.115348 44.986512 
L 290.422597 56.396439 
L 293.858347 59.863786 
L 297.294097 63.002359 
L 300.729847 65.749983 
L 304.165596 68.074326 
L 307.601346 69.972834 
L 311.037096 71.468964 
L 314.472846 72.605684 
L 317.908595 73.437606 
L 321.344345 74.0232 
L 324.780095 74.418232 
L 329.93372 74.75648 
L 335.087344 74.891429 
L 335.087344 74.891429 
" style="fill:none;stroke:#ff7f0e;stroke-linecap:square;stroke-width:1.5;"/>
   </g>
   <g id="line2d_14">
    <path clip-path="url(#p1df9478c9d)" d="M 68.687273 74.921468 
L 80.827081 74.834052 
L 90.538927 74.534923 
L 97.822812 74.101533 
L 105.106697 73.403783 
L 109.96262 72.747915 
L 114.818544 71.909743 
L 119.674467 70.868652 
L 124.53039 69.612397 
L 129.386313 68.140885 
L 134.242236 66.469503 
L 141.526121 63.665127 
L 158.521853 56.85959 
L 163.377776 55.213251 
L 168.233699 53.841632 
L 173.089622 52.795976 
L 177.945546 52.099405 
L 182.801469 51.742269 
L 187.657392 51.681045 
L 192.513315 51.841128 
L 207.081085 52.592398 
L 211.937008 52.551119 
L 216.792932 52.199143 
L 221.648855 51.476187 
L 226.504778 50.359437 
L 231.360701 48.868071 
L 236.216625 47.064232 
L 243.500509 44.005701 
L 250.784394 40.957333 
L 255.640318 39.205798 
L 258.068279 38.476397 
L 260.496241 37.869999 
L 262.924202 37.403522 
L 265.352164 37.091625 
L 267.780126 36.946324 
L 270.208087 36.976659 
L 272.636049 37.188447 
L 275.06401 37.584123 
L 277.491972 38.16266 
L 279.919934 38.919604 
L 282.347895 39.847192 
L 284.775857 40.93457 
L 287.203819 42.168097 
L 292.059742 45.007415 
L 296.915665 48.21599 
L 313.911396 60.021354 
L 318.76732 62.986538 
L 323.623243 65.602428 
L 328.479166 67.833496 
L 333.335089 69.675453 
L 338.191013 71.148872 
L 343.046936 72.291604 
L 347.902859 73.151225 
L 352.758782 73.778431 
L 357.614706 74.221913 
L 364.89859 74.63517 
L 374.610437 74.882145 
L 377.038399 74.907499 
L 377.038399 74.907499 
" style="fill:none;stroke:#2ca02c;stroke-linecap:square;stroke-width:1.5;"/>
   </g>
   <g id="line2d_15">
    <path clip-path="url(#p1df9478c9d)" d="M 105.018075 74.922546 
L 111.946735 74.808426 
L 117.14323 74.564321 
L 122.339725 74.11284 
L 125.804055 73.649947 
L 129.268385 73.018256 
L 132.732715 72.181309 
L 136.197045 71.102658 
L 139.661375 69.748544 
L 143.125705 68.09088 
L 146.590035 66.110479 
L 150.054365 63.800523 
L 153.518695 61.170235 
L 156.983025 58.24853 
L 162.17952 53.439204 
L 172.57251 43.419053 
L 176.03684 40.384448 
L 179.50117 37.689196 
L 182.9655 35.406932 
L 186.42983 33.565716 
L 189.89416 32.141608 
L 193.35849 31.062075 
L 196.82282 30.219885 
L 210.68014 27.170682 
L 217.6088 25.49064 
L 221.07313 24.867517 
L 224.53746 24.559954 
L 226.269625 24.561141 
L 228.00179 24.681341 
L 229.733955 24.929147 
L 231.46612 25.310299 
L 233.198285 25.827608 
L 234.93045 26.481017 
L 236.662615 27.267786 
L 240.126945 29.218786 
L 243.591275 31.617282 
L 247.055605 34.380016 
L 250.519935 37.415849 
L 255.71643 42.287366 
L 267.841585 53.830814 
L 273.03808 58.370689 
L 276.50241 61.142753 
L 279.96674 63.668601 
L 283.43107 65.921249 
L 286.895401 67.884236 
L 290.359731 69.552884 
L 293.824061 70.934472 
L 297.288391 72.047153 
L 300.752721 72.917723 
L 304.217051 73.578639 
L 307.681381 74.064744 
L 312.877876 74.540012 
L 318.074371 74.797738 
L 325.003031 74.921589 
L 325.003031 74.921589 
" style="fill:none;stroke:#d62728;stroke-linecap:square;stroke-width:1.5;"/>
   </g>
  </g>
  <g id="axes_3">
   <g id="patch_19">
    <path clip-path="url(#pfa04eaa3b1)" d="M 402.32 255.482349 
L 416.189841 255.482349 
L 416.189841 231.334787 
L 402.32 231.334787 
z
" style="fill:#1f77b4;opacity:0.4;"/>
   </g>
   <g id="patch_20">
    <path clip-path="url(#pfa04eaa3b1)" d="M 402.32 231.334787 
L 416.189841 231.334787 
L 416.189841 207.187225 
L 402.32 207.187225 
z
" style="fill:#1f77b4;opacity:0.4;"/>
   </g>
   <g id="patch_21">
    <path clip-path="url(#pfa04eaa3b1)" d="M 402.32 207.187225 
L 485.539048 207.187225 
L 485.539048 183.039663 
L 402.32 183.039663 
z
" style="fill:#1f77b4;opacity:0.4;"/>
   </g>
   <g id="patch_22">
    <path clip-path="url(#pfa04eaa3b1)" d="M 402.32 183.039663 
L 457.799365 183.039663 
L 457.799365 158.892101 
L 402.32 158.892101 
z
" style="fill:#1f77b4;opacity:0.4;"/>
   </g>
   <g id="patch_23">
    <path clip-path="url(#pfa04eaa3b1)" d="M 402.32 158.892101 
L 443.929524 158.892101 
L 443.929524 134.744539 
L 402.32 134.744539 
z
" style="fill:#1f77b4;opacity:0.4;"/>
   </g>
   <g id="patch_24">
    <path clip-path="url(#pfa04eaa3b1)" d="M 402.32 210.740402 
L 465.122547 210.740402 
L 465.122547 190.741839 
L 402.32 190.741839 
z
" style="fill:#ff7f0e;opacity:0.4;"/>
   </g>
   <g id="patch_25">
    <path clip-path="url(#pfa04eaa3b1)" d="M 402.32 190.741839 
L 496.52382 190.741839 
L 496.52382 170.743276 
L 402.32 170.743276 
z
" style="fill:#ff7f0e;opacity:0.4;"/>
   </g>
   <g id="patch_26">
    <path clip-path="url(#pfa04eaa3b1)" d="M 402.32 170.743276 
L 465.122547 170.743276 
L 465.122547 150.744713 
L 402.32 150.744713 
z
" style="fill:#ff7f0e;opacity:0.4;"/>
   </g>
   <g id="patch_27">
    <path clip-path="url(#pfa04eaa3b1)" d="M 402.32 150.744713 
L 433.721273 150.744713 
L 433.721273 130.746149 
L 402.32 130.746149 
z
" style="fill:#ff7f0e;opacity:0.4;"/>
   </g>
   <g id="patch_28">
    <path clip-path="url(#pfa04eaa3b1)" d="M 402.32 237.945161 
L 455.662891 237.945161 
L 455.662891 208.513856 
L 402.32 208.513856 
z
" style="fill:#2ca02c;opacity:0.4;"/>
   </g>
   <g id="patch_29">
    <path clip-path="url(#pfa04eaa3b1)" d="M 402.32 208.513856 
L 444.994312 208.513856 
L 444.994312 179.082551 
L 402.32 179.082551 
z
" style="fill:#2ca02c;opacity:0.4;"/>
   </g>
   <g id="patch_30">
    <path clip-path="url(#pfa04eaa3b1)" d="M 402.32 179.082551 
L 477.000047 179.082551 
L 477.000047 149.651246 
L 402.32 149.651246 
z
" style="fill:#2ca02c;opacity:0.4;"/>
   </g>
   <g id="patch_31">
    <path clip-path="url(#pfa04eaa3b1)" d="M 402.32 250.429797 
L 452.132101 250.429797 
L 452.132101 223.534899 
L 402.32 223.534899 
z
" style="fill:#d62728;opacity:0.4;"/>
   </g>
   <g id="patch_32">
    <path clip-path="url(#pfa04eaa3b1)" d="M 402.32 223.534899 
L 464.585127 223.534899 
L 464.585127 196.64 
L 402.32 196.64 
z
" style="fill:#d62728;opacity:0.4;"/>
   </g>
   <g id="patch_33">
    <path clip-path="url(#pfa04eaa3b1)" d="M 402.32 196.64 
L 439.679076 196.64 
L 439.679076 169.745101 
L 402.32 169.745101 
z
" style="fill:#d62728;opacity:0.4;"/>
   </g>
   <g id="patch_34">
    <path clip-path="url(#pfa04eaa3b1)" d="M 402.32 169.745101 
L 439.679076 169.745101 
L 439.679076 142.850203 
L 402.32 142.850203 
z
" style="fill:#d62728;opacity:0.4;"/>
   </g>
   <g id="line2d_16">
    <path clip-path="url(#pfa04eaa3b1)" d="M 402.527103 296.852651 
L 402.651049 292.046074 
L 403.034536 287.239498 
L 403.488187 284.035113 
L 404.142942 280.830729 
L 405.021789 277.626344 
L 406.118571 274.42196 
L 408.052916 269.615383 
L 409.998507 264.808806 
L 411.052569 261.604422 
L 411.742522 258.400037 
L 411.918447 256.797845 
L 411.97307 255.195653 
L 411.906563 253.593461 
L 411.439031 250.389076 
L 410.626999 247.184692 
L 408.749253 240.775923 
L 408.15918 237.571538 
L 408.057136 235.969346 
L 408.120818 234.367154 
L 408.375304 232.764962 
L 408.843 231.162769 
L 409.543262 229.560577 
L 410.492021 227.958385 
L 411.701408 226.356193 
L 413.179372 224.754 
L 414.929327 223.151808 
L 416.949834 221.549616 
L 419.234383 219.947424 
L 421.771281 218.345231 
L 427.529822 215.140847 
L 434.033517 211.936462 
L 444.60976 207.129886 
L 455.224601 202.323309 
L 461.755512 199.118925 
L 464.72871 197.516732 
L 467.452058 195.91454 
L 469.886834 194.312348 
L 471.997451 192.710156 
L 473.75256 191.107963 
L 475.126257 189.505771 
L 476.099308 187.903579 
L 476.660296 186.301387 
L 476.806563 184.699194 
L 476.544846 183.097002 
L 475.891498 181.49481 
L 474.872234 179.892618 
L 473.521385 178.290425 
L 471.880675 176.688233 
L 469.997598 175.086041 
L 465.711445 171.881657 
L 454.303662 163.870695 
L 450.275635 160.666311 
L 446.777987 157.461926 
L 443.78561 154.257542 
L 441.169877 151.053157 
L 434.976951 143.042196 
L 432.158044 139.837812 
L 429.003204 136.633427 
L 425.547001 133.429043 
L 414.818991 123.815889 
L 411.724129 120.611505 
L 409.100565 117.40712 
L 406.997844 114.202736 
L 405.404191 110.998351 
L 404.262107 107.793967 
L 403.489057 104.589583 
L 402.997237 101.385198 
L 402.708606 98.180814 
L 402.533436 93.374237 
L 402.533436 93.374237 
" style="fill:none;stroke:#1f77b4;stroke-linecap:square;stroke-width:1.5;"/>
   </g>
   <g id="line2d_17">
    <path clip-path="url(#pfa04eaa3b1)" d="M 402.593553 247.253716 
L 402.745218 243.63905 
L 402.996524 241.229272 
L 403.414653 238.819495 
L 404.058744 236.409717 
L 405.001935 233.999939 
L 406.325818 231.590162 
L 408.111897 229.180384 
L 410.430453 226.770606 
L 413.328223 224.360829 
L 416.817175 221.951051 
L 420.867138 219.541273 
L 425.40475 217.131496 
L 432.878104 213.516829 
L 456.052739 202.67283 
L 462.988604 199.058163 
L 467.239511 196.648386 
L 471.122965 194.238608 
L 474.549776 191.82883 
L 477.404613 189.419053 
L 478.577555 188.214164 
L 479.559877 187.009275 
L 480.33749 185.804386 
L 480.898587 184.599497 
L 481.234356 183.394608 
L 481.339545 182.18972 
L 481.212841 180.984831 
L 480.857024 179.779942 
L 480.278899 178.575053 
L 479.489008 177.370164 
L 478.501157 176.165275 
L 477.331797 174.960387 
L 474.523246 172.550609 
L 471.220254 170.140831 
L 465.67225 166.526165 
L 448.375607 155.682165 
L 444.957321 153.272388 
L 441.853121 150.86261 
L 439.111865 148.452832 
L 436.748727 146.043055 
L 434.733743 143.633277 
L 432.988618 141.223499 
L 428.114046 133.994166 
L 426.194848 131.584389 
L 424.011181 129.174611 
L 420.291353 125.559945 
L 412.456609 118.330612 
L 410.165811 115.920834 
L 408.18611 113.511056 
L 406.553815 111.101279 
L 405.26863 108.691501 
L 404.301931 106.281723 
L 403.607798 103.871946 
L 403.134018 101.462168 
L 402.730939 97.847501 
L 402.592044 94.232835 
L 402.592044 94.232835 
" style="fill:none;stroke:#ff7f0e;stroke-linecap:square;stroke-width:1.5;"/>
   </g>
   <g id="line2d_18">
    <path clip-path="url(#pfa04eaa3b1)" d="M 402.5189 287.533587 
L 402.642314 281.628995 
L 402.923634 277.200552 
L 403.447609 272.772109 
L 403.985656 269.819813 
L 404.719695 266.867518 
L 405.690271 263.915222 
L 406.935528 260.962927 
L 408.486663 258.010631 
L 410.36312 255.058336 
L 412.568132 252.10604 
L 415.085348 249.153744 
L 417.877216 246.201449 
L 422.448135 241.773006 
L 433.454196 231.439971 
L 436.306322 228.487676 
L 438.91225 225.53538 
L 441.244571 222.583085 
L 443.301252 219.630789 
L 445.102857 216.678494 
L 446.686856 213.726198 
L 448.758573 209.297755 
L 451.200819 203.393164 
L 459.348217 182.727095 
L 460.240987 179.774799 
L 460.851089 176.822504 
L 461.011902 175.346356 
L 461.055169 173.870208 
L 460.965081 172.39406 
L 460.726689 170.917913 
L 460.326483 169.441765 
L 459.752963 167.965617 
L 458.997169 166.489469 
L 458.053139 165.013322 
L 456.918273 163.537174 
L 455.593584 162.061026 
L 454.08382 160.584878 
L 450.546535 157.632583 
L 446.41535 154.680287 
L 441.845064 151.727992 
L 422.902527 139.918809 
L 418.839429 136.966514 
L 415.267747 134.014218 
L 412.226199 131.061923 
L 409.715246 128.109627 
L 407.704664 125.157332 
L 406.142685 122.205036 
L 404.965254 119.252741 
L 404.10428 116.300445 
L 403.494171 113.34815 
L 403.076408 110.395854 
L 402.70679 105.967411 
L 402.524557 100.06282 
L 402.524557 100.06282 
" style="fill:none;stroke:#2ca02c;stroke-linecap:square;stroke-width:1.5;"/>
   </g>
   <g id="line2d_19">
    <path clip-path="url(#pfa04eaa3b1)" d="M 402.494893 307.149091 
L 402.661271 300.187888 
L 402.989815 294.966986 
L 403.597342 289.746084 
L 404.221732 286.265483 
L 405.072827 282.784882 
L 406.19411 279.304281 
L 407.623105 275.823679 
L 409.385791 272.343078 
L 411.491511 268.862477 
L 413.929426 265.381875 
L 416.667394 261.901274 
L 419.653796 258.420673 
L 424.45129 253.199771 
L 435.839936 241.017666 
L 440.297469 235.796764 
L 443.017364 232.316163 
L 445.499075 228.835562 
L 447.714408 225.354961 
L 449.636849 221.874359 
L 451.242713 218.393758 
L 452.51405 214.913157 
L 453.442112 211.432555 
L 454.029823 207.951954 
L 454.291857 204.471353 
L 454.251642 200.990752 
L 453.935618 197.51015 
L 453.366134 194.029549 
L 452.555025 190.548948 
L 451.500007 187.068346 
L 450.185404 183.587745 
L 448.587552 180.107144 
L 446.683816 176.626543 
L 444.462983 173.145941 
L 441.934205 169.66534 
L 439.131967 166.184739 
L 434.551083 160.963837 
L 423.549077 148.781732 
L 420.667815 145.301131 
L 417.994364 141.82053 
L 415.549871 138.339928 
L 413.342611 134.859327 
L 411.372777 131.378726 
L 409.636337 127.898125 
L 408.12718 124.417523 
L 406.837572 120.936922 
L 405.757505 117.456321 
L 404.873766 113.975719 
L 404.169432 110.495118 
L 403.404161 105.274216 
L 402.919765 100.053314 
L 402.641653 94.832412 
L 402.49343 87.87121 
L 402.4881 86.130909 
L 402.4881 86.130909 
" style="fill:none;stroke:#d62728;stroke-linecap:square;stroke-width:1.5;"/>
   </g>
  </g>
  <g id="axes_4">
   <g id="patch_35">
    <path d="M 402.32 75.08 
L 489.7 75.08 
L 489.7 14.3 
L 402.32 14.3 
z
" style="fill:#ffffff;"/>
   </g>
   <g id="matplotlib.axis_3">
    <g id="xtick_6">
     <g id="line2d_20">
      <g>
       <use style="stroke:#000000;stroke-width:0.8;" x="402.32" xlink:href="#m838d6a7bf9" y="75.08"/>
      </g>
     </g>
    </g>
    <g id="xtick_7">
     <g id="line2d_21">
      <g>
       <use style="stroke:#000000;stroke-width:0.8;" x="446.01" xlink:href="#m838d6a7bf9" y="75.08"/>
      </g>
     </g>
    </g>
    <g id="xtick_8">
     <g id="line2d_22">
      <g>
       <use style="stroke:#000000;stroke-width:0.8;" x="489.7" xlink:href="#m838d6a7bf9" y="75.08"/>
      </g>
     </g>
    </g>
   </g>
   <g id="matplotlib.axis_4">
    <g id="ytick_7">
     <g id="line2d_23">
      <g>
       <use style="stroke:#000000;stroke-width:0.8;" x="402.32" xlink:href="#m652961d703" y="75.08"/>
      </g>
     </g>
    </g>
    <g id="ytick_8">
     <g id="line2d_24">
      <g>
       <use style="stroke:#000000;stroke-width:0.8;" x="402.32" xlink:href="#m652961d703" y="44.69"/>
      </g>
     </g>
    </g>
    <g id="ytick_9">
     <g id="line2d_25">
      <g>
       <use style="stroke:#000000;stroke-width:0.8;" x="402.32" xlink:href="#m652961d703" y="14.3"/>
      </g>
     </g>
    </g>
   </g>
   <g id="patch_36">
    <path d="M 402.32 75.08 
L 402.32 14.3 
" style="fill:none;stroke:#000000;stroke-linecap:square;stroke-linejoin:miter;stroke-width:0.8;"/>
   </g>
   <g id="patch_37">
    <path d="M 489.7 75.08 
L 489.7 14.3 
" style="fill:none;stroke:#000000;stroke-linecap:square;stroke-linejoin:miter;stroke-width:0.8;"/>
   </g>
   <g id="patch_38">
    <path d="M 402.32 75.08 
L 489.7 75.08 
" style="fill:none;stroke:#000000;stroke-linecap:square;stroke-linejoin:miter;stroke-width:0.8;"/>
   </g>
   <g id="patch_39">
    <path d="M 402.32 14.3 
L 489.7 14.3 
" style="fill:none;stroke:#000000;stroke-linecap:square;stroke-linejoin:miter;stroke-width:0.8;"/>
   </g>
   <g id="legend_1">
    <g id="patch_40">
     <path d="M 434.796875 81.0125 
L 482.7 81.0125 
Q 484.7 81.0125 484.7 79.0125 
L 484.7 21.3 
Q 484.7 19.3 482.7 19.3 
L 434.796875 19.3 
Q 432.796875 19.3 432.796875 21.3 
L 432.796875 79.0125 
Q 432.796875 81.0125 434.796875 81.0125 
z
" style="fill:#ffffff;opacity:0.8;stroke:#cccccc;stroke-linejoin:miter;"/>
    </g>
    <g id="patch_41">
     <path d="M 436.796875 30.898438 
L 456.796875 30.898438 
L 456.796875 23.898438 
L 436.796875 23.898438 
z
" style="fill:#1f77b4;stroke:#1f77b4;stroke-linejoin:miter;"/>
    </g>
    <g id="text_14">
     <!-- 1.0 -->
     <defs>
      <path d="M 10.6875 12.40625 
L 21 12.40625 
L 21 0 
L 10.6875 0 
z
" id="DejaVuSans-2e"/>
     </defs>
     <g transform="translate(464.796875 30.898438)scale(0.1 -0.1)">
      <use xlink:href="#DejaVuSans-31"/>
      <use x="63.623047" xlink:href="#DejaVuSans-2e"/>
      <use x="95.410156" xlink:href="#DejaVuSans-30"/>
     </g>
    </g>
    <g id="patch_42">
     <path d="M 436.796875 45.576563 
L 456.796875 45.576563 
L 456.796875 38.576563 
L 436.796875 38.576563 
z
" style="fill:#ff7f0e;stroke:#ff7f0e;stroke-linejoin:miter;"/>
    </g>
    <g id="text_15">
     <!-- 0.0 -->
     <g transform="translate(464.796875 45.576563)scale(0.1 -0.1)">
      <use xlink:href="#DejaVuSans-30"/>
      <use x="63.623047" xlink:href="#DejaVuSans-2e"/>
      <use x="95.410156" xlink:href="#DejaVuSans-30"/>
     </g>
    </g>
    <g id="patch_43">
     <path d="M 436.796875 60.254688 
L 456.796875 60.254688 
L 456.796875 53.254688 
L 436.796875 53.254688 
z
" style="fill:#2ca02c;stroke:#2ca02c;stroke-linejoin:miter;"/>
    </g>
    <g id="text_16">
     <!-- 3.0 -->
     <defs>
      <path d="M 40.578125 39.3125 
Q 47.65625 37.796875 51.625 33 
Q 55.609375 28.21875 55.609375 21.1875 
Q 55.609375 10.40625 48.1875 4.484375 
Q 40.765625 -1.421875 27.09375 -1.421875 
Q 22.515625 -1.421875 17.65625 -0.515625 
Q 12.796875 0.390625 7.625 2.203125 
L 7.625 11.71875 
Q 11.71875 9.328125 16.59375 8.109375 
Q 21.484375 6.890625 26.8125 6.890625 
Q 36.078125 6.890625 40.9375 10.546875 
Q 45.796875 14.203125 45.796875 21.1875 
Q 45.796875 27.640625 41.28125 31.265625 
Q 36.765625 34.90625 28.71875 34.90625 
L 20.21875 34.90625 
L 20.21875 43.015625 
L 29.109375 43.015625 
Q 36.375 43.015625 40.234375 45.921875 
Q 44.09375 48.828125 44.09375 54.296875 
Q 44.09375 59.90625 40.109375 62.90625 
Q 36.140625 65.921875 28.71875 65.921875 
Q 24.65625 65.921875 20.015625 65.03125 
Q 15.375 64.15625 9.8125 62.3125 
L 9.8125 71.09375 
Q 15.4375 72.65625 20.34375 73.4375 
Q 25.25 74.21875 29.59375 74.21875 
Q 40.828125 74.21875 47.359375 69.109375 
Q 53.90625 64.015625 53.90625 55.328125 
Q 53.90625 49.265625 50.4375 45.09375 
Q 46.96875 40.921875 40.578125 39.3125 
z
" id="DejaVuSans-33"/>
     </defs>
     <g transform="translate(464.796875 60.254688)scale(0.1 -0.1)">
      <use xlink:href="#DejaVuSans-33"/>
      <use x="63.623047" xlink:href="#DejaVuSans-2e"/>
      <use x="95.410156" xlink:href="#DejaVuSans-30"/>
     </g>
    </g>
    <g id="patch_44">
     <path d="M 436.796875 74.932813 
L 456.796875 74.932813 
L 456.796875 67.932813 
L 436.796875 67.932813 
z
" style="fill:#d62728;stroke:#d62728;stroke-linejoin:miter;"/>
    </g>
    <g id="text_17">
     <!-- 2.0 -->
     <g transform="translate(464.796875 74.932813)scale(0.1 -0.1)">
      <use xlink:href="#DejaVuSans-32"/>
      <use x="63.623047" xlink:href="#DejaVuSans-2e"/>
      <use x="95.410156" xlink:href="#DejaVuSans-30"/>
     </g>
    </g>
   </g>
  </g>
 </g>
 <defs>
  <clipPath id="p6a184e80df">
   <rect height="243.12" width="349.52" x="52.8" y="75.08"/>
  </clipPath>
  <clipPath id="p1df9478c9d">
   <rect height="60.78" width="349.52" x="52.8" y="14.3"/>
  </clipPath>
  <clipPath id="pfa04eaa3b1">
   <rect height="243.12" width="87.38" x="402.32" y="75.08"/>
  </clipPath>
 </defs>
</svg>
