<?xml version="1.0" encoding="utf-8" standalone="no"?>
<!DOCTYPE svg PUBLIC "-//W3C//DTD SVG 1.1//EN"
  "http://www.w3.org/Graphics/SVG/1.1/DTD/svg11.dtd">
<!-- Created with matplotlib (http://matplotlib.org/) -->
<svg height="360pt" version="1.1" viewBox="0 0 504 360" width="504pt" xmlns="http://www.w3.org/2000/svg" xmlns:xlink="http://www.w3.org/1999/xlink">
 <defs>
  <style type="text/css">
*{stroke-linecap:butt;stroke-linejoin:round;}
  </style>
 </defs>
 <g id="figure_1">
  <g id="patch_1">
   <path d="M 0 360 
L 504 360 
L 504 0 
L 0 0 
z
" style="fill:#ffffff;"/>
  </g>
  <g id="axes_1">
   <g id="patch_2">
    <path d="M 52.8 318.2 
L 402.32 318.2 
L 402.32 75.08 
L 52.8 75.08 
z
" style="fill:#ffffff;"/>
   </g>
   <g id="PathCollection_1">
    <defs>
     <path d="M 0 3 
C 0.795609 3 1.55874 2.683901 2.12132 2.12132 
C 2.683901 1.55874 3 0.795609 3 0 
C 3 -0.795609 2.683901 -1.55874 2.12132 -2.12132 
C 1.55874 -2.683901 0.795609 -3 0 -3 
C -0.795609 -3 -1.55874 -2.683901 -2.12132 -2.12132 
C -2.683901 -1.55874 -3 -0.795609 -3 0 
C -3 0.795609 -2.683901 1.55874 -2.12132 2.12132 
C -1.55874 2.683901 -0.795609 3 0 3 
z
" id="mdcc96ce55a" style="stroke:#1f77b4;stroke-opacity:0.4;"/>
    </defs>
    <g clip-path="url(#p6156858eec)">
     <use style="fill:#1f77b4;fill-opacity:0.4;stroke:#1f77b4;stroke-opacity:0.4;" x="237.139367" xlink:href="#mdcc96ce55a" y="125.143528"/>
     <use style="fill:#1f77b4;fill-opacity:0.4;stroke:#1f77b4;stroke-opacity:0.4;" x="220.983767" xlink:href="#mdcc96ce55a" y="167.195665"/>
     <use style="fill:#1f77b4;fill-opacity:0.4;stroke:#1f77b4;stroke-opacity:0.4;" x="218.58076" xlink:href="#mdcc96ce55a" y="153.429092"/>
     <use style="fill:#1f77b4;fill-opacity:0.4;stroke:#1f77b4;stroke-opacity:0.4;" x="239.768752" xlink:href="#mdcc96ce55a" y="153.991898"/>
     <use style="fill:#1f77b4;fill-opacity:0.4;stroke:#1f77b4;stroke-opacity:0.4;" x="270.962584" xlink:href="#mdcc96ce55a" y="149.634157"/>
     <use style="fill:#1f77b4;fill-opacity:0.4;stroke:#1f77b4;stroke-opacity:0.4;" x="180.302872" xlink:href="#mdcc96ce55a" y="167.983431"/>
     <use style="fill:#1f77b4;fill-opacity:0.4;stroke:#1f77b4;stroke-opacity:0.4;" x="326.243966" xlink:href="#mdcc96ce55a" y="195.949198"/>
     <use style="fill:#1f77b4;fill-opacity:0.4;stroke:#1f77b4;stroke-opacity:0.4;" x="242.864921" xlink:href="#mdcc96ce55a" y="170.718202"/>
     <use style="fill:#1f77b4;fill-opacity:0.4;stroke:#1f77b4;stroke-opacity:0.4;" x="217.940095" xlink:href="#mdcc96ce55a" y="208.724117"/>
     <use style="fill:#1f77b4;fill-opacity:0.4;stroke:#1f77b4;stroke-opacity:0.4;" x="250.012893" xlink:href="#mdcc96ce55a" y="216.935013"/>
     <use style="fill:#1f77b4;fill-opacity:0.4;stroke:#1f77b4;stroke-opacity:0.4;" x="229.132559" xlink:href="#mdcc96ce55a" y="111.989258"/>
     <use style="fill:#1f77b4;fill-opacity:0.4;stroke:#1f77b4;stroke-opacity:0.4;" x="304.380227" xlink:href="#mdcc96ce55a" y="196.254419"/>
     <use style="fill:#1f77b4;fill-opacity:0.4;stroke:#1f77b4;stroke-opacity:0.4;" x="248.627708" xlink:href="#mdcc96ce55a" y="190.37058"/>
     <use style="fill:#1f77b4;fill-opacity:0.4;stroke:#1f77b4;stroke-opacity:0.4;" x="185.705886" xlink:href="#mdcc96ce55a" y="185.557935"/>
     <use style="fill:#1f77b4;fill-opacity:0.4;stroke:#1f77b4;stroke-opacity:0.4;" x="195.764714" xlink:href="#mdcc96ce55a" y="238.372096"/>
     <use style="fill:#1f77b4;fill-opacity:0.4;stroke:#1f77b4;stroke-opacity:0.4;" x="230.799606" xlink:href="#mdcc96ce55a" y="198.313902"/>
     <use style="fill:#1f77b4;fill-opacity:0.4;stroke:#1f77b4;stroke-opacity:0.4;" x="216.470717" xlink:href="#mdcc96ce55a" y="229.596632"/>
     <use style="fill:#1f77b4;fill-opacity:0.4;stroke:#1f77b4;stroke-opacity:0.4;" x="214.449254" xlink:href="#mdcc96ce55a" y="281.140072"/>
     <use style="fill:#1f77b4;fill-opacity:0.4;stroke:#1f77b4;stroke-opacity:0.4;" x="201.698231" xlink:href="#mdcc96ce55a" y="307.114208"/>
     <use style="fill:#1f77b4;fill-opacity:0.4;stroke:#1f77b4;stroke-opacity:0.4;" x="193.677923" xlink:href="#mdcc96ce55a" y="277.138609"/>
     <use style="fill:#1f77b4;fill-opacity:0.4;stroke:#1f77b4;stroke-opacity:0.4;" x="203.793908" xlink:href="#mdcc96ce55a" y="255.12688"/>
     <use style="fill:#1f77b4;fill-opacity:0.4;stroke:#1f77b4;stroke-opacity:0.4;" x="252.761687" xlink:href="#mdcc96ce55a" y="138.646832"/>
     <use style="fill:#1f77b4;fill-opacity:0.4;stroke:#1f77b4;stroke-opacity:0.4;" x="221.335637" xlink:href="#mdcc96ce55a" y="140.118201"/>
     <use style="fill:#1f77b4;fill-opacity:0.4;stroke:#1f77b4;stroke-opacity:0.4;" x="210.811882" xlink:href="#mdcc96ce55a" y="125.603188"/>
     <use style="fill:#1f77b4;fill-opacity:0.4;stroke:#1f77b4;stroke-opacity:0.4;" x="188.808652" xlink:href="#mdcc96ce55a" y="135.232832"/>
     <use style="fill:#1f77b4;fill-opacity:0.4;stroke:#1f77b4;stroke-opacity:0.4;" x="153.350624" xlink:href="#mdcc96ce55a" y="289.014275"/>
     <use style="fill:#1f77b4;fill-opacity:0.4;stroke:#1f77b4;stroke-opacity:0.4;" x="226.69348" xlink:href="#mdcc96ce55a" y="259.702808"/>
     <use style="fill:#1f77b4;fill-opacity:0.4;stroke:#1f77b4;stroke-opacity:0.4;" x="248.013004" xlink:href="#mdcc96ce55a" y="253.08864"/>
     <use style="fill:#1f77b4;fill-opacity:0.4;stroke:#1f77b4;stroke-opacity:0.4;" x="244.980143" xlink:href="#mdcc96ce55a" y="237.278066"/>
     <use style="fill:#1f77b4;fill-opacity:0.4;stroke:#1f77b4;stroke-opacity:0.4;" x="182.27055" xlink:href="#mdcc96ce55a" y="251.00512"/>
     <use style="fill:#1f77b4;fill-opacity:0.4;stroke:#1f77b4;stroke-opacity:0.4;" x="235.192698" xlink:href="#mdcc96ce55a" y="284.836881"/>
    </g>
   </g>
   <g id="PathCollection_2">
    <defs>
     <path d="M 0 3 
C 0.795609 3 1.55874 2.683901 2.12132 2.12132 
C 2.683901 1.55874 3 0.795609 3 0 
C 3 -0.795609 2.683901 -1.55874 2.12132 -2.12132 
C 1.55874 -2.683901 0.795609 -3 0 -3 
C -0.795609 -3 -1.55874 -2.683901 -2.12132 -2.12132 
C -2.683901 -1.55874 -3 -0.795609 -3 0 
C -3 0.795609 -2.683901 1.55874 -2.12132 2.12132 
C -1.55874 2.683901 -0.795609 3 0 3 
z
" id="m994ec0443f" style="stroke:#ff7f0e;stroke-opacity:0.4;"/>
    </defs>
    <g clip-path="url(#p6156858eec)">
     <use style="fill:#ff7f0e;fill-opacity:0.4;stroke:#ff7f0e;stroke-opacity:0.4;" x="319.381045" xlink:href="#m994ec0443f" y="186.125533"/>
     <use style="fill:#ff7f0e;fill-opacity:0.4;stroke:#ff7f0e;stroke-opacity:0.4;" x="225.82683" xlink:href="#m994ec0443f" y="183.711062"/>
     <use style="fill:#ff7f0e;fill-opacity:0.4;stroke:#ff7f0e;stroke-opacity:0.4;" x="177.659432" xlink:href="#m994ec0443f" y="152.314734"/>
     <use style="fill:#ff7f0e;fill-opacity:0.4;stroke:#ff7f0e;stroke-opacity:0.4;" x="208.379357" xlink:href="#m994ec0443f" y="193.505656"/>
     <use style="fill:#ff7f0e;fill-opacity:0.4;stroke:#ff7f0e;stroke-opacity:0.4;" x="196.663698" xlink:href="#m994ec0443f" y="215.769214"/>
     <use style="fill:#ff7f0e;fill-opacity:0.4;stroke:#ff7f0e;stroke-opacity:0.4;" x="200.085806" xlink:href="#m994ec0443f" y="146.905133"/>
     <use style="fill:#ff7f0e;fill-opacity:0.4;stroke:#ff7f0e;stroke-opacity:0.4;" x="204.109165" xlink:href="#m994ec0443f" y="175.84363"/>
     <use style="fill:#ff7f0e;fill-opacity:0.4;stroke:#ff7f0e;stroke-opacity:0.4;" x="205.995279" xlink:href="#m994ec0443f" y="105.536719"/>
     <use style="fill:#ff7f0e;fill-opacity:0.4;stroke:#ff7f0e;stroke-opacity:0.4;" x="225.241367" xlink:href="#m994ec0443f" y="95.853094"/>
     <use style="fill:#ff7f0e;fill-opacity:0.4;stroke:#ff7f0e;stroke-opacity:0.4;" x="196.717845" xlink:href="#m994ec0443f" y="89.093301"/>
     <use style="fill:#ff7f0e;fill-opacity:0.4;stroke:#ff7f0e;stroke-opacity:0.4;" x="247.458147" xlink:href="#m994ec0443f" y="101.42519"/>
     <use style="fill:#ff7f0e;fill-opacity:0.4;stroke:#ff7f0e;stroke-opacity:0.4;" x="234.487839" xlink:href="#m994ec0443f" y="271.692913"/>
     <use style="fill:#ff7f0e;fill-opacity:0.4;stroke:#ff7f0e;stroke-opacity:0.4;" x="220.626153" xlink:href="#m994ec0443f" y="297.037201"/>
     <use style="fill:#ff7f0e;fill-opacity:0.4;stroke:#ff7f0e;stroke-opacity:0.4;" x="161.137805" xlink:href="#m994ec0443f" y="243.142632"/>
     <use style="fill:#ff7f0e;fill-opacity:0.4;stroke:#ff7f0e;stroke-opacity:0.4;" x="177.448668" xlink:href="#m994ec0443f" y="286.613425"/>
     <use style="fill:#ff7f0e;fill-opacity:0.4;stroke:#ff7f0e;stroke-opacity:0.4;" x="170.657101" xlink:href="#m994ec0443f" y="273.752984"/>
     <use style="fill:#ff7f0e;fill-opacity:0.4;stroke:#ff7f0e;stroke-opacity:0.4;" x="146.482074" xlink:href="#m994ec0443f" y="273.37013"/>
     <use style="fill:#ff7f0e;fill-opacity:0.4;stroke:#ff7f0e;stroke-opacity:0.4;" x="175.40594" xlink:href="#m994ec0443f" y="301.355032"/>
     <use style="fill:#ff7f0e;fill-opacity:0.4;stroke:#ff7f0e;stroke-opacity:0.4;" x="258.487222" xlink:href="#m994ec0443f" y="266.404185"/>
     <use style="fill:#ff7f0e;fill-opacity:0.4;stroke:#ff7f0e;stroke-opacity:0.4;" x="198.832482" xlink:href="#m994ec0443f" y="291.229767"/>
     <use style="fill:#ff7f0e;fill-opacity:0.4;stroke:#ff7f0e;stroke-opacity:0.4;" x="187.650836" xlink:href="#m994ec0443f" y="264.552195"/>
     <use style="fill:#ff7f0e;fill-opacity:0.4;stroke:#ff7f0e;stroke-opacity:0.4;" x="256.405028" xlink:href="#m994ec0443f" y="116.538043"/>
     <use style="fill:#ff7f0e;fill-opacity:0.4;stroke:#ff7f0e;stroke-opacity:0.4;" x="199.70031" xlink:href="#m994ec0443f" y="161.018909"/>
     <use style="fill:#ff7f0e;fill-opacity:0.4;stroke:#ff7f0e;stroke-opacity:0.4;" x="163.771676" xlink:href="#m994ec0443f" y="260.217097"/>
     <use style="fill:#ff7f0e;fill-opacity:0.4;stroke:#ff7f0e;stroke-opacity:0.4;" x="246.290028" xlink:href="#m994ec0443f" y="298.236948"/>
     <use style="fill:#ff7f0e;fill-opacity:0.4;stroke:#ff7f0e;stroke-opacity:0.4;" x="221.501134" xlink:href="#m994ec0443f" y="246.094894"/>
     <use style="fill:#ff7f0e;fill-opacity:0.4;stroke:#ff7f0e;stroke-opacity:0.4;" x="259.500406" xlink:href="#m994ec0443f" y="281.471708"/>
     <use style="fill:#ff7f0e;fill-opacity:0.4;stroke:#ff7f0e;stroke-opacity:0.4;" x="210.232658" xlink:href="#m994ec0443f" y="268.23092"/>
     <use style="fill:#ff7f0e;fill-opacity:0.4;stroke:#ff7f0e;stroke-opacity:0.4;" x="135.738955" xlink:href="#m994ec0443f" y="255.945775"/>
     <use style="fill:#ff7f0e;fill-opacity:0.4;stroke:#ff7f0e;stroke-opacity:0.4;" x="271.50403" xlink:href="#m994ec0443f" y="228.10536"/>
     <use style="fill:#ff7f0e;fill-opacity:0.4;stroke:#ff7f0e;stroke-opacity:0.4;" x="287.985367" xlink:href="#m994ec0443f" y="218.689959"/>
    </g>
   </g>
   <g id="matplotlib.axis_1">
    <g id="xtick_1">
     <g id="line2d_1">
      <defs>
       <path d="M 0 0 
L 0 3.5 
" id="m5949d5ba12" style="stroke:#000000;stroke-width:0.8;"/>
      </defs>
      <g>
       <use style="stroke:#000000;stroke-width:0.8;" x="56.651371" xlink:href="#m5949d5ba12" y="318.2"/>
      </g>
     </g>
     <g id="text_1">
      <!-- −40 -->
      <defs>
       <path d="M 10.59375 35.5 
L 73.1875 35.5 
L 73.1875 27.203125 
L 10.59375 27.203125 
z
" id="DejaVuSans-2212"/>
       <path d="M 37.796875 64.3125 
L 12.890625 25.390625 
L 37.796875 25.390625 
z
M 35.203125 72.90625 
L 47.609375 72.90625 
L 47.609375 25.390625 
L 58.015625 25.390625 
L 58.015625 17.1875 
L 47.609375 17.1875 
L 47.609375 0 
L 37.796875 0 
L 37.796875 17.1875 
L 4.890625 17.1875 
L 4.890625 26.703125 
z
" id="DejaVuSans-34"/>
       <path d="M 31.78125 66.40625 
Q 24.171875 66.40625 20.328125 58.90625 
Q 16.5 51.421875 16.5 36.375 
Q 16.5 21.390625 20.328125 13.890625 
Q 24.171875 6.390625 31.78125 6.390625 
Q 39.453125 6.390625 43.28125 13.890625 
Q 47.125 21.390625 47.125 36.375 
Q 47.125 51.421875 43.28125 58.90625 
Q 39.453125 66.40625 31.78125 66.40625 
z
M 31.78125 74.21875 
Q 44.046875 74.21875 50.515625 64.515625 
Q 56.984375 54.828125 56.984375 36.375 
Q 56.984375 17.96875 50.515625 8.265625 
Q 44.046875 -1.421875 31.78125 -1.421875 
Q 19.53125 -1.421875 13.0625 8.265625 
Q 6.59375 17.96875 6.59375 36.375 
Q 6.59375 54.828125 13.0625 64.515625 
Q 19.53125 74.21875 31.78125 74.21875 
z
" id="DejaVuSans-30"/>
      </defs>
      <g transform="translate(46.099027 332.798437)scale(0.1 -0.1)">
       <use xlink:href="#DejaVuSans-2212"/>
       <use x="83.789062" xlink:href="#DejaVuSans-34"/>
       <use x="147.412109" xlink:href="#DejaVuSans-30"/>
      </g>
     </g>
    </g>
    <g id="xtick_2">
     <g id="line2d_2">
      <g>
       <use style="stroke:#000000;stroke-width:0.8;" x="98.513266" xlink:href="#m5949d5ba12" y="318.2"/>
      </g>
     </g>
     <g id="text_2">
      <!-- −30 -->
      <defs>
       <path d="M 40.578125 39.3125 
Q 47.65625 37.796875 51.625 33 
Q 55.609375 28.21875 55.609375 21.1875 
Q 55.609375 10.40625 48.1875 4.484375 
Q 40.765625 -1.421875 27.09375 -1.421875 
Q 22.515625 -1.421875 17.65625 -0.515625 
Q 12.796875 0.390625 7.625 2.203125 
L 7.625 11.71875 
Q 11.71875 9.328125 16.59375 8.109375 
Q 21.484375 6.890625 26.8125 6.890625 
Q 36.078125 6.890625 40.9375 10.546875 
Q 45.796875 14.203125 45.796875 21.1875 
Q 45.796875 27.640625 41.28125 31.265625 
Q 36.765625 34.90625 28.71875 34.90625 
L 20.21875 34.90625 
L 20.21875 43.015625 
L 29.109375 43.015625 
Q 36.375 43.015625 40.234375 45.921875 
Q 44.09375 48.828125 44.09375 54.296875 
Q 44.09375 59.90625 40.109375 62.90625 
Q 36.140625 65.921875 28.71875 65.921875 
Q 24.65625 65.921875 20.015625 65.03125 
Q 15.375 64.15625 9.8125 62.3125 
L 9.8125 71.09375 
Q 15.4375 72.65625 20.34375 73.4375 
Q 25.25 74.21875 29.59375 74.21875 
Q 40.828125 74.21875 47.359375 69.109375 
Q 53.90625 64.015625 53.90625 55.328125 
Q 53.90625 49.265625 50.4375 45.09375 
Q 46.96875 40.921875 40.578125 39.3125 
z
" id="DejaVuSans-33"/>
      </defs>
      <g transform="translate(87.960922 332.798437)scale(0.1 -0.1)">
       <use xlink:href="#DejaVuSans-2212"/>
       <use x="83.789062" xlink:href="#DejaVuSans-33"/>
       <use x="147.412109" xlink:href="#DejaVuSans-30"/>
      </g>
     </g>
    </g>
    <g id="xtick_3">
     <g id="line2d_3">
      <g>
       <use style="stroke:#000000;stroke-width:0.8;" x="140.37516" xlink:href="#m5949d5ba12" y="318.2"/>
      </g>
     </g>
     <g id="text_3">
      <!-- −20 -->
      <defs>
       <path d="M 19.1875 8.296875 
L 53.609375 8.296875 
L 53.609375 0 
L 7.328125 0 
L 7.328125 8.296875 
Q 12.9375 14.109375 22.625 23.890625 
Q 32.328125 33.6875 34.8125 36.53125 
Q 39.546875 41.84375 41.421875 45.53125 
Q 43.3125 49.21875 43.3125 52.78125 
Q 43.3125 58.59375 39.234375 62.25 
Q 35.15625 65.921875 28.609375 65.921875 
Q 23.96875 65.921875 18.8125 64.3125 
Q 13.671875 62.703125 7.8125 59.421875 
L 7.8125 69.390625 
Q 13.765625 71.78125 18.9375 73 
Q 24.125 74.21875 28.421875 74.21875 
Q 39.75 74.21875 46.484375 68.546875 
Q 53.21875 62.890625 53.21875 53.421875 
Q 53.21875 48.921875 51.53125 44.890625 
Q 49.859375 40.875 45.40625 35.40625 
Q 44.1875 33.984375 37.640625 27.21875 
Q 31.109375 20.453125 19.1875 8.296875 
z
" id="DejaVuSans-32"/>
      </defs>
      <g transform="translate(129.822816 332.798437)scale(0.1 -0.1)">
       <use xlink:href="#DejaVuSans-2212"/>
       <use x="83.789062" xlink:href="#DejaVuSans-32"/>
       <use x="147.412109" xlink:href="#DejaVuSans-30"/>
      </g>
     </g>
    </g>
    <g id="xtick_4">
     <g id="line2d_4">
      <g>
       <use style="stroke:#000000;stroke-width:0.8;" x="182.237054" xlink:href="#m5949d5ba12" y="318.2"/>
      </g>
     </g>
     <g id="text_4">
      <!-- −10 -->
      <defs>
       <path d="M 12.40625 8.296875 
L 28.515625 8.296875 
L 28.515625 63.921875 
L 10.984375 60.40625 
L 10.984375 69.390625 
L 28.421875 72.90625 
L 38.28125 72.90625 
L 38.28125 8.296875 
L 54.390625 8.296875 
L 54.390625 0 
L 12.40625 0 
z
" id="DejaVuSans-31"/>
      </defs>
      <g transform="translate(171.684711 332.798437)scale(0.1 -0.1)">
       <use xlink:href="#DejaVuSans-2212"/>
       <use x="83.789062" xlink:href="#DejaVuSans-31"/>
       <use x="147.412109" xlink:href="#DejaVuSans-30"/>
      </g>
     </g>
    </g>
    <g id="xtick_5">
     <g id="line2d_5">
      <g>
       <use style="stroke:#000000;stroke-width:0.8;" x="224.098949" xlink:href="#m5949d5ba12" y="318.2"/>
      </g>
     </g>
     <g id="text_5">
      <!-- 0 -->
      <g transform="translate(220.917699 332.798437)scale(0.1 -0.1)">
       <use xlink:href="#DejaVuSans-30"/>
      </g>
     </g>
    </g>
    <g id="xtick_6">
     <g id="line2d_6">
      <g>
       <use style="stroke:#000000;stroke-width:0.8;" x="265.960843" xlink:href="#m5949d5ba12" y="318.2"/>
      </g>
     </g>
     <g id="text_6">
      <!-- 10 -->
      <g transform="translate(259.598343 332.798437)scale(0.1 -0.1)">
       <use xlink:href="#DejaVuSans-31"/>
       <use x="63.623047" xlink:href="#DejaVuSans-30"/>
      </g>
     </g>
    </g>
    <g id="xtick_7">
     <g id="line2d_7">
      <g>
       <use style="stroke:#000000;stroke-width:0.8;" x="307.822738" xlink:href="#m5949d5ba12" y="318.2"/>
      </g>
     </g>
     <g id="text_7">
      <!-- 20 -->
      <g transform="translate(301.460238 332.798437)scale(0.1 -0.1)">
       <use xlink:href="#DejaVuSans-32"/>
       <use x="63.623047" xlink:href="#DejaVuSans-30"/>
      </g>
     </g>
    </g>
    <g id="xtick_8">
     <g id="line2d_8">
      <g>
       <use style="stroke:#000000;stroke-width:0.8;" x="349.684632" xlink:href="#m5949d5ba12" y="318.2"/>
      </g>
     </g>
     <g id="text_8">
      <!-- 30 -->
      <g transform="translate(343.322132 332.798437)scale(0.1 -0.1)">
       <use xlink:href="#DejaVuSans-33"/>
       <use x="63.623047" xlink:href="#DejaVuSans-30"/>
      </g>
     </g>
    </g>
    <g id="xtick_9">
     <g id="line2d_9">
      <g>
       <use style="stroke:#000000;stroke-width:0.8;" x="391.546527" xlink:href="#m5949d5ba12" y="318.2"/>
      </g>
     </g>
     <g id="text_9">
      <!-- 40 -->
      <g transform="translate(385.184027 332.798437)scale(0.1 -0.1)">
       <use xlink:href="#DejaVuSans-34"/>
       <use x="63.623047" xlink:href="#DejaVuSans-30"/>
      </g>
     </g>
    </g>
    <g id="text_10">
     <!-- x -->
     <defs>
      <path d="M 54.890625 54.6875 
L 35.109375 28.078125 
L 55.90625 0 
L 45.3125 0 
L 29.390625 21.484375 
L 13.484375 0 
L 2.875 0 
L 24.125 28.609375 
L 4.6875 54.6875 
L 15.28125 54.6875 
L 29.78125 35.203125 
L 44.28125 54.6875 
z
" id="DejaVuSans-78"/>
     </defs>
     <g transform="translate(224.600625 346.476562)scale(0.1 -0.1)">
      <use xlink:href="#DejaVuSans-78"/>
     </g>
    </g>
   </g>
   <g id="matplotlib.axis_2">
    <g id="ytick_1">
     <g id="line2d_10">
      <defs>
       <path d="M 0 0 
L -3.5 0 
" id="mc08f939dee" style="stroke:#000000;stroke-width:0.8;"/>
      </defs>
      <g>
       <use style="stroke:#000000;stroke-width:0.8;" x="52.8" xlink:href="#mc08f939dee" y="273.947345"/>
      </g>
     </g>
     <g id="text_11">
      <!-- −20 -->
      <g transform="translate(24.695313 277.746564)scale(0.1 -0.1)">
       <use xlink:href="#DejaVuSans-2212"/>
       <use x="83.789062" xlink:href="#DejaVuSans-32"/>
       <use x="147.412109" xlink:href="#DejaVuSans-30"/>
      </g>
     </g>
    </g>
    <g id="ytick_2">
     <g id="line2d_11">
      <g>
       <use style="stroke:#000000;stroke-width:0.8;" x="52.8" xlink:href="#mc08f939dee" y="223.380939"/>
      </g>
     </g>
     <g id="text_12">
      <!-- 0 -->
      <g transform="translate(39.4375 227.180158)scale(0.1 -0.1)">
       <use xlink:href="#DejaVuSans-30"/>
      </g>
     </g>
    </g>
    <g id="ytick_3">
     <g id="line2d_12">
      <g>
       <use style="stroke:#000000;stroke-width:0.8;" x="52.8" xlink:href="#mc08f939dee" y="172.814533"/>
      </g>
     </g>
     <g id="text_13">
      <!-- 20 -->
      <g transform="translate(33.075 176.613752)scale(0.1 -0.1)">
       <use xlink:href="#DejaVuSans-32"/>
       <use x="63.623047" xlink:href="#DejaVuSans-30"/>
      </g>
     </g>
    </g>
    <g id="ytick_4">
     <g id="line2d_13">
      <g>
       <use style="stroke:#000000;stroke-width:0.8;" x="52.8" xlink:href="#mc08f939dee" y="122.248127"/>
      </g>
     </g>
     <g id="text_14">
      <!-- 40 -->
      <g transform="translate(33.075 126.047346)scale(0.1 -0.1)">
       <use xlink:href="#DejaVuSans-34"/>
       <use x="63.623047" xlink:href="#DejaVuSans-30"/>
      </g>
     </g>
    </g>
    <g id="text_15">
     <!-- y -->
     <defs>
      <path d="M 32.171875 -5.078125 
Q 28.375 -14.84375 24.75 -17.8125 
Q 21.140625 -20.796875 15.09375 -20.796875 
L 7.90625 -20.796875 
L 7.90625 -13.28125 
L 13.1875 -13.28125 
Q 16.890625 -13.28125 18.9375 -11.515625 
Q 21 -9.765625 23.484375 -3.21875 
L 25.09375 0.875 
L 2.984375 54.6875 
L 12.5 54.6875 
L 29.59375 11.921875 
L 46.6875 54.6875 
L 56.203125 54.6875 
z
" id="DejaVuSans-79"/>
     </defs>
     <g transform="translate(18.615625 199.599375)rotate(-90)scale(0.1 -0.1)">
      <use xlink:href="#DejaVuSans-79"/>
     </g>
    </g>
   </g>
   <g id="patch_3">
    <path d="M 52.8 318.2 
L 52.8 75.08 
" style="fill:none;stroke:#000000;stroke-linecap:square;stroke-linejoin:miter;stroke-width:0.8;"/>
   </g>
   <g id="patch_4">
    <path d="M 402.32 318.2 
L 402.32 75.08 
" style="fill:none;stroke:#000000;stroke-linecap:square;stroke-linejoin:miter;stroke-width:0.8;"/>
   </g>
   <g id="patch_5">
    <path d="M 52.8 318.2 
L 402.32 318.2 
" style="fill:none;stroke:#000000;stroke-linecap:square;stroke-linejoin:miter;stroke-width:0.8;"/>
   </g>
   <g id="patch_6">
    <path d="M 52.8 75.08 
L 402.32 75.08 
" style="fill:none;stroke:#000000;stroke-linecap:square;stroke-linejoin:miter;stroke-width:0.8;"/>
   </g>
  </g>
  <g id="axes_2">
   <g id="patch_7">
    <path clip-path="url(#pd7a8087c95)" d="M 153.350624 75.08 
L 178.049673 75.08 
L 178.049673 69.291429 
L 153.350624 69.291429 
z
" style="fill:#1f77b4;opacity:0.4;"/>
   </g>
   <g id="patch_8">
    <path clip-path="url(#pd7a8087c95)" d="M 178.049673 75.08 
L 202.748722 75.08 
L 202.748722 34.56 
L 178.049673 34.56 
z
" style="fill:#1f77b4;opacity:0.4;"/>
   </g>
   <g id="patch_9">
    <path clip-path="url(#pd7a8087c95)" d="M 202.748722 75.08 
L 227.447771 75.08 
L 227.447771 22.982857 
L 202.748722 22.982857 
z
" style="fill:#1f77b4;opacity:0.4;"/>
   </g>
   <g id="patch_10">
    <path clip-path="url(#pd7a8087c95)" d="M 227.447771 75.08 
L 252.14682 75.08 
L 252.14682 17.194286 
L 227.447771 17.194286 
z
" style="fill:#1f77b4;opacity:0.4;"/>
   </g>
   <g id="patch_11">
    <path clip-path="url(#pd7a8087c95)" d="M 252.14682 75.08 
L 276.845868 75.08 
L 276.845868 63.502857 
L 252.14682 63.502857 
z
" style="fill:#1f77b4;opacity:0.4;"/>
   </g>
   <g id="patch_12">
    <path clip-path="url(#pd7a8087c95)" d="M 276.845868 75.08 
L 301.544917 75.08 
L 301.544917 75.08 
L 276.845868 75.08 
z
" style="fill:#1f77b4;opacity:0.4;"/>
   </g>
   <g id="patch_13">
    <path clip-path="url(#pd7a8087c95)" d="M 301.544917 75.08 
L 326.243966 75.08 
L 326.243966 63.502857 
L 301.544917 63.502857 
z
" style="fill:#1f77b4;opacity:0.4;"/>
   </g>
   <g id="patch_14">
    <path clip-path="url(#pd7a8087c95)" d="M 135.738955 75.08 
L 172.467373 75.08 
L 172.467373 55.616569 
L 135.738955 55.616569 
z
" style="fill:#ff7f0e;opacity:0.4;"/>
   </g>
   <g id="patch_15">
    <path clip-path="url(#pd7a8087c95)" d="M 172.467373 75.08 
L 209.195791 75.08 
L 209.195791 28.367765 
L 172.467373 28.367765 
z
" style="fill:#ff7f0e;opacity:0.4;"/>
   </g>
   <g id="patch_16">
    <path clip-path="url(#pd7a8087c95)" d="M 209.195791 75.08 
L 245.924209 75.08 
L 245.924209 51.723882 
L 209.195791 51.723882 
z
" style="fill:#ff7f0e;opacity:0.4;"/>
   </g>
   <g id="patch_17">
    <path clip-path="url(#pd7a8087c95)" d="M 245.924209 75.08 
L 282.652627 75.08 
L 282.652627 51.723882 
L 245.924209 51.723882 
z
" style="fill:#ff7f0e;opacity:0.4;"/>
   </g>
   <g id="patch_18">
    <path clip-path="url(#pd7a8087c95)" d="M 282.652627 75.08 
L 319.381045 75.08 
L 319.381045 67.294627 
L 282.652627 67.294627 
z
" style="fill:#ff7f0e;opacity:0.4;"/>
   </g>
   <g id="line2d_14">
    <path clip-path="url(#pd7a8087c95)" d="M 104.554879 75.01066 
L 113.074086 74.904081 
L 119.463492 74.661555 
L 125.852897 74.197464 
L 132.242303 73.449416 
L 138.631708 72.402935 
L 145.021114 71.06608 
L 149.280717 69.984601 
L 153.540321 68.6817 
L 157.799925 67.059453 
L 162.059528 65.011183 
L 164.18933 63.80161 
L 168.448934 60.996758 
L 172.708537 57.724325 
L 176.968141 54.117325 
L 187.61715 44.851548 
L 191.876754 41.413693 
L 196.136358 38.186948 
L 202.525763 33.659621 
L 208.915169 29.477601 
L 213.174772 26.999971 
L 215.304574 25.908821 
L 217.434376 24.945946 
L 219.564178 24.134262 
L 221.69398 23.495829 
L 223.823781 23.051063 
L 225.953583 22.818254 
L 228.083385 22.813292 
L 230.213187 23.049535 
L 232.342989 23.537662 
L 234.472791 24.2854 
L 236.602592 25.297066 
L 238.732394 26.572885 
L 240.862196 28.108166 
L 242.991998 29.892449 
L 245.1218 31.908789 
L 247.251601 34.133352 
L 251.511205 39.078234 
L 264.290016 54.816069 
L 266.419818 57.121504 
L 268.54962 59.248381 
L 270.679422 61.178657 
L 272.809223 62.901441 
L 274.939025 64.412461 
L 277.068827 65.713255 
L 279.198629 66.810246 
L 281.328431 67.713793 
L 283.458233 68.437319 
L 285.588034 68.996537 
L 287.717836 69.408804 
L 291.97744 69.866858 
L 296.237044 69.963586 
L 302.626449 69.750436 
L 311.145656 69.418737 
L 315.40526 69.413076 
L 319.664864 69.570756 
L 323.924467 69.904014 
L 330.313873 70.703692 
L 338.83308 72.105872 
L 347.352287 73.450094 
L 353.741693 74.191417 
L 360.131098 74.658385 
L 366.520504 74.903023 
L 375.039711 75.010592 
L 375.039711 75.010592 
" style="fill:none;stroke:#1f77b4;stroke-linecap:square;stroke-width:1.5;"/>
   </g>
   <g id="line2d_15">
    <path clip-path="url(#pd7a8087c95)" d="M 68.687273 75.020637 
L 81.196936 74.894189 
L 91.204667 74.550866 
L 98.710465 74.028226 
L 103.714331 73.496369 
L 108.718196 72.782444 
L 113.722062 71.861045 
L 118.725927 70.713907 
L 123.729792 69.331076 
L 128.733658 67.710653 
L 133.737523 65.857638 
L 138.741389 63.782706 
L 143.745254 61.50171 
L 148.74912 59.036208 
L 156.254918 55.057044 
L 178.772312 42.711064 
L 183.776178 40.394675 
L 188.780043 38.46689 
L 191.281976 37.684911 
L 193.783908 37.041512 
L 196.285841 36.547335 
L 198.787774 36.210406 
L 201.289707 36.035599 
L 203.791639 36.024211 
L 206.293572 36.173723 
L 208.795505 36.477757 
L 211.297437 36.926256 
L 213.79937 37.505893 
L 218.803236 38.992688 
L 223.807101 40.792732 
L 233.814832 44.770609 
L 243.822563 48.669235 
L 266.339957 57.209019 
L 278.849621 62.068909 
L 283.853486 63.851586 
L 288.857351 65.45651 
L 293.861217 66.849334 
L 298.865082 68.021138 
L 303.868948 68.987846 
L 311.374746 70.132877 
L 321.382477 71.32362 
L 338.896006 73.100563 
L 348.903737 73.932413 
L 358.911467 74.517225 
L 368.919198 74.848491 
L 381.428862 75.009729 
L 386.432727 75.023057 
L 386.432727 75.023057 
" style="fill:none;stroke:#ff7f0e;stroke-linecap:square;stroke-width:1.5;"/>
   </g>
  </g>
  <g id="axes_3">
   <g id="patch_19">
    <path clip-path="url(#p48bf02e49b)" d="M 402.32 254.07912 
L 457.799365 254.07912 
L 457.799365 229.037112 
L 402.32 229.037112 
z
" style="fill:#1f77b4;opacity:0.4;"/>
   </g>
   <g id="patch_20">
    <path clip-path="url(#p48bf02e49b)" d="M 402.32 229.037112 
L 467.045926 229.037112 
L 467.045926 203.995103 
L 402.32 203.995103 
z
" style="fill:#1f77b4;opacity:0.4;"/>
   </g>
   <g id="patch_21">
    <path clip-path="url(#p48bf02e49b)" d="M 402.32 203.995103 
L 485.539048 203.995103 
L 485.539048 178.953095 
L 402.32 178.953095 
z
" style="fill:#1f77b4;opacity:0.4;"/>
   </g>
   <g id="patch_22">
    <path clip-path="url(#p48bf02e49b)" d="M 402.32 178.953095 
L 485.539048 178.953095 
L 485.539048 153.911086 
L 402.32 153.911086 
z
" style="fill:#1f77b4;opacity:0.4;"/>
   </g>
   <g id="patch_23">
    <path clip-path="url(#p48bf02e49b)" d="M 402.32 251.122628 
L 521.32066 251.122628 
L 521.32066 223.881314 
L 402.32 223.881314 
z
" style="fill:#ff7f0e;opacity:0.4;"/>
   </g>
   <g id="patch_24">
    <path clip-path="url(#p48bf02e49b)" d="M 402.32 223.881314 
L 444.820236 223.881314 
L 444.820236 196.64 
L 402.32 196.64 
z
" style="fill:#ff7f0e;opacity:0.4;"/>
   </g>
   <g id="patch_25">
    <path clip-path="url(#p48bf02e49b)" d="M 402.32 196.64 
L 461.82033 196.64 
L 461.82033 169.398686 
L 402.32 169.398686 
z
" style="fill:#ff7f0e;opacity:0.4;"/>
   </g>
   <g id="patch_26">
    <path clip-path="url(#p48bf02e49b)" d="M 402.32 169.398686 
L 444.820236 169.398686 
L 444.820236 142.157372 
L 402.32 142.157372 
z
" style="fill:#ff7f0e;opacity:0.4;"/>
   </g>
   <g id="line2d_16">
    <path clip-path="url(#p48bf02e49b)" d="M 402.500193 300.382562 
L 402.641888 294.310911 
L 402.984637 289.757173 
L 403.389225 286.721347 
L 403.995998 283.685522 
L 404.870729 280.649696 
L 406.086987 277.613871 
L 407.720033 274.578045 
L 409.838422 271.54222 
L 412.494014 268.506394 
L 415.711699 265.470569 
L 419.48061 262.434744 
L 423.748686 259.398918 
L 428.422087 256.363093 
L 435.898608 251.809354 
L 445.880303 245.737703 
L 450.502552 242.701878 
L 454.688967 239.666052 
L 458.338788 236.630227 
L 461.394742 233.594402 
L 462.695052 232.076489 
L 463.846932 230.558576 
L 464.856512 229.040663 
L 466.48649 226.004838 
L 467.682701 222.969012 
L 468.569459 219.933187 
L 469.948252 213.861536 
L 471.079278 209.307798 
L 472.522067 204.75406 
L 474.255208 200.200321 
L 477.215005 192.610758 
L 478.154574 189.574932 
L 478.793254 186.539107 
L 478.962883 185.021194 
L 479.012031 183.503281 
L 478.924723 181.985369 
L 478.684863 180.467456 
L 478.276552 178.949543 
L 477.68452 177.43163 
L 476.894642 175.913718 
L 475.894524 174.395805 
L 474.674117 172.877892 
L 473.226343 171.359979 
L 471.547665 169.842067 
L 469.63858 168.324154 
L 467.503988 166.806241 
L 462.601052 163.770416 
L 456.969993 160.73459 
L 450.807572 157.698765 
L 431.648109 148.591288 
L 425.867441 145.555463 
L 420.710976 142.519637 
L 416.280707 139.483812 
L 414.351571 137.965899 
L 412.612703 136.447987 
L 411.059641 134.930074 
L 409.685146 133.412161 
L 408.479728 131.894248 
L 407.432166 130.376336 
L 406.530035 128.858423 
L 405.109205 125.822597 
L 404.111015 122.786772 
L 403.435674 119.750946 
L 402.99715 116.715121 
L 402.638368 112.161383 
L 402.507461 107.607645 
L 402.507461 107.607645 
" style="fill:none;stroke:#1f77b4;stroke-linecap:square;stroke-width:1.5;"/>
   </g>
   <g id="line2d_17">
    <path clip-path="url(#p48bf02e49b)" d="M 402.634703 307.149091 
L 402.86647 301.928189 
L 403.200576 298.447588 
L 403.743248 294.966986 
L 404.574685 291.486385 
L 405.795709 288.005784 
L 406.58844 286.265483 
L 407.523269 284.525183 
L 408.615895 282.784882 
L 409.881663 281.044581 
L 411.335027 279.304281 
L 412.988953 277.56398 
L 414.854277 275.823679 
L 416.939037 274.083379 
L 419.247806 272.343078 
L 421.781054 270.602777 
L 424.534578 268.862477 
L 430.659548 265.381875 
L 437.480991 261.901274 
L 448.491414 256.680372 
L 459.44101 251.45947 
L 466.074396 247.978869 
L 469.050649 246.238568 
L 471.74439 244.498268 
L 474.120248 242.757967 
L 476.149215 241.017666 
L 477.809526 239.277366 
L 479.087292 237.537065 
L 479.976861 235.796764 
L 480.480893 234.056464 
L 480.610139 232.316163 
L 480.382937 230.575863 
L 479.824463 228.835562 
L 478.965745 227.095261 
L 477.842515 225.354961 
L 476.493925 223.61466 
L 473.286319 220.134059 
L 467.812261 214.913157 
L 462.387672 209.692255 
L 459.127044 206.211654 
L 456.264491 202.731052 
L 453.81464 199.250451 
L 451.737507 195.76985 
L 449.961321 192.289248 
L 448.405367 188.808647 
L 446.334176 183.587745 
L 443.855611 176.626543 
L 441.601692 169.66534 
L 438.248835 159.223536 
L 436.901786 155.742935 
L 435.30604 152.262334 
L 433.396571 148.781732 
L 431.141709 145.301131 
L 428.553838 141.82053 
L 425.691667 138.339928 
L 413.735637 124.417523 
L 411.213096 120.936922 
L 409.042712 117.456321 
L 407.248658 113.975719 
L 405.823038 110.495118 
L 404.733657 107.014517 
L 403.933478 103.533916 
L 403.369874 100.053314 
L 402.992375 96.572713 
L 402.685067 91.351811 
L 402.612007 86.130909 
L 402.612007 86.130909 
" style="fill:none;stroke:#ff7f0e;stroke-linecap:square;stroke-width:1.5;"/>
   </g>
  </g>
  <g id="axes_4">
   <g id="patch_27">
    <path d="M 402.32 75.08 
L 489.7 75.08 
L 489.7 14.3 
L 402.32 14.3 
z
" style="fill:#ffffff;"/>
   </g>
   <g id="matplotlib.axis_3">
    <g id="xtick_10">
     <g id="line2d_18">
      <g>
       <use style="stroke:#000000;stroke-width:0.8;" x="402.32" xlink:href="#m5949d5ba12" y="75.08"/>
      </g>
     </g>
    </g>
    <g id="xtick_11">
     <g id="line2d_19">
      <g>
       <use style="stroke:#000000;stroke-width:0.8;" x="446.01" xlink:href="#m5949d5ba12" y="75.08"/>
      </g>
     </g>
    </g>
    <g id="xtick_12">
     <g id="line2d_20">
      <g>
       <use style="stroke:#000000;stroke-width:0.8;" x="489.7" xlink:href="#m5949d5ba12" y="75.08"/>
      </g>
     </g>
    </g>
   </g>
   <g id="matplotlib.axis_4">
    <g id="ytick_5">
     <g id="line2d_21">
      <g>
       <use style="stroke:#000000;stroke-width:0.8;" x="402.32" xlink:href="#mc08f939dee" y="75.08"/>
      </g>
     </g>
    </g>
    <g id="ytick_6">
     <g id="line2d_22">
      <g>
       <use style="stroke:#000000;stroke-width:0.8;" x="402.32" xlink:href="#mc08f939dee" y="44.69"/>
      </g>
     </g>
    </g>
    <g id="ytick_7">
     <g id="line2d_23">
      <g>
       <use style="stroke:#000000;stroke-width:0.8;" x="402.32" xlink:href="#mc08f939dee" y="14.3"/>
      </g>
     </g>
    </g>
   </g>
   <g id="patch_28">
    <path d="M 402.32 75.08 
L 402.32 14.3 
" style="fill:none;stroke:#000000;stroke-linecap:square;stroke-linejoin:miter;stroke-width:0.8;"/>
   </g>
   <g id="patch_29">
    <path d="M 489.7 75.08 
L 489.7 14.3 
" style="fill:none;stroke:#000000;stroke-linecap:square;stroke-linejoin:miter;stroke-width:0.8;"/>
   </g>
   <g id="patch_30">
    <path d="M 402.32 75.08 
L 489.7 75.08 
" style="fill:none;stroke:#000000;stroke-linecap:square;stroke-linejoin:miter;stroke-width:0.8;"/>
   </g>
   <g id="patch_31">
    <path d="M 402.32 14.3 
L 489.7 14.3 
" style="fill:none;stroke:#000000;stroke-linecap:square;stroke-linejoin:miter;stroke-width:0.8;"/>
   </g>
   <g id="legend_1">
    <g id="patch_32">
     <path d="M 434.796875 51.65625 
L 482.7 51.65625 
Q 484.7 51.65625 484.7 49.65625 
L 484.7 21.3 
Q 484.7 19.3 482.7 19.3 
L 434.796875 19.3 
Q 432.796875 19.3 432.796875 21.3 
L 432.796875 49.65625 
Q 432.796875 51.65625 434.796875 51.65625 
z
" style="fill:#ffffff;opacity:0.8;stroke:#cccccc;stroke-linejoin:miter;"/>
    </g>
    <g id="patch_33">
     <path d="M 436.796875 30.898438 
L 456.796875 30.898438 
L 456.796875 23.898438 
L 436.796875 23.898438 
z
" style="fill:#1f77b4;stroke:#1f77b4;stroke-linejoin:miter;"/>
    </g>
    <g id="text_16">
     <!-- 0.0 -->
     <defs>
      <path d="M 10.6875 12.40625 
L 21 12.40625 
L 21 0 
L 10.6875 0 
z
" id="DejaVuSans-2e"/>
     </defs>
     <g transform="translate(464.796875 30.898438)scale(0.1 -0.1)">
      <use xlink:href="#DejaVuSans-30"/>
      <use x="63.623047" xlink:href="#DejaVuSans-2e"/>
      <use x="95.410156" xlink:href="#DejaVuSans-30"/>
     </g>
    </g>
    <g id="patch_34">
     <path d="M 436.796875 45.576563 
L 456.796875 45.576563 
L 456.796875 38.576563 
L 436.796875 38.576563 
z
" style="fill:#ff7f0e;stroke:#ff7f0e;stroke-linejoin:miter;"/>
    </g>
    <g id="text_17">
     <!-- 1.0 -->
     <g transform="translate(464.796875 45.576563)scale(0.1 -0.1)">
      <use xlink:href="#DejaVuSans-31"/>
      <use x="63.623047" xlink:href="#DejaVuSans-2e"/>
      <use x="95.410156" xlink:href="#DejaVuSans-30"/>
     </g>
    </g>
   </g>
  </g>
 </g>
 <defs>
  <clipPath id="p6156858eec">
   <rect height="243.12" width="349.52" x="52.8" y="75.08"/>
  </clipPath>
  <clipPath id="pd7a8087c95">
   <rect height="60.78" width="349.52" x="52.8" y="14.3"/>
  </clipPath>
  <clipPath id="p48bf02e49b">
   <rect height="243.12" width="87.38" x="402.32" y="75.08"/>
  </clipPath>
 </defs>
</svg>
